<?xml version="1.0" encoding="utf-8"?>
<!-- Generator: Adobe Illustrator 21.1.0, SVG Export Plug-In . SVG Version: 6.00 Build 0)  -->
<svg version="1.1" id="圖層_1" xmlns="http://www.w3.org/2000/svg" xmlns:xlink="http://www.w3.org/1999/xlink" x="0px" y="0px"
	 viewBox="0 0 84 84.9" style="enable-background:new 0 0 84 84.9;" xml:space="preserve">
<style type="text/css">
	.st0{fill:#1E50AA;}
</style>
<title>資產 3</title>
<g id="圖層_2">
	<g id="邀請卡_19.6x27_">
		<path class="st0" d="M18,27.4v5.5H0.3v-4.6c5.2-8.6,8.4-13.9,9.3-15.9c0.8-1.5,1.3-3.1,1.5-4.8c0.1-0.7-0.1-1.4-0.4-2
			C10.3,5.2,9.8,5,9.3,5C8.7,5,8.2,5.3,7.9,5.7C7.5,6.6,7.4,7.6,7.5,8.6v3H0.3v-1.2c0-1.4,0.1-2.9,0.3-4.3C0.8,5,1.2,4,1.9,3.1
			c0.7-1,1.7-1.8,2.8-2.3C6.1,0.2,7.5,0,9,0c3.2,0,5.6,0.8,7.2,2.4c1.6,1.6,2.5,3.7,2.5,6c0,2-0.5,4-1.4,5.8
			c-0.9,2.1-3.6,6.4-8.1,13.1L18,27.4z"/>
		<path class="st0" d="M40.4,9.2h-8c0-1.5,0-2.4,0-2.8c0-0.4-0.2-0.7-0.5-1C31.6,5.1,31.1,5,30.7,5c-0.4,0-0.7,0.1-1,0.4
			c-0.3,0.3-0.4,0.6-0.5,1c0,0.4-0.1,1.2-0.1,2.4v5.1c0.4-0.8,1-1.5,1.8-1.9c0.9-0.5,1.9-0.7,2.9-0.6c1.4,0,2.8,0.4,3.9,1.2
			c1,0.7,1.8,1.7,2.1,2.9c0.3,1.5,0.5,3,0.5,4.5v2.6c0,1.7-0.1,3.3-0.3,5c-0.2,1.1-0.7,2.2-1.4,3c-0.8,1-1.9,1.7-3.1,2.2
			c-1.5,0.5-3,0.8-4.6,0.8c-1.8,0.1-3.6-0.2-5.3-0.9c-1.3-0.5-2.4-1.4-3.2-2.6c-0.7-1-1.2-2.3-1.3-3.5c-0.1-1.2-0.2-3.6-0.2-7.2
			v-4.5c0-3.8,0.1-6.4,0.2-7.7c0.1-1.3,0.6-2.6,1.4-3.7c0.8-1.2,2-2.1,3.3-2.6C27.5,0.3,29.1,0,30.8,0c1.9-0.1,3.8,0.3,5.5,1.1
			c1.4,0.6,2.4,1.7,3.1,3.1C40.1,5.8,40.4,7.5,40.4,9.2z M32.4,19.3c0.1-0.8-0.1-1.6-0.4-2.3c-0.3-0.4-0.7-0.7-1.2-0.6
			c-0.5,0-1,0.2-1.2,0.6c-0.3,0.7-0.5,1.6-0.4,2.4v5.8c-0.1,0.9,0.1,1.9,0.4,2.8c0.2,0.4,0.7,0.7,1.2,0.7c0.4,0,0.8-0.2,1-0.5
			c0.4-0.3,0.6-1.3,0.6-2.7L32.4,19.3z"/>
		<path class="st0" d="M60.3,0.6v6.4h-5v25.8h-8.3V7.1H42V0.6H60.3z"/>
		<path class="st0" d="M81.4,0.6v32.2h-8.4V19.3h-2.5v13.5h-8.4V0.6h8.4v11.5h2.5V0.6H81.4z"/>
		<path class="st0" d="M9.2,37.7v15.8H5.6l-2.1-7.2v7.2H0V37.7h3.4l2.3,7.1v-7.1H9.2z"/>
		<path class="st0" d="M20.2,46.9c0,1.6,0,2.7-0.1,3.4c-0.1,1.4-1,2.5-2.3,3.1c-0.7,0.3-1.5,0.5-2.3,0.4c-0.8,0-1.6-0.1-2.3-0.4
			c-1.3-0.5-2.2-1.7-2.3-3c-0.1-1.1-0.1-2.3-0.1-3.4v-2.7c0-1.6,0-2.7,0.1-3.4c0.1-1.4,1-2.5,2.3-3.1c0.7-0.3,1.5-0.5,2.3-0.4
			c0.8,0,1.6,0.1,2.3,0.4c1.3,0.5,2.2,1.6,2.3,3c0.1,1.1,0.1,2.3,0.1,3.4L20.2,46.9z M16.1,41.7c0-0.5,0-0.9-0.1-1.4
			c-0.1-0.2-0.3-0.3-0.5-0.3c-0.2,0-0.4,0.1-0.5,0.2c-0.2,0.5-0.2,1-0.2,1.5v7.4c0,0.6,0,1.1,0.1,1.7c0.1,0.2,0.3,0.3,0.5,0.3
			c0.2,0,0.5-0.1,0.5-0.4c0.1-0.6,0.1-1.2,0.1-1.7V41.7z"/>
		<path class="st0" d="M31.5,37.7l-2.1,15.8h-6.2l-2.4-15.8h4.3c0.5,4.3,0.9,8,1.1,11c0.2-3,0.4-5.7,0.7-8.1l0.3-2.9L31.5,37.7z"/>
		<path class="st0" d="M32.2,37.7H39v3.2h-2.7v3h2.6v3h-2.6v3.5h3v3.2h-7.1V37.7z"/>
		<path class="st0" d="M53.1,37.7v15.8h-3.6V42.8l-1.4,10.7h-2.5L44.1,43v10.5h-3.6V37.7h5.3c0.1,1,0.3,2.1,0.5,3.3l0.6,4l0.9-7.4
			L53.1,37.7z"/>
		<path class="st0" d="M54.8,37.7h4.1c1,0,2,0.1,2.9,0.3c0.7,0.2,1.2,0.6,1.6,1.2c0.5,0.9,0.7,2,0.6,3c0.1,0.7-0.1,1.3-0.4,1.9
			c-0.5,0.5-1.1,0.8-1.7,0.8c0.8,0.1,1.4,0.5,1.9,1c0.4,0.7,0.6,1.5,0.5,2.3v1.5c0,0.8-0.1,1.6-0.3,2.4c-0.2,0.5-0.7,0.9-1.2,1
			c-1.1,0.2-2.2,0.3-3.3,0.3h-4.8V37.7z M58.9,40.4v3.5h0.4c0.4,0,0.7-0.1,0.8-0.3c0.2-0.6,0.2-1.1,0.2-1.7c0-0.3,0-0.7-0.1-1
			c-0.1-0.2-0.2-0.3-0.4-0.4C59.5,40.4,59.2,40.4,58.9,40.4z M58.9,46.4v4.4c0.4,0,0.8-0.1,1.1-0.3c0.2-0.4,0.3-0.8,0.2-1.2v-1.5
			c0-0.4,0-0.9-0.2-1.2C59.7,46.4,59.3,46.3,58.9,46.4L58.9,46.4z"/>
		<path class="st0" d="M65.8,37.7h6.8v3.2h-2.7v3h2.6v3h-2.6v3.5h3v3.2h-7.1V37.7z"/>
		<path class="st0" d="M74.1,37.7H77c1.3,0,2.7,0,4,0.2c0.7,0.1,1.2,0.5,1.6,1.1c0.5,0.9,0.7,2,0.6,3c0.1,0.9-0.1,1.7-0.5,2.5
			c-0.5,0.5-1.1,0.8-1.8,0.8c0.6,0.1,1.2,0.4,1.6,0.8c0.2,0.3,0.4,0.6,0.5,0.9c0.1,0.8,0.1,1.6,0.1,2.3v4.2h-3.8v-5.3
			c0-0.5,0-1.1-0.2-1.6c-0.1-0.2-0.5-0.3-1-0.3v7.1h-4.1V37.7z M78.2,40.4v3.5c0.3,0,0.7,0,1-0.2c0.2-0.1,0.3-0.5,0.3-1.2v-0.9
			c0-0.4,0-0.7-0.3-1C78.9,40.4,78.6,40.3,78.2,40.4L78.2,40.4z"/>
		<path class="st0" d="M13.6,80.2v4.2H0v-3.5c4-6.6,6.4-10.7,7.2-12.2c0.6-1.1,1-2.4,1.1-3.7c0-0.5-0.1-1.1-0.3-1.5
			c-0.2-0.3-0.6-0.5-1-0.5c-0.4,0-0.8,0.2-1,0.5c-0.3,0.7-0.4,1.4-0.3,2.2V68H0v-0.9c0-1.1,0-2.2,0.2-3.3c0.2-0.9,0.5-1.7,1.1-2.4
			c0.6-0.8,1.3-1.4,2.2-1.8c1-0.4,2.1-0.6,3.2-0.6c2-0.2,4,0.5,5.6,1.8c1.3,1.2,1.9,2.9,1.9,4.6c0,1.6-0.4,3.1-1.1,4.5
			c-1.9,3.5-4,6.9-6.3,10.1H13.6z"/>
		<path class="st0" d="M40.1,68v8.3c0,1.4-0.1,2.8-0.3,4.1c-0.2,0.9-0.7,1.7-1.3,2.4c-0.6,0.7-1.4,1.3-2.3,1.6c-1,0.3-2,0.5-3,0.5
			c-1.2,0-2.5-0.1-3.7-0.5c-0.9-0.3-1.7-0.9-2.3-1.6c-0.6-0.7-1-1.5-1.2-2.3c-0.3-1.3-0.4-2.5-0.4-3.8V68c-0.1-1.7,0.1-3.5,0.5-5.1
			c0.4-1.2,1.3-2.1,2.3-2.7c1.3-0.7,2.8-1.1,4.2-1c1.3,0,2.5,0.2,3.6,0.7c0.9,0.4,1.8,1,2.4,1.7c0.5,0.7,0.9,1.5,1.1,2.3
			C40,65.2,40.1,66.6,40.1,68z M33.9,65.9c0-0.8,0-1.7-0.2-2.5c-0.2-0.3-0.5-0.6-0.9-0.5c-0.4,0-0.8,0.2-0.9,0.5
			c-0.2,0.8-0.3,1.6-0.2,2.4V78c-0.1,0.9,0,1.8,0.2,2.6c0.2,0.3,0.5,0.5,0.9,0.4c0.4,0,0.7-0.2,0.9-0.5c0.2-0.8,0.3-1.6,0.2-2.3
			V65.9z"/>
		<path class="st0" d="M61.3,59.6v24.8h-6.2V71.1c0-1.2,0-2.3-0.1-3.5c-0.1-0.4-0.4-0.7-0.8-0.9c-0.9-0.3-1.8-0.4-2.8-0.3h-0.6v-2.9
			c2.7-0.5,5.1-1.9,6.8-4L61.3,59.6z"/>
		<path class="st0" d="M84,59.6V65l-4,19.4h-6.1L78.3,64h-6.1v-4.4H84z"/>
	</g>
</g>
</svg>
