<?xml version="1.0" encoding="utf-8"?>
<!-- Generator: Adobe Illustrator 21.1.0, SVG Export Plug-In . SVG Version: 6.00 Build 0)  -->
<svg version="1.1" id="圖層_1" xmlns="http://www.w3.org/2000/svg" xmlns:xlink="http://www.w3.org/1999/xlink" x="0px" y="0px"
	 viewBox="0 0 86.8 112.8" style="enable-background:new 0 0 86.8 112.8;" xml:space="preserve">
<style type="text/css">
	.st0{fill:#FFE56D;}
	.st1{font-family:'Avenir-Medium';}
	.st2{font-size:10px;}
	.st3{fill:#1E50AA;}
	.st4{fill:none;stroke:#E4007F;stroke-miterlimit:10;}
</style>
<title>資產 4</title>
<g id="圖層_2">
	<g id="邀請卡_19.6x27_">
		<text transform="matrix(1 0 0 1 10.18 108.67)" class="st0 st1 st2">8:30 - 5:30 PM</text>
		<path class="st3" d="M20.8,27.4v5.5H3.1v-4.6c5.2-8.6,8.4-13.9,9.3-15.9c0.8-1.5,1.3-3.1,1.5-4.8c0.1-0.7-0.1-1.4-0.4-2
			C13.1,5.2,12.6,5,12.1,5c-0.6,0-1.1,0.2-1.4,0.7c-0.4,0.9-0.5,1.9-0.4,2.8v3H3.1v-1.2C3,9,3.1,7.6,3.3,6.2C3.6,5,4,4,4.7,3.1
			c0.7-1,1.7-1.8,2.9-2.3C8.9,0.2,10.3,0,11.8,0C15,0,17.4,0.8,19,2.4c1.6,1.6,2.5,3.7,2.5,6c0,2-0.5,4-1.4,5.9
			c-0.9,2.1-3.6,6.4-8.1,13.1L20.8,27.4z"/>
		<path class="st3" d="M43.2,9.2h-8c0-1.5,0-2.4,0-2.8c0-0.4-0.2-0.7-0.5-1c-0.4-0.3-0.8-0.4-1.3-0.4c-0.4,0-0.7,0.1-1,0.4
			C32.2,5.6,32,6,32,6.4c0,0.4-0.1,1.2-0.1,2.4v5.1c0.4-0.8,1-1.5,1.8-1.9c0.9-0.5,1.9-0.7,3-0.6c1.4,0,2.8,0.4,3.9,1.2
			c1,0.7,1.8,1.7,2.2,2.9c0.3,1.5,0.5,3,0.5,4.5v2.6c0,1.7-0.1,3.3-0.3,5c-0.2,1.1-0.7,2.2-1.4,3c-0.8,1-1.9,1.7-3.1,2.2
			c-1.5,0.5-3,0.8-4.6,0.8c-1.8,0.1-3.6-0.2-5.3-0.9c-1.3-0.5-2.4-1.4-3.2-2.6c-0.7-1.1-1.2-2.3-1.3-3.5c-0.1-1.2-0.2-3.6-0.2-7.2
			v-4.5c0-3.8,0.1-6.4,0.2-7.7c0.1-1.3,0.6-2.6,1.4-3.7c0.8-1.2,2-2.1,3.3-2.6C30.3,0.3,31.9,0,33.6,0c1.9-0.1,3.8,0.3,5.5,1.1
			c1.4,0.6,2.5,1.7,3.1,3.1C42.9,5.8,43.3,7.5,43.2,9.2z M35.2,19.3c0.1-0.8-0.1-1.6-0.4-2.4c-0.3-0.4-0.7-0.7-1.2-0.6
			c-0.5,0-1,0.2-1.2,0.6c-0.3,0.7-0.5,1.6-0.4,2.4v5.8C31.9,26,32,27,32.3,27.9c0.2,0.4,0.7,0.7,1.2,0.7c0.4,0,0.8-0.2,1-0.5
			c0.4-0.3,0.6-1.3,0.6-2.7L35.2,19.3z"/>
		<path class="st3" d="M63.1,0.6v6.4h-5v25.8h-8.4V7.1h-5V0.6H63.1z"/>
		<path class="st3" d="M84.3,0.6v32.2h-8.4V19.3h-2.5v13.5H65V0.6h8.4v11.5h2.5V0.6H84.3z"/>
		<path class="st3" d="M12,37.7v15.8H8.4l-2.1-7.2v7.2H2.8V37.7h3.4l2.3,7.1v-7.1H12z"/>
		<path class="st3" d="M23,46.9c0,1.6,0,2.7-0.1,3.4c-0.1,1.4-1,2.5-2.3,3.1c-0.7,0.3-1.5,0.5-2.3,0.4c-0.8,0-1.5-0.1-2.3-0.4
			c-1.3-0.5-2.2-1.7-2.4-3c-0.1-1.1-0.1-2.3-0.1-3.4v-2.7c0-1.6,0-2.7,0.1-3.4c0.1-1.4,1-2.5,2.3-3.1c0.7-0.3,1.5-0.5,2.3-0.4
			c0.8,0,1.6,0.1,2.3,0.4c1.3,0.5,2.2,1.7,2.4,3c0.1,1.1,0.1,2.3,0.1,3.4V46.9z M18.9,41.7c0-0.5,0-0.9-0.1-1.4
			c-0.1-0.2-0.3-0.3-0.5-0.3c-0.2,0-0.4,0.1-0.5,0.3c-0.2,0.5-0.2,1-0.2,1.5v7.4c0,0.6,0,1.1,0.1,1.7c0.1,0.2,0.3,0.3,0.5,0.3
			c0.2,0,0.5-0.1,0.5-0.4c0.1-0.6,0.1-1.2,0.1-1.8V41.7z"/>
		<path class="st3" d="M34.3,37.7l-2.1,15.8H26l-2.4-15.8h4.3c0.5,4.3,0.9,8,1.1,11c0.2-3,0.4-5.7,0.7-8.1l0.3-2.9H34.3z"/>
		<path class="st3" d="M35,37.7h6.8v3.2h-2.8v3h2.6v3h-2.6v3.5h3v3.2H35V37.7z"/>
		<path class="st3" d="M56,37.7v15.8h-3.6V42.8l-1.4,10.7h-2.5L46.9,43v10.5h-3.6V37.7h5.3c0.2,0.9,0.3,2.1,0.5,3.4l0.6,4l0.9-7.4
			L56,37.7z"/>
		<path class="st3" d="M57.6,37.7h4.1c1,0,2,0.1,2.9,0.3c0.7,0.2,1.2,0.6,1.6,1.2c0.5,0.9,0.7,2,0.6,3c0.1,0.7-0.1,1.3-0.4,1.9
			c-0.5,0.5-1.1,0.8-1.7,0.8c0.7,0.1,1.4,0.5,1.9,1c0.4,0.7,0.6,1.5,0.5,2.3v1.5c0,0.8-0.1,1.6-0.4,2.4c-0.2,0.5-0.7,0.9-1.2,1
			c-1.1,0.2-2.2,0.3-3.3,0.3h-4.7V37.7z M61.7,40.4v3.5h0.4c0.4,0,0.7-0.1,0.8-0.3c0.2-0.6,0.2-1.1,0.2-1.7c0-0.3,0-0.7-0.1-1
			c-0.1-0.2-0.2-0.3-0.4-0.4C62.3,40.4,62,40.4,61.7,40.4L61.7,40.4z M61.7,46.4v4.4c0.4,0,0.8-0.1,1.1-0.3c0.2-0.4,0.3-0.8,0.2-1.2
			v-1.5c0.1-0.4,0-0.9-0.2-1.2C62.5,46.4,62.1,46.3,61.7,46.4L61.7,46.4z"/>
		<path class="st3" d="M68.6,37.7h6.8v3.2h-2.7v3h2.6v3h-2.6v3.5h3v3.2h-7.1V37.7z"/>
		<path class="st3" d="M76.9,37.7h2.9c1.3,0,2.6,0,3.9,0.2c0.7,0.1,1.3,0.5,1.7,1.1c0.5,0.9,0.7,2,0.7,3c0.1,0.9-0.1,1.7-0.5,2.5
			c-0.5,0.5-1.1,0.8-1.8,0.8c0.6,0.1,1.2,0.4,1.6,0.8c0.2,0.3,0.4,0.6,0.5,1c0.1,0.8,0.1,1.6,0.1,2.3v4.2h-3.8v-5.3
			c0-0.5,0-1.1-0.2-1.6c-0.1-0.2-0.5-0.3-1-0.3v7.1h-4.2V37.7z M81,40.4v3.5c0.3,0,0.7,0,1-0.2c0.2-0.1,0.3-0.5,0.3-1.2v-0.9
			c0.1-0.4,0-0.7-0.3-1C81.7,40.4,81.4,40.3,81,40.4z"/>
		<path class="st3" d="M16.5,80.2v4.2H2.8v-3.5c4-6.6,6.4-10.7,7.2-12.3c0.6-1.1,1-2.4,1.1-3.7c0-0.5-0.1-1.1-0.4-1.5
			c-0.2-0.3-0.6-0.5-1.1-0.5c-0.4,0-0.8,0.2-1.1,0.5c-0.3,0.7-0.4,1.4-0.4,2.2V68H2.8v-0.9c0-1.1,0-2.2,0.2-3.3
			c0.2-0.9,0.6-1.7,1.1-2.4c0.6-0.8,1.3-1.4,2.2-1.8c1-0.4,2.1-0.6,3.2-0.6c2-0.2,4,0.5,5.6,1.8c1.3,1.2,1.9,2.9,1.9,4.6
			c0,1.6-0.4,3.1-1.1,4.5c-1.9,3.5-4,6.9-6.3,10.1H16.5z"/>
		<path class="st3" d="M42.9,68v8.3c0,1.4-0.1,2.8-0.3,4.1c-0.2,0.9-0.7,1.7-1.3,2.4c-0.6,0.7-1.4,1.3-2.3,1.6c-1,0.3-2,0.5-3,0.5
			c-1.2,0-2.5-0.1-3.7-0.5c-0.9-0.3-1.7-0.9-2.4-1.6c-0.6-0.7-1-1.5-1.2-2.3c-0.3-1.3-0.4-2.5-0.4-3.8V68c-0.1-1.7,0.1-3.5,0.6-5.1
			c0.4-1.2,1.3-2.1,2.4-2.7c1.3-0.7,2.8-1.1,4.3-1c1.3,0,2.5,0.2,3.7,0.7c0.9,0.4,1.8,1,2.4,1.7c0.5,0.7,0.9,1.5,1.1,2.3
			C42.9,65.3,42.9,66.6,42.9,68z M36.7,65.9c0-0.8,0-1.7-0.2-2.5c-0.2-0.4-0.5-0.6-0.9-0.5c-0.4,0-0.8,0.2-0.9,0.5
			c-0.2,0.8-0.3,1.6-0.2,2.4V78c-0.1,0.9,0,1.8,0.2,2.6c0.2,0.3,0.5,0.5,0.9,0.4c0.4,0,0.7-0.2,0.9-0.5c0.2-0.8,0.3-1.6,0.2-2.3
			V65.9z"/>
		<path class="st3" d="M64.1,59.6v24.8h-6.2V71.1c0-1.2,0-2.3-0.1-3.5c-0.1-0.4-0.4-0.7-0.8-0.9c-0.9-0.3-1.8-0.4-2.8-0.3h-0.6v-2.9
			c2.7-0.5,5.1-1.9,6.8-4L64.1,59.6z"/>
		<path class="st3" d="M86.8,59.6V65l-4,19.4h-6.1L81.1,64H75v-4.4H86.8z"/>
		<line class="st4" x1="0" y1="93.3" x2="85" y2="93.3"/>
	</g>
</g>
</svg>
