<svg width="48" height="48" viewBox="0 0 48 48" version="1.1" xmlns="http://www.w3.org/2000/svg" xmlns:xlink="http://www.w3.org/1999/xlink">
<title>Bold Outline</title>
<desc>Created using Figma</desc>
<g id="Canvas" transform="translate(-397 -1804)">
<g id="Bold Outline">
<g id="calender">
<g id="shape">
<use xlink:href="#path0_fill" transform="translate(397 1804)" fill="#56CCF2"/>
</g>
</g>
</g>
</g>
<defs>
<path id="path0_fill" d="M 31.2 9.6L 16.8 9.6L 16.8 12C 16.8 13.3255 15.7255 14.4 14.4 14.4C 13.0745 14.4 12 13.3255 12 12L 12 9.6L 9.6 9.6C 6.94903 9.6 4.8 11.749 4.8 14.4L 4.8 16.8L 43.2 16.8L 43.2 14.4C 43.2 11.749 41.051 9.6 38.4 9.6L 36 9.6L 36 12C 36 13.3255 34.9255 14.4 33.6 14.4C 32.2745 14.4 31.2 13.3255 31.2 12L 31.2 9.6ZM 36 4.8L 38.4 4.8C 43.7019 4.8 48 9.09807 48 14.4L 48 38.4C 48 43.7019 43.7019 48 38.4 48L 9.6 48C 4.29807 48 0 43.7019 0 38.4L 0 14.4C 0 9.09807 4.29807 4.8 9.6 4.8L 12 4.8L 12 2.4C 12 1.07452 13.0745 0 14.4 0C 15.7255 0 16.8 1.07452 16.8 2.4L 16.8 4.8L 31.2 4.8L 31.2 2.4C 31.2 1.07452 32.2745 0 33.6 0C 34.9255 0 36 1.07452 36 2.4L 36 4.8ZM 43.2 21.6L 4.8 21.6L 4.8 38.4C 4.8 41.051 6.94903 43.2 9.6 43.2L 38.4 43.2C 41.051 43.2 43.2 41.051 43.2 38.4L 43.2 21.6Z"/>
</defs>
</svg>
