<svg width="789" height="565" viewBox="0 0 789 565" version="1.1" xmlns="http://www.w3.org/2000/svg" xmlns:xlink="http://www.w3.org/1999/xlink">
<title>clone</title>
<desc>Created using Figma</desc>
<g id="Canvas" transform="translate(0 -3686)">
<g id="clone">
<g id="Group">
<g id="Group" opacity="0.5">
<g id="Group" opacity="0.5">
<g id="Vector" opacity="0.5">
<use xlink:href="#path0_fill" transform="translate(185.9 4136)" fill="#2208BA"/>
</g>
<g id="Group" opacity="0.5">
<g id="Vector" opacity="0.5">
<use xlink:href="#path1_fill" transform="translate(258.9 4189.7)" fill="#2208BA"/>
</g>
<g id="Vector" opacity="0.5">
<use xlink:href="#path2_fill" transform="translate(235 4179)" fill="#2208BA"/>
</g>
</g>
<g id="Group" opacity="0.5">
<g id="Vector" opacity="0.5">
<use xlink:href="#path3_fill" transform="translate(251.7 4233.8)" fill="#2208BA"/>
</g>
<g id="Vector" opacity="0.5">
<use xlink:href="#path4_fill" transform="translate(261.4 4205.7)" fill="#2208BA"/>
</g>
</g>
<g id="Group" opacity="0.5">
<g id="Vector" opacity="0.5">
<use xlink:href="#path5_fill" transform="translate(292.4 4180.4)" fill="#2208BA"/>
</g>
<g id="Vector" opacity="0.5">
<use xlink:href="#path6_fill" transform="translate(273.7 4187.6)" fill="#2208BA"/>
</g>
</g>
<g id="Group" opacity="0.5">
<g id="Vector" opacity="0.5">
<use xlink:href="#path7_fill" transform="translate(289.1 4210.8)" fill="#2208BA"/>
</g>
<g id="Vector" opacity="0.5">
<use xlink:href="#path8_fill" transform="translate(272.7 4202.5)" fill="#2208BA"/>
</g>
</g>
<g id="Group" opacity="0.5">
<g id="Vector" opacity="0.5">
<use xlink:href="#path9_fill" transform="translate(96.3 4093.5)" fill="#2208BA"/>
</g>
<g id="Vector" opacity="0.5">
<use xlink:href="#path10_fill" transform="translate(128.6 4121.7)" fill="#2208BA"/>
</g>
</g>
<g id="Group" opacity="0.5">
<g id="Vector" opacity="0.5">
<use xlink:href="#path11_fill" transform="translate(277.7 4097.2)" fill="#2208BA"/>
</g>
<g id="Vector" opacity="0.5">
<use xlink:href="#path12_fill" transform="translate(235.6 4119.7)" fill="#2208BA"/>
</g>
</g>
<g id="Group" opacity="0.5">
<g id="Vector" opacity="0.5">
<use xlink:href="#path13_fill" transform="translate(195.2 4224.5)" fill="#2208BA"/>
</g>
<g id="Vector" opacity="0.5">
<use xlink:href="#path14_fill" transform="translate(206.6 4192.4)" fill="#2208BA"/>
</g>
</g>
<g id="Group" opacity="0.5">
<g id="Vector" opacity="0.5">
<use xlink:href="#path15_fill" transform="translate(126.5 4189.5)" fill="#2208BA"/>
</g>
<g id="Vector" opacity="0.5">
<use xlink:href="#path16_fill" transform="translate(149.3 4177.2)" fill="#2208BA"/>
</g>
</g>
<g id="Group" opacity="0.5">
<g id="Vector" opacity="0.5">
<use xlink:href="#path17_fill" transform="translate(207.3 4072.4)" fill="#2208BA"/>
</g>
<g id="Vector" opacity="0.5">
<use xlink:href="#path18_fill" transform="translate(211.7 4096.4)" fill="#2208BA"/>
</g>
</g>
</g>
<g id="Group" opacity="0.5">
<g id="Vector" opacity="0.5">
<use xlink:href="#path19_fill" transform="translate(47.1 4169.8)" fill="#2208BA"/>
</g>
<g id="Group" opacity="0.5">
<g id="Vector" opacity="0.5">
<use xlink:href="#path20_fill" transform="translate(88.9 4208)" fill="#2208BA"/>
</g>
<g id="Vector" opacity="0.5">
<use xlink:href="#path21_fill" transform="translate(76.7 4198.1)" fill="#2208BA"/>
</g>
</g>
<g id="Group" opacity="0.5">
<g id="Vector" opacity="0.5">
<use xlink:href="#path22_fill" transform="translate(80.2 4233.8)" fill="#2208BA"/>
</g>
<g id="Vector" opacity="0.5">
<use xlink:href="#path23_fill" transform="translate(87 4217.3)" fill="#2208BA"/>
</g>
</g>
<g id="Group" opacity="0.5">
<g id="Vector" opacity="0.5">
<use xlink:href="#path24_fill" transform="translate(110.5 4205.5)" fill="#2208BA"/>
</g>
<g id="Vector" opacity="0.5">
<use xlink:href="#path25_fill" transform="translate(98.4 4209.1)" fill="#2208BA"/>
</g>
</g>
<g id="Group" opacity="0.5">
<g id="Vector" opacity="0.5">
<use xlink:href="#path26_fill" transform="translate(105.3 4223.2)" fill="#2208BA"/>
</g>
<g id="Vector" opacity="0.5">
<use xlink:href="#path27_fill" transform="translate(97 4216.1)" fill="#2208BA"/>
</g>
</g>
<g id="Group" opacity="0.5">
<g id="Vector" opacity="0.5">
<use xlink:href="#path28_fill" transform="translate(-1 4134.5)" fill="#2208BA"/>
</g>
<g id="Vector" opacity="0.5">
<use xlink:href="#path29_fill" transform="translate(18.4 4152.9)" fill="#2208BA"/>
</g>
</g>
<g id="Group" opacity="0.5">
<g id="Vector" opacity="0.5">
<use xlink:href="#path30_fill" transform="translate(108.5 4154.4)" fill="#2208BA"/>
</g>
<g id="Vector" opacity="0.5">
<use xlink:href="#path31_fill" transform="translate(80 4166.7)" fill="#2208BA"/>
</g>
</g>
<g id="Group" opacity="0.5">
<g id="Vector" opacity="0.5">
<use xlink:href="#path32_fill" transform="translate(47 4222.8)" fill="#2208BA"/>
</g>
<g id="Vector" opacity="0.5">
<use xlink:href="#path33_fill" transform="translate(54.9 4203.9)" fill="#2208BA"/>
</g>
</g>
<g id="Group" opacity="0.5">
<g id="Vector" opacity="0.5">
<use xlink:href="#path34_fill" transform="translate(8.5 4195)" fill="#2208BA"/>
</g>
<g id="Vector" opacity="0.5">
<use xlink:href="#path35_fill" transform="translate(23.3 4192.3)" fill="#2208BA"/>
</g>
</g>
<g id="Group" opacity="0.5">
<g id="Vector" opacity="0.5">
<use xlink:href="#path36_fill" transform="translate(69.2 4132.5)" fill="#2208BA"/>
</g>
<g id="Vector" opacity="0.5">
<use xlink:href="#path37_fill" transform="translate(66.8 4146.5)" fill="#2208BA"/>
</g>
</g>
</g>
</g>
<g id="Group" opacity="0.57">
<g id="Group" opacity="0.57">
<g id="Group" opacity="0.57">
<g id="Group" opacity="0.57">
<g id="Vector" opacity="0.57">
<use xlink:href="#path38_fill" transform="translate(443 3849.6)" fill="#0F05D6"/>
</g>
<g id="Group" opacity="0.57">
<g id="Vector" opacity="0.57">
<use xlink:href="#path39_fill" transform="translate(408.5 3948.9)" fill="#0F05D6"/>
</g>
<g id="Vector" opacity="0.57">
<use xlink:href="#path40_fill" transform="translate(428 3920.2)" fill="#0F05D6"/>
</g>
</g>
<g id="Group" opacity="0.57">
<g id="Vector" opacity="0.57">
<use xlink:href="#path41_fill" transform="translate(435.9 4008.7)" fill="#0F05D6"/>
</g>
<g id="Vector" opacity="0.57">
<use xlink:href="#path42_fill" transform="translate(425.2 3970.3)" fill="#0F05D6"/>
</g>
</g>
<g id="Group" opacity="0.57">
<g id="Vector" opacity="0.57">
<use xlink:href="#path43_fill" transform="translate(362.2 3948.6)" fill="#0F05D6"/>
</g>
<g id="Vector" opacity="0.57">
<use xlink:href="#path44_fill" transform="translate(379.4 3956)" fill="#0F05D6"/>
</g>
</g>
<g id="Group" opacity="0.57">
<g id="Vector" opacity="0.57">
<use xlink:href="#path45_fill" transform="translate(380 3989.9)" fill="#0F05D6"/>
</g>
<g id="Vector" opacity="0.57">
<use xlink:href="#path46_fill" transform="translate(393.6 3968.8)" fill="#0F05D6"/>
</g>
</g>
<g id="Group" opacity="0.57">
<g id="Vector" opacity="0.57">
<use xlink:href="#path47_fill" transform="translate(575.2 3749.1)" fill="#0F05D6"/>
</g>
<g id="Vector" opacity="0.57">
<use xlink:href="#path48_fill" transform="translate(512 3795.2)" fill="#0F05D6"/>
</g>
</g>
<g id="Group" opacity="0.57">
<g id="Vector" opacity="0.57">
<use xlink:href="#path49_fill" transform="translate(328.3 3827.2)" fill="#0F05D6"/>
</g>
<g id="Vector" opacity="0.57">
<use xlink:href="#path50_fill" transform="translate(371.2 3853.8)" fill="#0F05D6"/>
</g>
</g>
<g id="Group" opacity="0.57">
<g id="Vector" opacity="0.57">
<use xlink:href="#path51_fill" transform="translate(508.9 3973)" fill="#0F05D6"/>
</g>
<g id="Vector" opacity="0.57">
<use xlink:href="#path52_fill" transform="translate(495.6 3929.5)" fill="#0F05D6"/>
</g>
</g>
<g id="Group" opacity="0.57">
<g id="Vector" opacity="0.57">
<use xlink:href="#path53_fill" transform="translate(585.4 3896)" fill="#0F05D6"/>
</g>
<g id="Vector" opacity="0.57">
<use xlink:href="#path54_fill" transform="translate(523.3 3898.1)" fill="#0F05D6"/>
</g>
</g>
<g id="Group" opacity="0.57">
<g id="Vector" opacity="0.57">
<use xlink:href="#path55_fill" transform="translate(422.2 3763.8)" fill="#0F05D6"/>
</g>
<g id="Vector" opacity="0.57">
<use xlink:href="#path56_fill" transform="translate(448.8 3795.4)" fill="#0F05D6"/>
</g>
</g>
</g>
<g id="Group" opacity="0.57">
<g id="Vector" opacity="0.57">
<use xlink:href="#path57_fill" transform="translate(677.1 3838)" fill="#0F05D6"/>
</g>
<g id="Group" opacity="0.57">
<g id="Vector" opacity="0.57">
<use xlink:href="#path58_fill" transform="translate(664.3 3903.3)" fill="#0F05D6"/>
</g>
<g id="Vector" opacity="0.57">
<use xlink:href="#path59_fill" transform="translate(675.2 3882.1)" fill="#0F05D6"/>
</g>
</g>
<g id="Group" opacity="0.57">
<g id="Vector" opacity="0.57">
<use xlink:href="#path60_fill" transform="translate(686.9 3935.7)" fill="#0F05D6"/>
</g>
<g id="Vector" opacity="0.57">
<use xlink:href="#path61_fill" transform="translate(675.5 3915.6)" fill="#0F05D6"/>
</g>
</g>
<g id="Group" opacity="0.57">
<g id="Vector" opacity="0.57">
<use xlink:href="#path62_fill" transform="translate(636.1 3907.5)" fill="#0F05D6"/>
</g>
<g id="Vector" opacity="0.57">
<use xlink:href="#path63_fill" transform="translate(646.4 3910.1)" fill="#0F05D6"/>
</g>
</g>
<g id="Group" opacity="0.57">
<g id="Vector" opacity="0.57">
<use xlink:href="#path64_fill" transform="translate(650.9 3931.1)" fill="#0F05D6"/>
</g>
<g id="Vector" opacity="0.57">
<use xlink:href="#path65_fill" transform="translate(658.5 3915.9)" fill="#0F05D6"/>
</g>
</g>
<g id="Group" opacity="0.57">
<g id="Vector" opacity="0.57">
<use xlink:href="#path66_fill" transform="translate(745.6 3765.3)" fill="#0F05D6"/>
</g>
<g id="Vector" opacity="0.57">
<use xlink:href="#path67_fill" transform="translate(716.7 3794.1)" fill="#0F05D6"/>
</g>
</g>
<g id="Group" opacity="0.57">
<g id="Vector" opacity="0.57">
<use xlink:href="#path68_fill" transform="translate(604.1 3837.3)" fill="#0F05D6"/>
</g>
<g id="Vector" opacity="0.57">
<use xlink:href="#path69_fill" transform="translate(631.2 3850.7)" fill="#0F05D6"/>
</g>
</g>
<g id="Group" opacity="0.57">
<g id="Vector" opacity="0.57">
<use xlink:href="#path70_fill" transform="translate(727.5 3906.8)" fill="#0F05D6"/>
</g>
<g id="Vector" opacity="0.57">
<use xlink:href="#path71_fill" transform="translate(713.8 3883.8)" fill="#0F05D6"/>
</g>
</g>
<g id="Group" opacity="0.57">
<g id="Vector" opacity="0.57">
<use xlink:href="#path72_fill" transform="translate(765.9 3852.9)" fill="#0F05D6"/>
</g>
<g id="Vector" opacity="0.57">
<use xlink:href="#path73_fill" transform="translate(727.4 3862.3)" fill="#0F05D6"/>
</g>
</g>
<g id="Group" opacity="0.57">
<g id="Vector" opacity="0.57">
<use xlink:href="#path74_fill" transform="translate(654.1 3788.8)" fill="#0F05D6"/>
</g>
<g id="Vector" opacity="0.57">
<use xlink:href="#path75_fill" transform="translate(671.9 3807.7)" fill="#0F05D6"/>
</g>
</g>
</g>
</g>
<g id="Group" opacity="0.38">
<g id="Group" opacity="0.38">
<g id="Group" opacity="0.38">
<g id="Vector" opacity="0.38">
<use xlink:href="#path76_fill" transform="translate(247.3 3725.8)" fill="#0F05D6"/>
</g>
</g>
<g id="Group" opacity="0.38">
<g id="Vector" opacity="0.38">
<use xlink:href="#path77_fill" transform="translate(296.8 3788.7)" fill="#0F05D6"/>
</g>
<g id="Vector" opacity="0.38">
<use xlink:href="#path78_fill" transform="translate(270.5 3750.3)" fill="#0F05D6"/>
</g>
</g>
<g id="Group" opacity="0.38">
<g id="Vector" opacity="0.38">
<use xlink:href="#path79_fill" transform="translate(190.9 3737.8)" fill="#0F05D6"/>
</g>
<g id="Vector" opacity="0.38">
<use xlink:href="#path80_fill" transform="translate(211.5 3740.8)" fill="#0F05D6"/>
</g>
</g>
<g id="Group" opacity="0.38">
<g id="Vector" opacity="0.38">
<use xlink:href="#path81_fill" transform="translate(223.5 3783.6)" fill="#0F05D6"/>
</g>
<g id="Vector" opacity="0.38">
<use xlink:href="#path82_fill" transform="translate(238.1 3751.8)" fill="#0F05D6"/>
</g>
</g>
<g id="Group" opacity="0.38">
<g id="Vector" opacity="0.38">
<use xlink:href="#path83_fill" transform="translate(375.2 3725.1)" fill="#0F05D6"/>
</g>
<g id="Vector" opacity="0.38">
<use xlink:href="#path84_fill" transform="translate(366.8 3712)" fill="#0F05D6"/>
</g>
</g>
</g>
</g>
<g id="Group" opacity="0.38">
<g id="Group" opacity="0.38">
<g id="Vector" opacity="0.38">
<use xlink:href="#path85_fill" transform="translate(119.8 3795.8)" fill="#0F05D6"/>
</g>
<g id="Group" opacity="0.38">
<g id="Vector" opacity="0.38">
<use xlink:href="#path86_fill" transform="translate(263 3897.6)" fill="#0F05D6"/>
</g>
<g id="Vector" opacity="0.38">
<use xlink:href="#path87_fill" transform="translate(215.5 3878.5)" fill="#0F05D6"/>
</g>
</g>
<g id="Group" opacity="0.38">
<g id="Vector" opacity="0.38">
<use xlink:href="#path88_fill" transform="translate(330.8 3845.6)" fill="#0F05D6"/>
</g>
<g id="Vector" opacity="0.38">
<use xlink:href="#path89_fill" transform="translate(289.4 3871.3)" fill="#0F05D6"/>
</g>
</g>
<g id="Group" opacity="0.38">
<g id="Vector" opacity="0.38">
<use xlink:href="#path90_fill" transform="translate(275.8 3966.9)" fill="#0F05D6"/>
</g>
<g id="Vector" opacity="0.38">
<use xlink:href="#path91_fill" transform="translate(279.1 3928.6)" fill="#0F05D6"/>
</g>
</g>
<g id="Group" opacity="0.38">
<g id="Vector" opacity="0.38">
<use xlink:href="#path92_fill" transform="translate(325 3932.1)" fill="#0F05D6"/>
</g>
<g id="Vector" opacity="0.38">
<use xlink:href="#path93_fill" transform="translate(290.9 3919.7)" fill="#0F05D6"/>
</g>
</g>
<g id="Group" opacity="0.38">
<g id="Vector" opacity="0.38">
<use xlink:href="#path94_fill" transform="translate(128 4005.6)" fill="#0F05D6"/>
</g>
<g id="Vector" opacity="0.38">
<use xlink:href="#path95_fill" transform="translate(154.7 3906.1)" fill="#0F05D6"/>
</g>
</g>
<g id="Group" opacity="0.38">
<g id="Vector" opacity="0.38">
<use xlink:href="#path96_fill" transform="translate(262.5 3758.2)" fill="#0F05D6"/>
</g>
<g id="Vector" opacity="0.38">
<use xlink:href="#path97_fill" transform="translate(216.2 3787.9)" fill="#0F05D6"/>
</g>
</g>
<g id="Group" opacity="0.38">
<g id="Vector" opacity="0.38">
<use xlink:href="#path98_fill" transform="translate(16 3917)" fill="#0F05D6"/>
</g>
<g id="Vector" opacity="0.38">
<use xlink:href="#path99_fill" transform="translate(56.6 3877.1)" fill="#0F05D6"/>
</g>
</g>
</g>
<g id="Group" opacity="0.38">
<g id="Vector" opacity="0.38">
<use xlink:href="#path100_fill" transform="translate(264.8 4040.5)" fill="#0F05D6"/>
</g>
<g id="Group" opacity="0.38">
<g id="Vector" opacity="0.38">
<use xlink:href="#path101_fill" transform="translate(252.7 4121.1)" fill="#0F05D6"/>
</g>
<g id="Vector" opacity="0.38">
<use xlink:href="#path102_fill" transform="translate(265.4 4094.4)" fill="#0F05D6"/>
</g>
</g>
<g id="Group" opacity="0.38">
<g id="Vector" opacity="0.38">
<use xlink:href="#path103_fill" transform="translate(282.6 4159.2)" fill="#0F05D6"/>
</g>
<g id="Vector" opacity="0.38">
<use xlink:href="#path104_fill" transform="translate(266.7 4135.9)" fill="#0F05D6"/>
</g>
</g>
<g id="Group" opacity="0.38">
<g id="Vector" opacity="0.38">
<use xlink:href="#path105_fill" transform="translate(218.6 4128.4)" fill="#0F05D6"/>
</g>
<g id="Vector" opacity="0.38">
<use xlink:href="#path106_fill" transform="translate(231 4130.2)" fill="#0F05D6"/>
</g>
</g>
<g id="Group" opacity="0.38">
<g id="Vector" opacity="0.38">
<use xlink:href="#path107_fill" transform="translate(238.3 4156)" fill="#0F05D6"/>
</g>
<g id="Vector" opacity="0.38">
<use xlink:href="#path108_fill" transform="translate(247.1 4136.8)" fill="#0F05D6"/>
</g>
</g>
<g id="Group" opacity="0.38">
<g id="Vector" opacity="0.38">
<use xlink:href="#path109_fill" transform="translate(342.4 3947.2)" fill="#0F05D6"/>
</g>
<g id="Vector" opacity="0.38">
<use xlink:href="#path110_fill" transform="translate(311.4 3982.7)" fill="#0F05D6"/>
</g>
</g>
<g id="Group" opacity="0.38">
<g id="Vector" opacity="0.38">
<use xlink:href="#path111_fill" transform="translate(175.1 4045.3)" fill="#0F05D6"/>
</g>
<g id="Vector" opacity="0.38">
<use xlink:href="#path112_fill" transform="translate(208.2 4060.2)" fill="#0F05D6"/>
</g>
</g>
<g id="Group" opacity="0.38">
<g id="Vector" opacity="0.38">
<use xlink:href="#path113_fill" transform="translate(330.1 4120.6)" fill="#0F05D6"/>
</g>
<g id="Vector" opacity="0.38">
<use xlink:href="#path114_fill" transform="translate(311.1 4094.7)" fill="#0F05D6"/>
</g>
</g>
<g id="Group" opacity="0.38">
<g id="Vector" opacity="0.38">
<use xlink:href="#path115_fill" transform="translate(373 4052.1)" fill="#0F05D6"/>
</g>
<g id="Vector" opacity="0.38">
<use xlink:href="#path116_fill" transform="translate(326.1 4066.1)" fill="#0F05D6"/>
</g>
</g>
<g id="Group" opacity="0.38">
<g id="Vector" opacity="0.38">
<use xlink:href="#path117_fill" transform="translate(232.7 3982.2)" fill="#0F05D6"/>
</g>
<g id="Vector" opacity="0.38">
<use xlink:href="#path118_fill" transform="translate(254.7 4005)" fill="#0F05D6"/>
</g>
</g>
</g>
<g id="Group" opacity="0.38">
<g id="Vector" opacity="0.38">
<use xlink:href="#path119_fill" transform="translate(352.2 3734.3)" fill="#0F05D6"/>
</g>
<g id="Group" opacity="0.38">
<g id="Vector" opacity="0.38">
<use xlink:href="#path120_fill" transform="translate(330.7 3796.7)" fill="#0F05D6"/>
</g>
<g id="Vector" opacity="0.38">
<use xlink:href="#path121_fill" transform="translate(342.8 3778.7)" fill="#0F05D6"/>
</g>
</g>
<g id="Group" opacity="0.38">
<g id="Vector" opacity="0.38">
<use xlink:href="#path122_fill" transform="translate(347.8 3834.2)" fill="#0F05D6"/>
</g>
<g id="Vector" opacity="0.38">
<use xlink:href="#path123_fill" transform="translate(341.1 3810.2)" fill="#0F05D6"/>
</g>
</g>
<g id="Group" opacity="0.38">
<g id="Vector" opacity="0.38">
<use xlink:href="#path124_fill" transform="translate(301.6 3796.5)" fill="#0F05D6"/>
</g>
<g id="Vector" opacity="0.38">
<use xlink:href="#path125_fill" transform="translate(312.3 3801.1)" fill="#0F05D6"/>
</g>
</g>
<g id="Group" opacity="0.38">
<g id="Vector" opacity="0.38">
<use xlink:href="#path126_fill" transform="translate(312.7 3822.3)" fill="#0F05D6"/>
</g>
<g id="Vector" opacity="0.38">
<use xlink:href="#path127_fill" transform="translate(321.2 3809.2)" fill="#0F05D6"/>
</g>
</g>
<g id="Group" opacity="0.38">
<g id="Vector" opacity="0.38">
<use xlink:href="#path128_fill" transform="translate(395.6 3705.5)" fill="#0F05D6"/>
</g>
</g>
<g id="Group" opacity="0.38">
<g id="Vector" opacity="0.38">
<use xlink:href="#path129_fill" transform="translate(280.2 3720.3)" fill="#0F05D6"/>
</g>
<g id="Vector" opacity="0.38">
<use xlink:href="#path130_fill" transform="translate(307.2 3737.1)" fill="#0F05D6"/>
</g>
</g>
<g id="Group" opacity="0.38">
<g id="Vector" opacity="0.38">
<use xlink:href="#path131_fill" transform="translate(393.6 3811.7)" fill="#0F05D6"/>
</g>
<g id="Vector" opacity="0.38">
<use xlink:href="#path132_fill" transform="translate(385.3 3784.4)" fill="#0F05D6"/>
</g>
</g>
<g id="Group" opacity="0.38">
<g id="Vector" opacity="0.38">
<use xlink:href="#path133_fill" transform="translate(441.6 3763.4)" fill="#0F05D6"/>
</g>
<g id="Vector" opacity="0.38">
<use xlink:href="#path134_fill" transform="translate(402.6 3764.9)" fill="#0F05D6"/>
</g>
</g>
<g id="Group" opacity="0.38">
<g id="Vector" opacity="0.38">
<use xlink:href="#path135_fill" transform="translate(360.9 3712.6)" fill="#0F05D6"/>
</g>
</g>
</g>
<g id="Group" opacity="0.38">
<g id="Vector" opacity="0.38">
<use xlink:href="#path136_fill" transform="translate(448.8 3882)" fill="#0F05D6"/>
</g>
<g id="Group" opacity="0.38">
<g id="Vector" opacity="0.38">
<use xlink:href="#path137_fill" transform="translate(434.3 3923.7)" fill="#0F05D6"/>
</g>
<g id="Vector" opacity="0.38">
<use xlink:href="#path138_fill" transform="translate(442.5 3911.6)" fill="#0F05D6"/>
</g>
</g>
<g id="Group" opacity="0.38">
<g id="Vector" opacity="0.38">
<use xlink:href="#path139_fill" transform="translate(445.8 3948.6)" fill="#0F05D6"/>
</g>
<g id="Vector" opacity="0.38">
<use xlink:href="#path140_fill" transform="translate(441.3 3932.7)" fill="#0F05D6"/>
</g>
</g>
<g id="Group" opacity="0.38">
<g id="Vector" opacity="0.38">
<use xlink:href="#path141_fill" transform="translate(414.9 3923.5)" fill="#0F05D6"/>
</g>
<g id="Vector" opacity="0.38">
<use xlink:href="#path142_fill" transform="translate(422.1 3926.7)" fill="#0F05D6"/>
</g>
</g>
<g id="Group" opacity="0.38">
<g id="Vector" opacity="0.38">
<use xlink:href="#path143_fill" transform="translate(422.3 3940.9)" fill="#0F05D6"/>
</g>
<g id="Vector" opacity="0.38">
<use xlink:href="#path144_fill" transform="translate(428 3932.1)" fill="#0F05D6"/>
</g>
</g>
<g id="Group" opacity="0.38">
<g id="Vector" opacity="0.38">
<use xlink:href="#path145_fill" transform="translate(504.3 3839.8)" fill="#0F05D6"/>
</g>
<g id="Vector" opacity="0.38">
<use xlink:href="#path146_fill" transform="translate(477.8 3859.2)" fill="#0F05D6"/>
</g>
</g>
<g id="Group" opacity="0.38">
<g id="Vector" opacity="0.38">
<use xlink:href="#path147_fill" transform="translate(400.7 3872.6)" fill="#0F05D6"/>
</g>
<g id="Vector" opacity="0.38">
<use xlink:href="#path148_fill" transform="translate(418.7 3883.8)" fill="#0F05D6"/>
</g>
</g>
<g id="Group" opacity="0.38">
<g id="Vector" opacity="0.38">
<use xlink:href="#path149_fill" transform="translate(476.5 3933.8)" fill="#0F05D6"/>
</g>
<g id="Vector" opacity="0.38">
<use xlink:href="#path150_fill" transform="translate(470.9 3915.5)" fill="#0F05D6"/>
</g>
</g>
<g id="Group" opacity="0.38">
<g id="Vector" opacity="0.38">
<use xlink:href="#path151_fill" transform="translate(508.5 3901.4)" fill="#0F05D6"/>
</g>
<g id="Vector" opacity="0.38">
<use xlink:href="#path152_fill" transform="translate(482.5 3902.4)" fill="#0F05D6"/>
</g>
</g>
<g id="Group" opacity="0.38">
<g id="Vector" opacity="0.38">
<use xlink:href="#path153_fill" transform="translate(440 3846)" fill="#0F05D6"/>
</g>
<g id="Vector" opacity="0.38">
<use xlink:href="#path154_fill" transform="translate(451.2 3859.3)" fill="#0F05D6"/>
</g>
</g>
</g>
<g id="Group" opacity="0.38">
<g id="Vector" opacity="0.38">
<use xlink:href="#path155_fill" transform="translate(547.1 3877.2)" fill="#0F05D6"/>
</g>
<g id="Group" opacity="0.38">
<g id="Vector" opacity="0.38">
<use xlink:href="#path156_fill" transform="translate(541.6 3904.6)" fill="#0F05D6"/>
</g>
<g id="Vector" opacity="0.38">
<use xlink:href="#path157_fill" transform="translate(546.2 3895.7)" fill="#0F05D6"/>
</g>
</g>
<g id="Group" opacity="0.38">
<g id="Vector" opacity="0.38">
<use xlink:href="#path158_fill" transform="translate(551.2 3918.2)" fill="#0F05D6"/>
</g>
<g id="Vector" opacity="0.38">
<use xlink:href="#path159_fill" transform="translate(546.4 3909.7)" fill="#0F05D6"/>
</g>
</g>
<g id="Group" opacity="0.38">
<g id="Vector" opacity="0.38">
<use xlink:href="#path160_fill" transform="translate(529.8 3906.3)" fill="#0F05D6"/>
</g>
<g id="Vector" opacity="0.38">
<use xlink:href="#path161_fill" transform="translate(534.2 3907.4)" fill="#0F05D6"/>
</g>
</g>
<g id="Group" opacity="0.38">
<g id="Vector" opacity="0.38">
<use xlink:href="#path162_fill" transform="translate(536 3916.2)" fill="#0F05D6"/>
</g>
<g id="Vector" opacity="0.38">
<use xlink:href="#path163_fill" transform="translate(539.3 3909.8)" fill="#0F05D6"/>
</g>
</g>
<g id="Group" opacity="0.38">
<g id="Vector" opacity="0.38">
<use xlink:href="#path164_fill" transform="translate(575.8 3846.6)" fill="#0F05D6"/>
</g>
<g id="Vector" opacity="0.38">
<use xlink:href="#path165_fill" transform="translate(563.6 3858.7)" fill="#0F05D6"/>
</g>
</g>
<g id="Group" opacity="0.38">
<g id="Vector" opacity="0.38">
<use xlink:href="#path166_fill" transform="translate(516.3 3876.9)" fill="#0F05D6"/>
</g>
<g id="Vector" opacity="0.38">
<use xlink:href="#path167_fill" transform="translate(527.8 3882.5)" fill="#0F05D6"/>
</g>
</g>
<g id="Group" opacity="0.38">
<g id="Vector" opacity="0.38">
<use xlink:href="#path168_fill" transform="translate(568.2 3906)" fill="#0F05D6"/>
</g>
<g id="Vector" opacity="0.38">
<use xlink:href="#path169_fill" transform="translate(562.4 3896.4)" fill="#0F05D6"/>
</g>
</g>
<g id="Group" opacity="0.38">
<g id="Vector" opacity="0.38">
<use xlink:href="#path170_fill" transform="translate(584.4 3883.4)" fill="#0F05D6"/>
</g>
<g id="Vector" opacity="0.38">
<use xlink:href="#path171_fill" transform="translate(568.1 3887.3)" fill="#0F05D6"/>
</g>
</g>
<g id="Group" opacity="0.38">
<g id="Vector" opacity="0.38">
<use xlink:href="#path172_fill" transform="translate(537.4 3856.5)" fill="#0F05D6"/>
</g>
<g id="Vector" opacity="0.38">
<use xlink:href="#path173_fill" transform="translate(544.8 3864.3)" fill="#0F05D6"/>
</g>
</g>
</g>
</g>
<g id="Group" opacity="0.38">
<g id="Group" opacity="0.38">
<g id="Group" opacity="0.38">
<g id="Vector" opacity="0.38">
<use xlink:href="#path174_fill" transform="translate(479.7 3714.9)" fill="#0F05D6"/>
</g>
</g>
</g>
<g id="Group" opacity="0.38">
<g id="Vector" opacity="0.38">
<use xlink:href="#path175_fill" transform="translate(566.6 3737)" fill="#0F05D6"/>
</g>
<g id="Group" opacity="0.38">
<g id="Vector" opacity="0.38">
<use xlink:href="#path176_fill" transform="translate(559 3788.2)" fill="#0F05D6"/>
</g>
<g id="Vector" opacity="0.38">
<use xlink:href="#path177_fill" transform="translate(567 3771.2)" fill="#0F05D6"/>
</g>
</g>
<g id="Group" opacity="0.38">
<g id="Vector" opacity="0.38">
<use xlink:href="#path178_fill" transform="translate(577.9 3812.4)" fill="#0F05D6"/>
</g>
<g id="Vector" opacity="0.38">
<use xlink:href="#path179_fill" transform="translate(567.9 3797.6)" fill="#0F05D6"/>
</g>
</g>
<g id="Group" opacity="0.38">
<g id="Vector" opacity="0.38">
<use xlink:href="#path180_fill" transform="translate(537.2 3792.8)" fill="#0F05D6"/>
</g>
<g id="Vector" opacity="0.38">
<use xlink:href="#path181_fill" transform="translate(545.2 3794)" fill="#0F05D6"/>
</g>
</g>
<g id="Group" opacity="0.38">
<g id="Vector" opacity="0.38">
<use xlink:href="#path182_fill" transform="translate(549.7 3810.4)" fill="#0F05D6"/>
</g>
<g id="Vector" opacity="0.38">
<use xlink:href="#path183_fill" transform="translate(555.4 3798.2)" fill="#0F05D6"/>
</g>
</g>
<g id="Group" opacity="0.38">
<g id="Vector" opacity="0.38">
<use xlink:href="#path184_fill" transform="translate(615.9 3686)" fill="#0F05D6"/>
</g>
<g id="Vector" opacity="0.38">
<use xlink:href="#path185_fill" transform="translate(596.2 3700.3)" fill="#0F05D6"/>
</g>
</g>
<g id="Group" opacity="0.38">
<g id="Vector" opacity="0.38">
<use xlink:href="#path186_fill" transform="translate(509.6 3740)" fill="#0F05D6"/>
</g>
<g id="Vector" opacity="0.38">
<use xlink:href="#path187_fill" transform="translate(530.7 3749.5)" fill="#0F05D6"/>
</g>
</g>
<g id="Group" opacity="0.38">
<g id="Vector" opacity="0.38">
<use xlink:href="#path188_fill" transform="translate(608 3787.8)" fill="#0F05D6"/>
</g>
<g id="Vector" opacity="0.38">
<use xlink:href="#path189_fill" transform="translate(596 3771.4)" fill="#0F05D6"/>
</g>
</g>
<g id="Group" opacity="0.38">
<g id="Vector" opacity="0.38">
<use xlink:href="#path190_fill" transform="translate(635.4 3744.3)" fill="#0F05D6"/>
</g>
<g id="Vector" opacity="0.38">
<use xlink:href="#path191_fill" transform="translate(605.5 3753.2)" fill="#0F05D6"/>
</g>
</g>
<g id="Group" opacity="0.38">
<g id="Vector" opacity="0.38">
<use xlink:href="#path192_fill" transform="translate(546.3 3700)" fill="#0F05D6"/>
</g>
<g id="Vector" opacity="0.38">
<use xlink:href="#path193_fill" transform="translate(560.2 3714.4)" fill="#0F05D6"/>
</g>
</g>
</g>
</g>
</g>
</g>
</g>
</g>
</g>
<defs>
<path id="path0_fill" d="M 0.400003 14.1L -6.10352e-06 43.5L 25.3 58.8L 51.1 44.7L 51.5 15.2L 26.1 0L 0.400003 14.1ZM 2.70001 42L 3.1 15.7L 26.1 3L 48.7 16.7L 48.3 43L 25.3 55.6L 2.70001 42Z"/>
<path id="path1_fill" d="M 0.899988 3.50001L -6.10352e-06 11.9L 6.80001 16.9L 14.5 13.5L 15.4 5.09999L 8.6 1.2207e-05L 0.899988 3.50001ZM 0.800012 11.6L 1.70001 4.19999L 8.6 1.09999L 14.7 5.59999L 13.9 13.1L 6.99999 16.1L 0.800012 11.6Z"/>
<path id="path2_fill" d="M 0.300003 0L 0 0.399994L 25 14.9L 25.2 14.5L 0.300003 0Z"/>
<path id="path3_fill" d="M 10.2 -1.2207e-05L 2.1 2.40001L -3.05176e-06 10.6L 6.09999 16.3L 14.2 13.9L 16.3 5.7L 10.2 -1.2207e-05ZM 2.69999 2.99999L 10 0.799976L 15.4 5.90001L 13.5 13.2L 6.19999 15.4L 0.8 10.3L 2.69999 2.99999Z"/>
<path id="path4_fill" d="M 4.30001 0.0999878L 3.80001 1.2207e-05L -6.10352e-06 28.5L 0.399988 28.6L 4.30001 0.0999878Z"/>
<path id="path5_fill" d="M -6.10352e-06 7.30001L 4.30001 11.5L 10.1 9.89999L 11.6 4.20001L 7.30001 -6.10352e-06L 1.49999 1.6L -6.10352e-06 7.30001ZM 4.39999 10.9L 0.6 7.20001L 1.89999 2.1L 7.1 0.700006L 10.9 4.39999L 9.6 9.49999L 4.39999 10.9Z"/>
<path id="path6_fill" d="M 1.2207e-05 7.50001L 0.0999878 7.79999L 19.2 0.299994L 19 6.10352e-06L 1.2207e-05 7.50001Z"/>
<path id="path7_fill" d="M 0.799994 2.2L 6.10352e-06 8.10002L 4.69999 11.8L 10.2 9.60002L 11 3.7L 6.29999 -1.2207e-05L 0.799994 2.2ZM 0.600012 7.79998L 1.29999 2.49999L 6.29999 0.499988L 10.5 3.79998L 9.79999 9.10002L 4.9 11.1L 0.600012 7.79998Z"/>
<path id="path8_fill" d="M 0.0999878 0L 1.2207e-05 0.200012L 17.3 10.9L 17.5 10.6L 0.0999878 0Z"/>
<path id="path9_fill" d="M 33.4 29.6L 34 10.3L 17.6 0L 0.600002 8.89999L 3.05176e-06 28.1L 16.4 38.4L 33.4 29.6ZM 32.2 11.3L 31.6 28.5L 16.4 36.5L 1.8 27.3L 2.4 10.1L 17.6 2.10001L 32.2 11.3Z"/>
<path id="path10_fill" d="M 59.3 29.7L 59.8 28.7L 0.500006 1.2207e-05L 6.10352e-06 0.900006L 59.3 29.7Z"/>
<path id="path11_fill" d="M 0.0999878 23L 13.7 30.6L 27.2 22.9L 27.1 7.59999L 13.5 1.2207e-05L 1.2207e-05 7.69999L 0.0999878 23ZM 13.6 29L 1.50001 22.2L 1.40001 8.50001L 13.5 1.59999L 25.7 8.40001L 25.7 22.1L 13.6 29Z"/>
<path id="path12_fill" d="M 6.10352e-06 31.4L 0.500006 32.1L 43.4 0.699994L 42.9 1.2207e-05L 6.10352e-06 31.4Z"/>
<path id="path13_fill" d="M 12 0L 2.6 2.59998L -3.05176e-06 11.9L 6.90001 18.7L 16.3 16.1L 18.9 6.79999L 12 0ZM 3.3 3.40002L 11.7 1.09998L 17.8 7.09998L 15.5 15.5L 7.1 17.8L 0.999997 11.8L 3.3 3.40002Z"/>
<path id="path14_fill" d="M 5.6 0.1L 5.1 -6.10352e-06L 6.10352e-06 32.6L 0.500006 32.6L 5.6 0.1Z"/>
<path id="path15_fill" d="M 23.8 7.89999L 13.8 0L 1.89999 4.5L 0 16.9L 10 24.8L 21.9 20.2L 23.8 7.89999ZM 13.6 1.29999L 22.5 8.29999L 20.8 19.4L 10.1 23.5L 1.10001 16.4L 2.8 5.29999L 13.6 1.29999Z"/>
<path id="path16_fill" d="M 39.1 0.599988L 38.8 1.2207e-05L 3.05176e-06 19.8L 0.399997 20.5L 39.1 0.599988Z"/>
<path id="path17_fill" d="M 9.30001 24.7L 21.5 20.8L 24.3 8.39999L 15 -6.10352e-06L 2.80001 3.89999L 3.05176e-06 16.3L 9.30001 24.7ZM 20.5 19.9L 9.7 23.4L 1.30001 15.9L 3.80001 4.80001L 14.7 1.39999L 23 8.89999L 20.5 19.9Z"/>
<path id="path18_fill" d="M -3.05176e-06 43L 0.8 43L 5.69999 0.1L 5 -6.10352e-06L -3.05176e-06 43Z"/>
<path id="path19_fill" d="M 3.2 5.99999L -1.52588e-06 23.7L 13.7 35.4L 30.7 29.4L 33.9 11.7L 20.2 -1.2207e-05L 3.2 5.99999ZM 1.8 23.1L 4.7 7.30001L 19.8 1.99999L 32 12.5L 29.1 28.4L 13.9 33.7L 1.8 23.1Z"/>
<path id="path20_fill" d="M 1.4 1.20001L 1.52588e-06 6.20001L 3.6 9.90002L 8.6 8.59998L 10 3.70001L 6.4 -1.13687e-13L 1.4 1.20001ZM 0.500002 6L 1.8 1.59998L 6.2 0.5L 9.4 3.79999L 8.1 8.20001L 3.7 9.29999L 0.500002 6Z"/>
<path id="path21_fill" d="M 0.200002 -2.44141e-05L -3.05176e-06 0.300024L 13.6 11.5L 13.8 11.3L 0.200002 -2.44141e-05Z"/>
<path id="path22_fill" d="M 7.2 -1.2207e-05L 2.1 0.7L -3.05176e-06 5.40001L 3.1 9.49999L 8.2 8.79998L 10.3 4.10002L 7.2 -1.2207e-05ZM 2.4 1.10002L 7 0.499988L 9.7 4.2L 7.8 8.40001L 3.2 8.99999L 0.499997 5.40001L 2.4 1.10002Z"/>
<path id="path23_fill" d="M 5.5 -1.2207e-05L 5.3 -1.2207e-05L 0 16.8L 0.300003 16.8L 5.5 -1.2207e-05Z"/>
<path id="path24_fill" d="M 0 3.70001L 2.1 6.59998L 5.7 6.20001L 7.2 2.90002L 5 -1.13687e-13L 1.4 0.400024L 0 3.70001ZM 2.3 6.20001L 0.400002 3.59998L 1.7 0.700012L 4.9 0.400024L 6.9 3L 5.6 5.90002L 2.3 6.20001Z"/>
<path id="path25_fill" d="M 1.52588e-06 2.49998L 0.1 2.80002L 12.3 0.199988L 12.3 -2.44141e-05L 1.52588e-06 2.49998Z"/>
<path id="path26_fill" d="M 1.1 0.899976L 3.05176e-06 4.39998L 2.5 7.00001L 6 6.20002L 7.1 2.70002L 4.6 1.2207e-05L 1.1 0.899976ZM 0.399997 4.3L 1.4 1.20002L 4.5 0.500012L 6.7 2.89998L 5.7 6.00001L 2.5 6.70002L 0.399997 4.3Z"/>
<path id="path27_fill" d="M 0.199997 -2.44141e-05L 0 0.100012L 9.4 8.30002L 9.5 8.10001L 0.199997 -2.44141e-05Z"/>
<path id="path28_fill" d="M 20 19.3L 22.4 7.79999L 13.6 0L 2.4 3.70001L 0 15.2L 8.8 23.1L 20 19.3ZM 21.1 8.20001L 19 18.5L 9 21.8L 1.1 14.8L 3.2 4.5L 13.2 1.20001L 21.1 8.20001Z"/>
<path id="path29_fill" d="M 32.8 23.8L 33.2 23.3L 0.399999 -6.10352e-06L -3.8147e-07 0.499994L 32.8 23.8Z"/>
<path id="path30_fill" d="M 0 12.6L 7.4 18.5L 16.4 15.2L 17.9 5.89999L 10.5 -6.10352e-06L 1.6 3.30001L 0 12.6ZM 7.6 17.5L 1 12.2L 2.3 3.89999L 10.3 0.899988L 16.9 6.20001L 15.5 14.5L 7.6 17.5Z"/>
<path id="path31_fill" d="M 0 14.6L 0.199997 15.1L 29.3 0.500012L 29 1.2207e-05L 0 14.6Z"/>
<path id="path32_fill" d="M 8.4 -1.2207e-05L 2.5 0.7L 0 5.99999L 3.5 10.8L 9.4 10.2L 11.9 4.79998L 8.4 -1.2207e-05ZM 2.8 1.10002L 8.1 0.600024L 11.1 4.79998L 8.9 9.60002L 3.6 10.2L 0.5 5.90001L 2.8 1.10002Z"/>
<path id="path33_fill" d="M 6.7 0.1L 6.4 2.44141e-05L 1.52588e-06 19.1L 0.399999 19.2L 6.7 0.1Z"/>
<path id="path34_fill" d="M 15.4 5.70001L 10.1 -5.68434e-14L 2.5 1.60001L 1.77636e-15 8.79999L 5.2 14.6L 12.9 13L 15.4 5.70001ZM 9.8 0.700012L 14.5 5.79999L 12.3 12.3L 5.5 13.7L 0.8 8.59998L 3 2.10001L 9.8 0.700012Z"/>
<path id="path35_fill" d="M 25.5 0.400012L 25.4 -1.2207e-05L -7.62939e-07 8.10002L 0.0999996 8.49999L 25.5 0.400012Z"/>
<path id="path36_fill" d="M 4.8 14.4L 12.5 13.3L 15.5 6.10001L 10.7 5.68434e-14L 3 1.10001L -3.05176e-06 8.29999L 4.8 14.4ZM 12 12.6L 5.1 13.6L 0.8 8.20001L 3.5 1.79999L 10.4 0.799988L 14.6 6.20001L 12 12.6Z"/>
<path id="path37_fill" d="M 3.05176e-06 25.4L 0.500003 25.5L 7.7 0.100006L 7.3 0L 3.05176e-06 25.4Z"/>
<path id="path38_fill" d="M 29.6 6.10352e-06L 0 32L 12.7 73.6L 55 83L 84.6 50.9L 71.9 9.4L 29.6 6.10352e-06ZM 53.6 78.6L 15.9 70.2L 4.60001 33.1L 31.1 4.4L 68.9 12.9L 80.2 50L 53.6 78.6Z"/>
<path id="path39_fill" d="M 7.60001 -6.10352e-06L 0 9.99999L 4.79999 21.5L 17.1 23.1L 24.7 13.2L 19.9 1.6L 7.60001 -6.10352e-06ZM 16.6 21.7L 5.60001 20.3L 1.29999 9.99999L 8.10001 1.1L 19.1 2.6L 23.4 12.8L 16.6 21.7Z"/>
<path id="path40_fill" d="M 29.3 -3.05176e-06L 29.9 0.400006L 0.5 31.3L 0 30.8L 29.3 -3.05176e-06Z"/>
<path id="path41_fill" d="M -6.10352e-06 10.7L 6.30001 21.4L 18.8 21.4L 25.1 10.8L 18.8 0.0999878L 6.30001 1.2207e-05L -6.10352e-06 10.7ZM 23.8 10.8L 18.2 20.3L 6.99999 20.2L 1.39999 10.6L 6.89999 1.09999L 18.2 1.19999L 23.8 10.8Z"/>
<path id="path42_fill" d="M 1.2207e-05 0.300006L 0.599988 -1.2207e-05L 17.9 38.8L 17.2 39.1L 1.2207e-05 0.300006Z"/>
<path id="path43_fill" d="M 13.3 6.10352e-06L 4.40001 0.199988L 1.2207e-05 7.9L 4.50001 15.3L 13.4 15.1L 17.8 7.4L 13.3 6.10352e-06ZM 4.90001 14.4L 0.900006 7.69999L 4.8 0.9L 12.7 0.799994L 16.7 7.4L 12.8 14.2L 4.90001 14.4Z"/>
<path id="path44_fill" d="M 30.2 2.70001L 30.1 3.20001L -6.10352e-06 0.5L -6.10352e-06 0L 30.2 2.70001Z"/>
<path id="path45_fill" d="M 5.20001 -6.10352e-06L 0 7.20001L 3.5 15.2L 12.3 16.1L 17.5 8.89999L 13.9 0.899988L 5.20001 -6.10352e-06ZM 11.9 15.2L 4.10001 14.4L 0.899994 7.20001L 5.5 0.800012L 13.4 1.6L 16.6 8.80001L 11.9 15.2Z"/>
<path id="path46_fill" d="M 20.2 -1.2207e-05L 20.5 0.400012L 0.299994 22.6L 6.10352e-06 22.3L 20.2 -1.2207e-05Z"/>
<path id="path47_fill" d="M 36.7 54L 55.6 32.7L 46.8 5.7L 19 -1.52588e-06L 1.2207e-05 21.3L 8.8 48.3L 36.7 54ZM 20 2.8L 44.8 7.9L 52.7 32L 35.8 51.1L 11 46L 3.00001 21.9L 20 2.8Z"/>
<path id="path48_fill" d="M 1.09998 66.3L 0 65.1L 72.3 -3.05176e-06L 73.4 1.1L 1.09998 66.3Z"/>
<path id="path49_fill" d="M 38.4 5.40001L 16.1 -3.05176e-06L -1.2207e-05 16.3L 6.2 38.1L 28.5 43.5L 44.7 27.1L 38.4 5.40001ZM 7.90001 36.3L 2.30001 16.9L 16.8 2.3L 36.8 7.1L 42.4 26.5L 28 41.1L 7.90001 36.3Z"/>
<path id="path50_fill" d="M 74.2 26.9L 73.7 28.1L 1.2207e-05 1.30001L 0.500012 3.05176e-06L 74.2 26.9Z"/>
<path id="path51_fill" d="M -6.10352e-06 12.5L 7.50002 24.7L 21.9 24.6L 28.9 12.2L 21.4 0L 7.00002 0.100006L -6.10352e-06 12.5ZM 27.3 12.2L 21.1 23.2L 8.19998 23.4L 1.49999 12.5L 7.69998 1.5L 20.6 1.29999L 27.3 12.2Z"/>
<path id="path52_fill" d="M 6.10352e-06 0.300003L 0.799994 0L 21.4 44.1L 20.6 44.3L 6.10352e-06 0.300003Z"/>
<path id="path53_fill" d="M 7.80001 32L 26.6 33.6L 37.6 18.3L 29.7 1.5L 10.9 2.84217e-14L 2.44141e-05 15.3L 7.80001 32ZM 28.6 3.10001L 35.6 18.1L 25.8 31.8L 9.00002 30.3L 2.00002 15.3L 11.8 1.60001L 28.6 3.10001Z"/>
<path id="path54_fill" d="M -1.2207e-05 1.1L 0.2 6.10352e-06L 63.4 12.3L 63.1 13.4L -1.2207e-05 1.1Z"/>
<path id="path55_fill" d="M 37.7 16.8L 28.6 0.500003L 9.69999 3.05176e-06L 1.2207e-05 15.8L 9.09999 32.2L 28 32.7L 37.7 16.8ZM 2.00001 15.8L 10.7 1.7L 27.6 2.1L 35.7 16.8L 26.9 30.9L 10.1 30.4L 2.00001 15.8Z"/>
<path id="path56_fill" d="M 25.6 58.9L 24.6 59.2L -1.2207e-05 0.400003L 0.999988 1.52588e-06L 25.6 58.9Z"/>
<path id="path57_fill" d="M 14.6 0L -2.44141e-05 22.3L 11.9 46.1L 38.4 47.6L 53 25.4L 41.1 1.60001L 14.6 0ZM 37.2 45.1L 13.5 43.8L 2.9 22.5L 15.9 2.60001L 39.5 3.89999L 50.1 25.1L 37.2 45.1Z"/>
<path id="path58_fill" d="M 3.49999 0.300006L -1.2207e-05 7.09999L 4.10002 13.5L 11.7 13.2L 15.3 6.5L 11.2 3.05176e-06L 3.49999 0.300006ZM 11.2 12.5L 4.49999 12.8L 0.900012 7L 4.10002 1L 10.8 0.7L 14.5 6.5L 11.2 12.5Z"/>
<path id="path59_fill" d="M 14.6 6.10352e-06L 15 0.299994L 0.3 21.8L 1.2207e-05 21.6L 14.6 6.10352e-06Z"/>
<path id="path60_fill" d="M 2.44141e-05 8.40001L 4.89999 14.2L 12.4 13L 15.1 5.90001L 10.2 -3.05176e-06L 2.6 1.19999L 2.44141e-05 8.40001ZM 14.4 6.1L 12 12.4L 5.19998 13.4L 0.800012 8.3L 3.19998 2L 10 0.900006L 14.4 6.1Z"/>
<path id="path61_fill" d="M 0 0.200003L 0.400024 6.10352e-06L 14.7 21.6L 14.3 21.8L 0 0.200003Z"/>
<path id="path62_fill" d="M 7.19999 0L 1.9 1L -2.44141e-05 6.10001L 3.49998 10.1L 8.80002 9.10001L 10.6 4.10001L 7.19999 0ZM 3.69999 9.5L 0.600012 5.89999L 2.30002 1.39999L 6.99998 0.5L 10.1 4.10001L 8.49998 8.60001L 3.69999 9.5Z"/>
<path id="path63_fill" d="M 18.4 6.10352e-06L 18.4 0.4L 0.1 1.7L 2.44141e-05 1.50001L 18.4 6.10352e-06Z"/>
<path id="path64_fill" d="M 2.39999 0.299994L 2.44141e-05 5.1L 2.89999 9.6L 8.30001 9.29999L 10.7 4.50001L 7.80001 6.10352e-06L 2.39999 0.299994ZM 8.00002 8.79999L 3.19998 9.1L 0.6 5.1L 2.80001 0.799994L 7.50002 0.500006L 10.2 4.50001L 8.00002 8.79999Z"/>
<path id="path65_fill" d="M 9.90002 -6.10352e-06L 10.2 0.1L 0.200012 15.6L 0 15.3L 9.90002 -6.10352e-06Z"/>
<path id="path66_fill" d="M 25.5 30.8L 34.8 16L 26.7 0.600002L 9.30002 3.05176e-06L -2.44141e-05 14.7L 8.10001 30.1L 25.5 30.8ZM 10.1 1.7L 25.6 2.2L 32.8 15.9L 24.5 29.1L 8.99998 28.6L 1.80002 14.8L 10.1 1.7Z"/>
<path id="path67_fill" d="M 0.700024 47.1L 1.2207e-05 46.5L 36.9 -1.52588e-06L 37.7 0.599997L 0.700024 47.1Z"/>
<path id="path68_fill" d="M 22.1 1.09999L 8.10001 3.05176e-06L -2.44141e-05 11.5L 5.9 24L 20 25.1L 28.1 13.6L 22.1 1.09999ZM 6.80002 22.9L 1.4 11.7L 8.60001 1.5L 21.2 2.4L 26.5 13.6L 19.3 23.8L 6.80002 22.9Z"/>
<path id="path69_fill" d="M 47.3 8.8L 47.1 9.6L 1.2207e-05 0.8L 0.0999878 -3.05176e-06L 47.3 8.8Z"/>
<path id="path70_fill" d="M 0 9.59999L 5.79999 16.3L 14.4 14.7L 17.3 6.5L 11.6 3.05176e-06L 2.90002 1.5L 0 9.59999ZM 16.5 6.59999L 13.9 13.9L 6.20001 15.2L 1.09998 9.30001L 3.70001 2.09999L 11.5 0.7L 16.5 6.59999Z"/>
<path id="path71_fill" d="M -1.2207e-05 0.300006L 0.400012 3.05176e-06L 17.4 24.5L 16.9 24.8L -1.2207e-05 0.300006Z"/>
<path id="path72_fill" d="M 6.6 20.4L 18.1 19.5L 23.1 9.20001L 16.6 -6.10352e-06L 5.1 0.900003L 2.44141e-05 11.2L 6.6 20.4ZM 16.2 0.900003L 22 9.20001L 17.5 18.4L 7.19998 19.3L 1.39999 10.9L 6.00002 1.70001L 16.2 0.900003Z"/>
<path id="path73_fill" d="M 2.44141e-05 0.599994L 0.1 3.05176e-06L 39.3 1L 39.3 1.59999L 2.44141e-05 0.599994Z"/>
<path id="path74_fill" d="M 23 9L 15.8 3.05176e-06L 4.30002 1.6L -2.44141e-05 12.2L 7.19999 21.2L 18.6 19.6L 23 9ZM 1.30002 11.9L 5.10001 2.5L 15.3 1.1L 21.8 9.1L 18 18.6L 7.80002 20L 1.30002 11.9Z"/>
<path id="path75_fill" d="M 21.4 33L 20.8 33.4L 2.44141e-05 0.399998L 0.6 -3.05176e-06L 21.4 33Z"/>
<path id="path76_fill" d="M 6.30001 1.4L 3.05176e-06 15.3L 8.80001 27.9L 24 26.5L 30.4 12.5L 21.5 -7.62939e-07L 6.30001 1.4ZM 23.2 25.1L 9.59999 26.4L 1.59999 15.1L 7.30001 2.6L 20.9 1.3L 28.9 12.5L 23.2 25.1Z"/>
<path id="path77_fill" d="M -1.2207e-05 17.8L 10.5 29L 25.6 25.7L 30.2 11.2L 19.7 -3.05176e-06L 4.59999 3.3L -1.2207e-05 17.8ZM 28.6 11.5L 24.5 24.4L 11.1 27.4L 1.7 17.4L 5.80001 4.5L 19.3 1.6L 28.6 11.5Z"/>
<path id="path78_fill" d="M 0 0.600002L 0.700012 3.05176e-06L 32.1 41.9L 31.4 42.4L 0 0.600002Z"/>
<path id="path79_fill" d="M 13.8 -7.62939e-07L 3.1 2.6L -6.10352e-06 12.9L 7.49999 20.7L 18.1 18.2L 21.2 7.8L 13.8 -7.62939e-07ZM 7.8 19.7L 1.20001 12.7L 4.1 3.5L 13.5 1.2L 20.2 8.1L 17.4 17.4L 7.8 19.7Z"/>
<path id="path80_fill" d="M 36.9 -7.62939e-07L 37 0.600002L 0.100006 5.4L 0 4.8L 36.9 -7.62939e-07Z"/>
<path id="path81_fill" d="M 4.2 1.2L 0 11.2L 6.5 19.9L 17.3 18.6L 21.5 8.7L 15 -1.52588e-06L 4.2 1.2ZM 16.5 17.6L 6.89999 18.8L 1.10001 11L 4.89999 2.1L 14.5 0.9L 20.3 8.7L 16.5 17.6Z"/>
<path id="path82_fill" d="M 18.2 3.05176e-06L 18.7 0.299998L 0.500006 32.5L 6.10352e-06 32.3L 18.2 3.05176e-06Z"/>
<path id="path83_fill" d="M 1.2207e-05 20.9L 12.3 33.5L 29.6 29.4L 34.5 12.6L 22.2 -1.52588e-06L 5.00001 4.1L 1.2207e-05 20.9ZM 32.7 13.1L 28.3 28.1L 12.9 31.7L 1.90001 20.4L 6.3 5.5L 21.7 1.9L 32.7 13.1Z"/>
<path id="path84_fill" d="M 1.2 0L 14.8 17.5L 14 18.1L -1.2207e-05 0.1L 1.2 0Z"/>
<path id="path85_fill" d="M 3.05176e-06 84.9L 50 113.1L 100 84.8L 100 28.3L 50.1 3.05176e-06L 0.100002 28.3L 3.05176e-06 84.9ZM 94.7 31.3L 94.7 81.6L 50 106.9L 5.3 81.7L 5.3 31.3L 50 6L 94.7 31.3Z"/>
<path id="path86_fill" d="M 1.5 25.6L 16.5 32.2L 30 22.9L 28.5 6.7L 13.5 6.10352e-06L 0 9.4L 1.5 25.6ZM 27 7.7L 28.4 22.1L 16.4 30.5L 2.89999 24.5L 1.5 10.1L 13.6 1.7L 27 7.7Z"/>
<path id="path87_fill" d="M 0 0.699997L 0.5 0L 48.8 28.2L 48.3 29L 0 0.699997Z"/>
<path id="path88_fill" d="M 19.1 31.8L 31.2 20.7L 27.7 4.79999L 12.1 6.10352e-06L -1.2207e-05 11.1L 3.49999 27.1L 19.1 31.8ZM 12.4 1.6L 26.3 5.9L 29.5 20.2L 18.7 30.1L 4.80001 25.8L 1.7 11.6L 12.4 1.6Z"/>
<path id="path89_fill" d="M 0.499994 33.9L -6.10352e-06 33.2L 45.1 3.05176e-06L 45.7 0.7L 0.499994 33.9Z"/>
<path id="path90_fill" d="M -1.2207e-05 7.89999L 2.80001 19.1L 13.9 22.4L 22.3 14.5L 19.5 3.30001L 8.30001 -6.10352e-06L -1.2207e-05 7.89999ZM 21.1 14.2L 13.6 21.2L 3.7 18.2L 1.2 8.20001L 8.7 1.1L 18.7 4.1L 21.1 14.2Z"/>
<path id="path91_fill" d="M 6.10352e-06 6.10352e-06L 0.600012 6.10352e-06L 5.79999 38.9L 5.19999 39L 6.10352e-06 6.10352e-06Z"/>
<path id="path92_fill" d="M 1.39999 18.3L 12.1 22.7L 21.4 15.9L 20 4.50001L 9.29999 6.10352e-06L 0 6.9L 1.39999 18.3ZM 19 5.29999L 20.3 15.4L 12 21.6L 2.39999 17.6L 1.10001 7.50001L 9.39999 1.29999L 19 5.29999Z"/>
<path id="path93_fill" d="M -6.10352e-06 0.600003L 0.399988 -3.05176e-06L 35 19.1L 34.7 19.7L -6.10352e-06 0.600003Z"/>
<path id="path94_fill" d="M 0.600006 14.4L 0 44.4L 25.7 60.1L 52.1 45.8L 52.6 15.7L 26.9 6.10352e-06L 0.600006 14.4ZM 49.4 44.1L 25.9 56.8L 2.89999 42.8L 3.39999 16L 26.9 3.29999L 49.9 17.3L 49.4 44.1Z"/>
<path id="path95_fill" d="M 13.3 6.10352e-06L 15 0.200003L 1.6 101.5L -3.05176e-06 101.3L 13.3 6.10352e-06Z"/>
<path id="path96_fill" d="M 22.4 36.4L 36 23.3L 31.6 5.1L 13.6 -3.05176e-06L 0 13L 4.29999 31.2L 22.4 36.4ZM 14.1 1.9L 30.1 6.6L 34 22.9L 21.9 34.5L 5.89999 29.9L 2 13.6L 14.1 1.9Z"/>
<path id="path97_fill" d="M 0.600003 40L -3.05176e-06 39.1L 51 1.52588e-06L 51.6 0.799997L 0.600003 40Z"/>
<path id="path98_fill" d="M 18.5 0L 0 16.3L 4.7 40.4L 28 48.1L 46.5 31.7L 41.7 7.5L 18.5 0ZM 27.5 45.6L 6.7 38.7L 2.5 17.1L 19 2.5L 39.8 9.39999L 44.1 30.9L 27.5 45.6Z"/>
<path id="path99_fill" d="M 68.9 6.10352e-06L 69.6 1.00001L 0.800002 49.6L -1.52588e-06 48.4L 68.9 6.10352e-06Z"/>
<path id="path100_fill" d="M 16.2 0L -1.2207e-05 28.2L 16.1 56.3L 48.5 56.3L 64.7 28.1L 48.5 0.100006L 16.2 0ZM 46.8 53.3L 17.9 53.3L 3.49999 28.2L 18 3.10001L 46.8 3.10001L 61.3 28.2L 46.8 53.3Z"/>
<path id="path101_fill" d="M 3.8 0.9L -3.05176e-06 9.4L 5.40001 16.9L 14.6 16L 18.4 7.60001L 13 6.10352e-06L 3.8 0.9ZM 14 15.1L 5.69999 15.9L 0.900006 9.19999L 4.3 1.60001L 12.6 0.799994L 17.4 7.60001L 14 15.1Z"/>
<path id="path102_fill" d="M 16.2 -6.10352e-06L 16.7 0.200006L 0.499994 27.4L -6.10352e-06 27.1L 16.2 -6.10352e-06Z"/>
<path id="path103_fill" d="M 6.10352e-06 10.7L 6.29999 17.5L 15.5 15.6L 18.2 6.8L 11.8 1.2207e-05L 2.69999 2.00001L 6.10352e-06 10.7ZM 17.3 6.90001L 14.9 14.8L 6.69999 16.5L 1.10001 10.4L 3.50001 2.59999L 11.7 0.900006L 17.3 6.90001Z"/>
<path id="path104_fill" d="M 1.2207e-05 0.300012L 0.500012 -6.10352e-06L 19.4 25.4L 19 25.7L 1.2207e-05 0.300012Z"/>
<path id="path105_fill" d="M 8.29999 -6.10352e-06L 1.9 1.6L 6.10352e-06 7.89999L 4.50001 12.5L 10.9 10.9L 12.8 4.6L 8.29999 -6.10352e-06ZM 4.6 11.9L 0.599997 7.70001L 2.29999 2.1L 8.00001 0.700006L 12 4.89999L 10.3 10.5L 4.6 11.9Z"/>
<path id="path106_fill" d="M 22.3 1.2207e-05L 22.4 0.3L 0.100006 3.3L 0 2.90001L 22.3 1.2207e-05Z"/>
<path id="path107_fill" d="M 2.5 0.799988L 3.05176e-06 6.89999L 3.9 12L 10.4 11.3L 12.9 5.20001L 9 -5.68434e-14L 2.5 0.799988ZM 10 10.7L 4.2 11.4L 0.7 6.79999L 3 1.39999L 8.80001 0.700012L 12.3 5.39999L 10 10.7Z"/>
<path id="path108_fill" d="M 11 -1.2207e-05L 11.3 0.2L 0.299994 19.8L 6.10352e-06 19.6L 11 -1.2207e-05Z"/>
<path id="path109_fill" d="M 32 36.8L 42.2 18.2L 31.3 1.2207e-05L 10.2 0.400006L -6.10352e-06 19L 11 37.2L 32 36.8ZM 11.4 2.40001L 30.3 2.09999L 40 18.3L 30.9 34.9L 12 35.2L 2.30001 19L 11.4 2.40001Z"/>
<path id="path110_fill" d="M 0.999994 59.8L -6.10352e-06 59.2L 41.6 1.2207e-05L 42.6 0.699994L 0.999994 59.8Z"/>
<path id="path111_fill" d="M 26.1 0.300006L 9.00001 -1.2207e-05L 6.10352e-06 14.5L 8.1 29.2L 25.2 29.6L 34.3 15.1L 26.1 0.300006ZM 9.00001 27.8L 1.7 14.6L 9.7 1.7L 25.1 1.90001L 32.3 15.1L 24.3 28.1L 9.00001 27.8Z"/>
<path id="path112_fill" d="M 58.2 7.40001L 58 8.40001L -3.05176e-06 1.09999L 0.199994 1.2207e-05L 58.2 7.40001Z"/>
<path id="path113_fill" d="M 6.10352e-06 12.7L 7.4 20.3L 17.9 17.9L 20.9 7.69999L 13.4 6.10352e-06L 3.00001 2.50001L 6.10352e-06 12.7ZM 19.7 8.00001L 17 17.1L 7.69999 19.3L 1.00001 12.5L 3.69999 3.50001L 13 1.29999L 19.7 8.00001Z"/>
<path id="path114_fill" d="M 6.10352e-06 0.400006L 0.500006 1.2207e-05L 22.8 28.7L 22.3 29L 6.10352e-06 0.400006Z"/>
<path id="path115_fill" d="M 8.70001 25.7L 22.6 23.8L 28 10.9L 19.4 6.10352e-06L 5.5 2.00001L 5.68434e-14 14.8L 8.70001 25.7ZM 19 1.29999L 26.6 11.1L 21.8 22.6L 9.39999 24.3L 1.79999 14.6L 6.70001 3.10001L 19 1.29999Z"/>
<path id="path116_fill" d="M 6.10352e-06 2.19999L 6.10352e-06 1.4L 47.9 6.10352e-06L 47.9 0.799994L 6.10352e-06 2.19999Z"/>
<path id="path117_fill" d="M 27.5 10.4L 18.2 1.2207e-05L 4.40001 2.69999L -3.05176e-06 15.8L 9.3 26.2L 23.2 23.5L 27.5 10.4ZM 1.40001 15.5L 5.40001 3.8L 17.8 1.40001L 26.2 10.7L 22.2 22.3L 9.90001 24.8L 1.40001 15.5Z"/>
<path id="path118_fill" d="M 28.4 38.7L 27.7 39.2L -3.05176e-06 0.5L 0.599988 0L 28.4 38.7Z"/>
<path id="path119_fill" d="M 18.6 -7.62939e-07L 1.2207e-05 20.1L 7.90001 46.2L 34.5 52.1L 53.1 32L 45.2 6L 18.6 -7.62939e-07ZM 33.7 49.4L 10 44L 2.90001 20.7L 19.5 2.8L 43.2 8.1L 50.3 31.4L 33.7 49.4Z"/>
<path id="path120_fill" d="M 4.69999 -3.05176e-06L 1.2207e-05 6.2L 2.90001 13.5L 10.7 14.5L 15.4 8.3L 12.5 1.1L 4.69999 -3.05176e-06ZM 10.3 13.6L 3.40001 12.7L 0.699994 6.2L 4.90001 0.700002L 11.8 1.6L 14.5 8L 10.3 13.6Z"/>
<path id="path121_fill" d="M 18.4 -3.05176e-06L 18.8 0.200002L 0.300006 19.6L -1.2207e-05 19.3L 18.4 -3.05176e-06Z"/>
<path id="path122_fill" d="M -1.2207e-05 6.69999L 3.99999 13.4L 11.9 13.4L 15.9 6.69999L 11.9 -3.05176e-06L 4.09999 -3.05176e-06L -1.2207e-05 6.69999ZM 14.9 6.8L 11.4 12.8L 4.30001 12.7L 0.7 6.69999L 4.2 0.699994L 11.2 0.699994L 14.9 6.8Z"/>
<path id="path123_fill" d="M 6.10352e-06 0.100003L 0.299994 -3.05176e-06L 11.1 24.3L 10.8 24.4L 6.10352e-06 0.100003Z"/>
<path id="path124_fill" d="M 8.29999 0L 2.69999 0.0999985L 6.10352e-06 4.9L 2.79999 9.6L 8.4 9.6L 11.1 4.8L 8.29999 0ZM 3.10001 9L 0.600012 4.8L 3.00001 0.5L 8.00001 0.400002L 10.5 4.5L 8.10001 8.8L 3.10001 9Z"/>
<path id="path125_fill" d="M 18.9 1.7L 18.9 2L -1.2207e-05 0.300002L -1.2207e-05 -1.52588e-06L 18.9 1.7Z"/>
<path id="path126_fill" d="M 3.19999 3.05176e-06L 1.2207e-05 4.5L 2.19999 9.59999L 7.69999 10.1L 10.9 5.59999L 8.69999 0.599994L 3.19999 3.05176e-06ZM 7.50001 9.59999L 2.59999 9.09999L 0.599988 4.59999L 3.50001 0.599994L 8.40001 1L 10.4 5.59999L 7.50001 9.59999Z"/>
<path id="path127_fill" d="M 12.7 -3.05176e-06L 12.9 0.200002L 0.199994 14.1L 1.2207e-05 14L 12.7 -3.05176e-06Z"/>
<path id="path128_fill" d="M 41 0L 0.600012 36.3L 6.10352e-06 35.6L 39.3 0.1L 41 0Z"/>
<path id="path129_fill" d="M 24.2 3.4L 10.1 -7.62939e-07L 1.2207e-05 10.3L 3.90001 23.9L 17.9 27.3L 28 17L 24.2 3.4ZM 5.00001 22.8L 1.50001 10.6L 10.5 1.5L 23 4.5L 26.6 16.8L 17.5 25.9L 5.00001 22.8Z"/>
<path id="path130_fill" d="M 46.6 16.8L 46.2 17.5L 1.2207e-05 0.699999L 0.3 -1.52588e-06L 46.6 16.8Z"/>
<path id="path131_fill" d="M 6.10352e-06 7.90001L 4.69999 15.6L 13.7 15.4L 18.1 7.6L 13.4 -3.05176e-06L 4.4 0.100003L 6.10352e-06 7.90001ZM 17.1 7.8L 13.2 14.7L 5.19999 14.8L 1.00001 8L 4.9 0.999997L 13 0.899998L 17.1 7.8Z"/>
<path id="path132_fill" d="M -1.2207e-05 0.199998L 0.499988 1.52588e-06L 13.3 27.8L 12.9 27.9L -1.2207e-05 0.199998Z"/>
<path id="path133_fill" d="M 4.9 20.1L 16.7 21.1L 23.6 11.5L 18.7 0.900003L 6.9 1.52588e-06L 6.10352e-06 9.6L 4.9 20.1ZM 17.9 2L 22.3 11.5L 16.2 20.1L 5.69999 19.2L 1.29999 9.8L 7.50001 1.3L 17.9 2Z"/>
<path id="path134_fill" d="M 6.10352e-06 0.6L 0.199988 1.52588e-06L 39.8 7.6L 39.6 8.3L 6.10352e-06 0.6Z"/>
<path id="path135_fill" d="M 0.700006 3.8147e-07L 11 24.7L 10.4 25L -6.10352e-06 0.100001L 0.700006 3.8147e-07Z"/>
<path id="path136_fill" d="M 12.4 0L -1.2207e-05 13.4L 5.30001 30.9L 23.1 34.9L 35.5 21.4L 30.2 4L 12.4 0ZM 22.5 33L 6.7 29.5L 1.99999 14L 13.1 2L 28.9 5.5L 33.7 21L 22.5 33Z"/>
<path id="path137_fill" d="M 3.2 -3.05176e-06L -1.2207e-05 4.19999L 1.99999 9L 7.2 9.69999L 10.3 5.5L 8.30001 0.600003L 3.2 -3.05176e-06ZM 6.99999 9.1L 2.40001 8.6L 0.599994 4.3L 3.40001 0.600003L 7.99999 1.19999L 9.80001 5.5L 6.99999 9.1Z"/>
<path id="path138_fill" d="M 12.3 6.10352e-06L 12.6 0.200003L 0.200012 13.2L 0 13L 12.3 6.10352e-06Z"/>
<path id="path139_fill" d="M -1.2207e-05 4.60001L 2.59999 9.10001L 7.90001 9.10001L 10.5 4.60001L 7.90001 0.100012L 2.59999 6.10352e-06L -1.2207e-05 4.60001ZM 9.99999 4.69999L 7.59999 8.69999L 2.90001 8.69999L 0.599994 4.60001L 2.90001 0.600012L 7.59999 0.600012L 9.99999 4.69999Z"/>
<path id="path140_fill" d="M -1.2207e-05 0.100003L 0.300006 -3.05176e-06L 7.49999 16.3L 7.2 16.3L -1.2207e-05 0.100003Z"/>
<path id="path141_fill" d="M 5.6 0L 1.80001 0.100006L -6.10352e-06 3.39999L 1.89999 6.5L 5.6 6.39999L 7.39999 3.2L 5.6 0ZM 2.1 6.10001L 0.399988 3.3L 2.1 0.399994L 5.39999 0.300003L 7.1 3.10001L 5.39999 6L 2.1 6.10001Z"/>
<path id="path142_fill" d="M 12.7 1.1L 12.6 1.3L 6.10352e-06 0.100003L 6.10352e-06 -3.05176e-06L 12.7 1.1Z"/>
<path id="path143_fill" d="M 2.2 -6.10352e-06L -1.2207e-05 2.99999L 1.49999 6.30001L 5.2 6.70001L 7.40001 3.80001L 5.90001 0.400003L 2.2 -6.10352e-06ZM 5.09999 6.39999L 1.80001 6.1L 0.499988 3.1L 2.49999 0.400003L 5.7 0.700006L 7.09999 3.80001L 5.09999 6.39999Z"/>
<path id="path144_fill" d="M 8.5 6.10352e-06L 8.70001 0.0999969L 0.200012 9.4L 0 9.29999L 8.5 6.10352e-06Z"/>
<path id="path145_fill" d="M 15.4 22.7L 23.4 13.7L 19.7 2.4L 7.99999 3.05176e-06L -1.2207e-05 8.9L 3.7 20.3L 15.4 22.7ZM 8.40001 1.30001L 18.8 3.4L 22.1 13.5L 15 21.5L 4.59999 19.4L 1.30001 9.30001L 8.40001 1.30001Z"/>
<path id="path146_fill" d="M 0.400012 27.8L -1.2207e-05 27.3L 30.3 -3.05176e-06L 30.7 0.400006L 0.400012 27.8Z"/>
<path id="path147_fill" d="M 16.1 2.29999L 6.8 6.10352e-06L 1.2207e-05 6.9L 2.59999 16L 12 18.3L 18.8 11.4L 16.1 2.29999ZM 3.3 15.2L 1.00001 7.1L 7.00001 1.00001L 15.4 3.00001L 17.7 11.1L 11.7 17.3L 3.3 15.2Z"/>
<path id="path148_fill" d="M 31.1 11.3L 30.9 11.7L 1.2207e-05 0.500003L 0.199994 3.05176e-06L 31.1 11.3Z"/>
<path id="path149_fill" d="M 0 5.2L 3.10001 10.4L 9.10001 10.3L 12 5.09999L 8.89999 3.05176e-06L 2.79999 3.05176e-06L 0 5.2ZM 11.4 5.09999L 8.79999 9.7L 3.39999 9.80001L 0.600006 5.30001L 3.20001 0.7L 8.60001 0.599994L 11.4 5.09999Z"/>
<path id="path150_fill" d="M -6.10352e-06 0.199997L 0.300012 0L 8.89999 18.5L 8.6 18.7L -6.10352e-06 0.199997Z"/>
<path id="path151_fill" d="M 3.29999 13.5L 11.2 14.1L 15.8 7.70001L 12.5 0.700006L 4.59998 -6.10352e-06L 0 6.3L 3.29999 13.5ZM 12 1.4L 15 7.70001L 10.9 13.3L 3.79999 12.8L 0.899994 6.49999L 5 0.799997L 12 1.4Z"/>
<path id="path152_fill" d="M 0 0.400003L 0.100006 -6.10352e-06L 26.6 5.1L 26.5 5.6L 0 0.400003Z"/>
<path id="path153_fill" d="M 15.9 7L 12.1 0.199997L 4.10001 0L 5.68434e-14 6.60001L 3.79999 13.5L 11.7 13.7L 15.9 7ZM 0.899994 6.60001L 4.5 0.699997L 11.6 0.899994L 15 7.10001L 11.3 13L 4.29999 12.8L 0.899994 6.60001Z"/>
<path id="path154_fill" d="M 10.8 24.7L 10.4 24.9L 1.2207e-05 0.2L 0.400006 3.05176e-06L 10.8 24.7Z"/>
<path id="path155_fill" d="M 6.10001 -3.05176e-06L -2.44141e-05 9.40001L 4.9 19.4L 16 20L 22.2 10.7L 17.2 0.699994L 6.10001 -3.05176e-06ZM 15.5 18.8L 5.60001 18.3L 1.19999 9.40001L 6.69999 0.999997L 16.6 1.6L 21.1 10.4L 15.5 18.8Z"/>
<path id="path156_fill" d="M 1.49998 6.10352e-06L -2.44141e-05 2.9L 1.69999 5.6L 4.9 5.50001L 6.4 2.7L 4.69999 6.10352e-06L 1.49998 6.10352e-06ZM 4.80002 5.2L 1.9 5.29999L 0.4 2.9L 1.69999 0.4L 4.49998 0.299994L 5.99998 2.7L 4.80002 5.2Z"/>
<path id="path157_fill" d="M 6.09999 -3.05176e-06L 6.3 0.100003L 0.200024 9.1L 1.2207e-05 9L 6.09999 -3.05176e-06Z"/>
<path id="path158_fill" d="M 1.2207e-05 3.5L 2.00001 5.90001L 5.20002 5.40001L 6.3 2.40001L 4.20002 -3.05176e-06L 1.00001 0.499997L 1.2207e-05 3.5ZM 6.00001 2.5L 5.00001 5.1L 2.09999 5.5L 0.200024 3.3L 1.3 0.699994L 4.09999 0.199994L 6.00001 2.5Z"/>
<path id="path159_fill" d="M 2.44141e-05 0.100003L 0.1 -3.05176e-06L 6.1 9.1L 6.00002 9.19999L 2.44141e-05 0.100003Z"/>
<path id="path160_fill" d="M 2.99999 3.05176e-06L 0.799976 0.399997L -1.2207e-05 2.5L 1.49999 4.2L 3.79998 3.80001L 4.49999 1.7L 2.99999 3.05176e-06ZM 1.60002 4L 0.299976 2.5L 0.999988 0.599994L 2.99999 0.2L 4.29998 1.7L 3.60002 3.59999L 1.60002 4Z"/>
<path id="path161_fill" d="M 7.70002 -6.10352e-06L 7.70002 0.200006L 1.2207e-05 0.700006L 1.2207e-05 0.6L 7.70002 -6.10352e-06Z"/>
<path id="path162_fill" d="M 1 0.199994L 0 2.1L 1.20001 4L 3.5 3.90001L 4.5 1.90001L 3.29999 -3.05176e-06L 1 0.199994ZM 3.40002 3.69999L 1.40002 3.8L 0.299988 2.1L 1.20001 0.3L 3.20001 0.199994L 4.29999 1.90001L 3.40002 3.69999Z"/>
<path id="path163_fill" d="M 4.10002 3.05176e-06L 4.2 0.0999939L -1.2207e-05 6.5L 4.10002 3.05176e-06Z"/>
<path id="path164_fill" d="M 10.7 13L 14.6 6.79999L 11.2 0.299994L 3.90001 6.10352e-06L -1.2207e-05 6.2L 3.40001 12.7L 10.7 13ZM 4.2 0.700003L 10.7 0.9L 13.7 6.79999L 10.2 12.3L 3.7 12.1L 0.7 6.29999L 4.2 0.700003Z"/>
<path id="path165_fill" d="M 0.300024 19.8L -2.44141e-05 19.6L 15.5 -3.05176e-06L 15.9 0.199994L 0.300024 19.8Z"/>
<path id="path166_fill" d="M 9.29998 0.400003L 3.40001 -6.10352e-06L -1.2207e-05 4.8L 2.49999 10.1L 8.40001 10.5L 11.8 5.8L 9.29998 0.400003ZM 2.90001 9.49999L 0.7 4.8L 3.7 0.499994L 8.99999 0.900003L 11.3 5.6L 8.2 9.9L 2.90001 9.49999Z"/>
<path id="path167_fill" d="M 19.8 3.60001L 19.8 4L -1.2207e-05 0.300003L 0.100024 0L 19.8 3.60001Z"/>
<path id="path168_fill" d="M 1.2207e-05 4L 2.39998 6.8L 6.00001 6.2L 7.3 2.8L 4.89998 0L 1.3 0.600006L 1.2207e-05 4ZM 6.89998 2.8L 5.8 5.89999L 2.50001 6.39999L 0.399976 3.89999L 1.50001 0.899994L 4.70002 0.399994L 6.89998 2.8Z"/>
<path id="path169_fill" d="M 2.44141e-05 0.1L 0.199976 -6.10352e-06L 7.30001 10.3L 7.1 10.4L 2.44141e-05 0.1Z"/>
<path id="path170_fill" d="M 2.69998 8.49999L 7.50002 8.20001L 9.6 3.9L 6.89999 -6.10352e-06L 2.1 0.400003L 2.44141e-05 4.70001L 2.69998 8.49999ZM 6.69998 0.400003L 9.1 3.9L 7.19998 7.70001L 2.89999 8.1L 0.500024 4.6L 2.39999 0.799997L 6.69998 0.400003Z"/>
<path id="path171_fill" d="M -2.44141e-05 0.300006L 0.100012 3.05176e-06L 16.6 0.500003L 16.5 0.7L -2.44141e-05 0.300006Z"/>
<path id="path172_fill" d="M 9.6 3.7L 6.6 0L 1.80001 0.600006L 2.44141e-05 5.10001L 3.00002 8.8L 7.80001 8.10001L 9.6 3.7ZM 0.500024 5L 2.1 1.10001L 6.39999 0.5L 9.1 3.89999L 7.50002 7.8L 3.19998 8.3L 0.500024 5Z"/>
<path id="path173_fill" d="M 9.10002 14L 8.79998 14.1L -1.2207e-05 0.2L 0.299976 3.05176e-06L 9.10002 14Z"/>
<path id="path174_fill" d="M 0.400006 9.1L 1.2207e-05 28.1L 16.4 38.1L 33.1 29L 33.5 10L 17.2 -3.8147e-07L 0.400006 9.1ZM 31.3 28L 16.4 36L 1.90001 27.1L 2.19999 10.1L 17.1 2L 31.7 10.9L 31.3 28Z"/>
<path id="path175_fill" d="M 10.3 0L -2.44141e-05 17.9L 10.2 35.7L 30.7 35.7L 41 17.8L 30.8 0L 10.3 0ZM 29.7 33.8L 11.4 33.9L 2.19999 17.9L 11.4 2L 29.7 2L 38.9 17.9L 29.7 33.8Z"/>
<path id="path176_fill" d="M 2.40002 0.499997L 0 5.9L 3.40002 10.7L 9.20001 10.1L 11.7 4.8L 8.29999 -3.05176e-06L 2.40002 0.499997ZM 8.79999 9.6L 3.59998 10.1L 0.599976 5.8L 2.79999 0.999997L 8 0.499997L 11 4.8L 8.79999 9.6Z"/>
<path id="path177_fill" d="M 10.3 -3.05176e-06L 10.6 0.200002L 0.299988 17.5L 0 17.3L 10.3 -3.05176e-06Z"/>
<path id="path178_fill" d="M 2.44141e-05 6.8L 4.00002 11.1L 9.89999 9.8L 11.6 4.3L 7.6 1.52588e-06L 1.80001 1.3L 2.44141e-05 6.8ZM 11 4.4L 9.39999 9.3L 4.19998 10.4L 0.6 6.6L 2.19998 1.70001L 7.30001 0.500002L 11 4.4Z"/>
<path id="path179_fill" d="M 2.44141e-05 0.200003L 0.199976 -1.52588e-06L 12.2 16.1L 12 16.3L 2.44141e-05 0.200003Z"/>
<path id="path180_fill" d="M 5.3 3.05176e-06L 1.20002 1L 1.2207e-05 5L 2.89998 7.9L 6.89998 6.9L 8.09999 2.9L 5.3 3.05176e-06ZM 3.09999 7.5L 0.599988 4.8L 1.70002 1.3L 5.3 0.399997L 7.89998 3.1L 6.8 6.6L 3.09999 7.5Z"/>
<path id="path181_fill" d="M 14.1 0L 14.2 0.199997L 1.2207e-05 2L 1.2207e-05 1.8L 14.1 0Z"/>
<path id="path182_fill" d="M 1.70002 0.400003L 1.2207e-05 4.20001L 2.50001 7.6L 6.59999 7.1L 8.20002 3.3L 5.70002 1.52588e-06L 1.70002 0.400003ZM 6.39998 6.70001L 2.70002 7.20001L 0.500012 4.20001L 2.00001 0.799997L 5.70002 0.299997L 7.89998 3.3L 6.39998 6.70001Z"/>
<path id="path183_fill" d="M 7.00002 -3.05176e-06L 7.19998 0.100003L 0.199976 12.5L 2.44141e-05 12.3L 7.00002 -3.05176e-06Z"/>
<path id="path184_fill" d="M 2.39999 2.1L 1.39999 3.8L 7.6 14.2L 19.6 13.9L 25.4 3.3L 23.5 0.1L 24.8 0L 26.8 3.3L 20.3 15.1L 6.89999 15.4L 2.44141e-05 3.8L 0.800012 2.3L 2.39999 2.1Z"/>
<path id="path185_fill" d="M 0.599988 38L 1.2207e-05 37.6L 26.5 1.90735e-07L 27.1 0.4L 0.599988 38Z"/>
<path id="path186_fill" d="M 16.7 0.299999L 5.69999 0L 6.10352e-06 9.3L 5.19999 18.6L 16.1 18.8L 21.8 9.6L 16.7 0.299999ZM 5.80002 17.7L 1.19999 9.3L 6.30002 1L 16.1 1.2L 20.8 9.6L 15.7 17.8L 5.80002 17.7Z"/>
<path id="path187_fill" d="M 36.9 4.7L 36.8 5.3L 1.2207e-05 0.599998L 0.0999878 0L 36.9 4.7Z"/>
<path id="path188_fill" d="M 0 8.1L 4.79999 12.9L 11.4 11.3L 13.3 4.9L 8.59998 3.05176e-06L 1.90002 1.6L 0 8.1ZM 12.6 5.2L 10.9 10.9L 5 12.3L 0.700012 8L 2.40002 2.3L 8.29999 0.899997L 12.6 5.2Z"/>
<path id="path189_fill" d="M 0 0.299997L 0.299988 1.52588e-06L 14.5 18.2L 14.2 18.4L 0 0.299997Z"/>
<path id="path190_fill" d="M 5.50002 16.4L 14.4 15.1L 17.8 6.9L 12.4 -7.62939e-07L 3.50002 1.2L 2.44141e-05 9.4L 5.50002 16.4ZM 12 0.900001L 16.8 7L 13.7 14.4L 5.80001 15.5L 1.00002 9.4L 4.1 2L 12 0.900001Z"/>
<path id="path191_fill" d="M 0.0999756 1.4L 0 0.899998L 30.4 -3.05176e-06L 30.5 0.499997L 0.0999756 1.4Z"/>
<path id="path192_fill" d="M 17.4 6.6L 11.5 -1.77636e-15L 2.79998 1.7L -1.2207e-05 10L 5.90001 16.6L 14.7 14.8L 17.4 6.6ZM 0.799976 9.8L 3.29998 2.4L 11.1 0.8L 16.4 6.8L 13.9 14.2L 6.10002 15.7L 0.799976 9.8Z"/>
<path id="path193_fill" d="M 18 24.6L 17.6 24.9L 1.2207e-05 0.300001L 0.399976 -3.8147e-07L 18 24.6Z"/>
</defs>
</svg>
