<svg width="40" height="48" viewBox="0 0 40 48" version="1.1" xmlns="http://www.w3.org/2000/svg" xmlns:xlink="http://www.w3.org/1999/xlink">
<title>Bold Outline</title>
<desc>Created using Figma</desc>
<g id="Canvas" transform="translate(-1159 -1804)">
<g id="Bold Outline">
<g id="position">
<g id="Combined Shape">
<use xlink:href="#path0_fill" transform="translate(1159 1804)" fill="#56CCF2"/>
</g>
</g>
</g>
</g>
<defs>
<path id="path0_fill" d="M 22.691 37.1888C 20.9942 38.8521 18.2785 38.8521 16.5817 37.1888C 8.49449 29.2612 4.36364 21.9887 4.36364 15.2727C 4.36364 6.83783 11.2015 0 19.6364 0C 28.0713 0 34.9091 6.83783 34.9091 15.2727C 34.9091 21.9887 30.7782 29.2612 22.691 37.1888ZM 30.5455 15.2727C 30.5455 9.2478 25.6613 4.36364 19.6364 4.36364C 13.6114 4.36364 8.72727 9.2478 8.72727 15.2727C 8.72727 20.5869 12.3055 26.8864 19.6364 34.0726C 26.9673 26.8864 30.5455 20.5869 30.5455 15.2727ZM 19.6364 20.7273C 16.0214 20.7273 13.0909 17.7968 13.0909 14.1818C 13.0909 10.5669 16.0214 7.63636 19.6364 7.63636C 23.2513 7.63636 26.1818 10.5669 26.1818 14.1818C 26.1818 17.7968 23.2513 20.7273 19.6364 20.7273ZM 19.6364 16.3636C 20.8413 16.3636 21.8182 15.3868 21.8182 14.1818C 21.8182 12.9768 20.8413 12 19.6364 12C 18.4314 12 17.4545 12.9768 17.4545 14.1818C 17.4545 15.3868 18.4314 16.3636 19.6364 16.3636ZM 6.52805 32.6015C 7.65631 32.1784 8.91394 32.75 9.33704 33.8783C 9.76013 35.0066 9.18849 36.2642 8.06022 36.6873C 5.56955 37.6213 4.36364 38.6905 4.36364 39.2727C 4.36364 41.099 11.1301 43.6364 19.6364 43.6364C 28.1427 43.6364 34.9091 41.099 34.9091 39.2727C 34.9091 38.6905 33.7032 37.6213 31.2125 36.6873C 30.0842 36.2642 29.5126 35.0066 29.9357 33.8783C 30.3588 32.75 31.6164 32.1784 32.7447 32.6015C 36.7585 34.1067 39.2727 36.3358 39.2727 39.2727C 39.2727 44.6764 30.4098 48 19.6364 48C 8.86291 48 0 44.6764 0 39.2727C 0 36.3358 2.51425 34.1067 6.52805 32.6015Z"/>
</defs>
</svg>
