<svg width="18" height="18" viewBox="0 0 18 18" version="1.1" xmlns="http://www.w3.org/2000/svg" xmlns:xlink="http://www.w3.org/1999/xlink">
<title>phone</title>
<desc>Created using Figma</desc>
<g id="Canvas" transform="translate(-1185 -174)">
<g id="phone">
<g id="Shape">
<use xlink:href="#path0_stroke" transform="translate(1186 175)" fill="#FFFFFF"/>
</g>
</g>
</g>
<defs>
<path id="path0_stroke" d="M 15.9995 11.9791L 14.9998 11.9542C 14.9996 11.9625 14.9995 11.9708 14.9995 11.9791L 15.9995 11.9791ZM 15.9995 14.3877L 14.9995 14.3877L 14.9995 14.3918L 15.9995 14.3877ZM 14.2457 15.9935L 14.1379 16.9876C 14.1439 16.9883 14.1499 16.9889 14.1559 16.9894L 14.2457 15.9935ZM 7.30312 13.5286L 7.84649 12.6891L 7.83869 12.6841L 7.30312 13.5286ZM 2.47627 8.71134L 3.31984 8.17424L 3.31506 8.16688L 2.47627 8.71134ZM 0.00653539 1.75036L -0.98939 1.84054C -0.988918 1.84575 -0.988405 1.85096 -0.987851 1.85617L 0.00653539 1.75036ZM 0.420652 0.523253L -0.317241 -0.151665L 0.420652 0.523253ZM 1.60744 7.89385e-05L 1.60744 -0.999922L 1.6065 -0.999921L 1.60744 7.89385e-05ZM 4.02087 7.89385e-05L 4.02087 1.00013L 4.03069 1.00003L 4.02087 7.89385e-05ZM 5.62982 1.38103L 6.62124 1.25002L 6.61994 1.24081L 5.62982 1.38103ZM 6.19295 3.63713L 5.25628 3.98735L 5.25713 3.9896L 6.19295 3.63713ZM 5.83093 5.33121L 6.53735 6.03903L 6.54129 6.03505L 5.83093 5.33121ZM 4.80925 6.35087L 4.10285 5.64306C 3.78373 5.96154 3.71719 6.45418 3.94038 6.84591L 4.80925 6.35087ZM 9.6361 11.1682L 9.14255 12.0379C 9.53346 12.2597 10.0244 12.1935 10.3425 11.876L 9.6361 11.1682ZM 10.6578 10.1485L 9.95534 9.43674L 9.95138 9.44069L 10.6578 10.1485ZM 12.3552 9.7872L 12.004 10.7235L 12.0062 10.7243L 12.3552 9.7872ZM 14.6158 10.3492L 14.7552 9.35895L 14.7463 9.35777L 14.6158 10.3492ZM 14.9995 11.9791L 14.9995 14.3877L 16.9995 14.3877L 16.9995 11.9791L 14.9995 11.9791ZM 14.9995 14.3918C 15.0002 14.5617 14.9291 14.7244 14.803 14.8399L 16.1536 16.315C 16.6951 15.8192 17.0025 15.1181 16.9995 14.3836L 14.9995 14.3918ZM 14.803 14.8399C 14.6767 14.9555 14.507 15.013 14.3356 14.9975L 14.1559 16.9894C 14.8869 17.0554 15.6121 16.8107 16.1536 16.315L 14.803 14.8399ZM 14.3536 14.9993C 11.9929 14.7501 9.8343 13.9838 7.84647 12.6891L 6.75978 14.3681C 8.95039 15.7778 11.5475 16.6999 14.1379 16.9876L 14.3536 14.9993ZM 7.83869 12.6841C 5.98411 11.5151 4.49107 10.025 3.31981 8.17426L 1.63274 9.24842C 2.93176 11.2774 4.73464 13.0768 6.76756 14.3731L 7.83869 12.6841ZM 3.31506 8.16688C 2.01348 6.17433 1.24573 4.01044 1.00092 1.64455L -0.987851 1.85617C -0.704535 4.45368 0.219906 7.05925 1.63749 9.2558L 3.31506 8.16688ZM 1.00246 1.66018C 0.987189 1.49152 1.04359 1.32385 1.15854 1.19817L -0.317241 -0.151665C -0.811263 0.388453 -1.05541 1.11138 -0.98939 1.84054L 1.00246 1.66018ZM 1.15854 1.19817C 1.27358 1.0724 1.43676 1.00024 1.60838 1.00008L 1.6065 -0.999921C 0.87485 -0.999233 0.176701 -0.691695 -0.317241 -0.151665L 1.15854 1.19817ZM 1.60744 1.00008L 4.02087 1.00008L 4.02087 -0.999921L 1.60744 -0.999921L 1.60744 1.00008ZM 4.03069 1.00003C 4.33796 0.997012 4.59725 1.22155 4.6397 1.52126L 6.61994 1.24081C 6.43632 -0.055661 5.31893 -1.01272 4.01104 -0.999873L 4.03069 1.00003ZM 4.63843 1.51205C 4.7493 2.33875 4.96561 3.20537 5.25628 3.98735L 7.12962 3.28692C 6.87557 2.61203 6.71406 1.96496 6.6212 1.25002L 4.63843 1.51205ZM 5.25713 3.9896C 5.3402 4.21016 5.28731 4.45909 5.12058 4.62737L 6.54129 6.03505C 7.2579 5.31182 7.48774 4.23772 7.12877 3.28466L 5.25713 3.9896ZM 5.12453 4.6234L 4.10285 5.64306L 5.51566 7.05868L 6.53734 6.03902L 5.12453 4.6234ZM 3.94038 6.84591C 5.15967 8.9678 7.01664 10.8211 9.14255 12.0379L 10.1297 10.2984C 8.22748 9.2293 6.74926 7.75404 5.67812 5.85584L 3.94038 6.84591ZM 10.3425 11.876L 11.3642 10.8563L 9.95138 9.44069L 8.9297 10.4604L 10.3425 11.876ZM 11.3602 10.8602C 11.5291 10.6935 11.7806 10.6397 12.004 10.7235L 12.7065 8.85092C 11.7539 8.49355 10.6797 8.72188 9.95535 9.43675L 11.3602 10.8602ZM 12.0062 10.7243C 12.7895 11.0143 13.6573 11.2301 14.4853 11.3407L 14.7463 9.35777C 14.0296 9.26504 13.3807 9.10371 12.7042 8.85008L 12.0062 10.7243ZM 14.4764 11.3395C 14.7839 11.3828 15.0074 11.6484 14.9998 11.9542L 16.9992 12.0039C 17.0321 10.6796 16.0656 9.54348 14.7552 9.35899L 14.4764 11.3395Z"/>
</defs>
</svg>
