<svg xmlns="http://www.w3.org/2000/svg" viewBox="0 0 150.6 150.6"><defs><style>.cls-1{fill:#0033a0;opacity:0.85;}.cls-2{font-size:43px;fill:#fff;font-family:DFYuan-W5-WIN-BF, DFYuanMedium-B5;letter-spacing:0.05em;}.cls-3,.cls-4{fill:none;stroke:#00a29a;stroke-miterlimit:10;}.cls-3{stroke-width:0.4px;}.cls-4{stroke-width:0.2px;}</style></defs><title>資產 2</title><g id="圖層_2" data-name="圖層 2"><g id="邀請卡_19.6x27_" data-name="邀請卡 (19.6x27)"><circle class="cls-1" cx="75.3" cy="75.3" r="75.3"/><text class="cls-2" transform="translate(30.15 61.97)">立即<tspan x="0" y="51.6">報名</tspan></text><polygon class="cls-3" points="75.3 6.33 81.86 2.31 87.59 7.43 94.76 4.65 99.49 10.71 107.04 9.26 110.61 16.07 118.29 15.99 120.59 23.32 128.17 24.61 129.12 32.24 136.34 34.86 135.91 42.54 142.56 46.41 140.76 53.89 146.61 58.88 143.51 65.92 148.37 71.87 144.06 78.24 147.78 84.97 142.41 90.47 144.86 97.76 138.59 102.21 139.71 109.81 132.75 113.07 132.48 120.76 125.05 122.72 123.42 130.23 115.76 130.84 112.81 137.94 105.17 137.17 101 143.63 93.61 141.5 88.36 147.12 81.47 143.71 75.3 148.29 69.13 143.71 62.24 147.12 56.99 141.5 49.6 143.63 45.44 137.17 37.79 137.94 34.85 130.84 27.18 130.23 25.55 122.72 18.12 120.76 17.86 113.07 10.9 109.81 12.01 102.21 5.74 97.76 8.2 90.47 2.83 84.97 6.54 78.24 2.24 71.87 7.1 65.92 4 58.88 9.84 53.89 8.05 46.41 14.69 42.54 14.26 34.86 21.49 32.24 22.44 24.61 30.02 23.32 32.31 15.99 40 16.07 43.57 9.26 51.12 10.71 55.84 4.65 63.01 7.43 68.75 2.31 75.3 6.33"/><polygon class="cls-4" points="82.59 6.71 89.53 3.41 94.69 9.11 102.11 7.1 106.17 13.63 113.83 12.98 116.66 20.13 124.32 20.86 125.83 28.4 133.22 30.48 133.36 38.17 140.27 41.54 139.03 49.13 145.23 53.67 142.66 60.92 147.94 66.5 144.12 73.17 148.32 79.61 143.37 85.49 146.35 92.57 140.43 97.47 142.1 104.98 135.4 108.74 135.7 116.42 128.44 118.93 127.36 126.54 119.77 127.71 117.35 135.01 109.67 134.8 105.99 141.55 98.47 139.98 93.64 145.96 86.52 143.07 80.7 148.09 74.21 143.98 67.59 147.88 61.94 142.67 54.73 145.34 50.1 139.2 42.53 140.53 39.07 133.67 31.38 133.63 29.21 126.25 21.65 124.84 20.82 117.2 13.64 114.46 14.19 106.79 7.61 102.82 9.52 95.37 3.76 90.28 6.97 83.3 2.21 77.26 6.62 70.96 3.01 64.18 8.47 58.76 6.13 51.44 12.47 47.09 11.48 39.47 18.49 36.32 18.88 28.64 26.34 26.8 28.09 19.31 35.76 18.83 38.82 11.78 46.45 12.67 50.72 6.28 58.08 8.52 63.42 2.99 70.25 6.51 76.49 2.03 82.59 6.71"/></g></g></svg>