<svg width="48" height="48" viewBox="0 0 48 48" version="1.1" xmlns="http://www.w3.org/2000/svg" xmlns:xlink="http://www.w3.org/1999/xlink">
<title>Bold Outline</title>
<desc>Created using Figma</desc>
<g id="Canvas" transform="translate(-776 -1804)">
<g id="Bold Outline">
<g id="time">
<g id="shape">
<use xlink:href="#path0_fill" transform="translate(776 1804)" fill="#56CCF2"/>
</g>
</g>
</g>
</g>
<defs>
<path id="path0_fill" d="M 24 48C 10.7452 48 0 37.2548 0 24C 0 10.7452 10.7452 0 24 0C 37.2548 0 48 10.7452 48 24C 48 37.2548 37.2548 48 24 48ZM 24 43.6364C 34.8449 43.6364 43.6364 34.8449 43.6364 24C 43.6364 13.1551 34.8449 4.36364 24 4.36364C 13.1551 4.36364 4.36364 13.1551 4.36364 24C 4.36364 34.8449 13.1551 43.6364 24 43.6364ZM 26.1818 10.9091L 26.1818 22.9329L 35.1577 29.9141C 36.1088 30.6539 36.2802 32.0247 35.5404 32.9759C 34.8006 33.927 33.4298 34.0984 32.4787 33.3586L 22.6605 25.7222C 22.129 25.3089 21.8182 24.6733 21.8182 24L 21.8182 10.9091C 21.8182 9.70411 22.795 8.72727 24 8.72727C 25.205 8.72727 26.1818 9.70411 26.1818 10.9091Z"/>
</defs>
</svg>
