<?xml version="1.0" encoding="utf-8"?>
<!-- Generator: Adobe Illustrator 21.1.0, SVG Export Plug-In . SVG Version: 6.00 Build 0)  -->
<svg version="1.1" id="圖層_1" xmlns="http://www.w3.org/2000/svg" xmlns:xlink="http://www.w3.org/1999/xlink" x="0px" y="0px"
	 viewBox="0 0 403.1 125.9" style="enable-background:new 0 0 403.1 125.9;" xml:space="preserve">
<style type="text/css">
	.st0{enable-background:new    ;}
	.st1{fill:#4993BC;}
	.st2{fill:#86C8A3;}
	.st3{fill:#FFFFFF;}
	.st4{fill:#0033A0;}
</style>
<g>
	<g>
		<g class="st0">
			<path class="st1" d="M112.3,35.8l3,0.8c0.4,0.1,0.7,0.3,0.7,0.6c0,0.3-0.4,0.6-1.3,0.8c-1.5,2.1-3,3.9-4.5,5.4
				c-0.7,0.7-1.5,1.4-2.3,2.2c1.6-0.1,3.4-0.1,5.3-0.2c4-0.2,7.4-0.3,10-0.4c-1-1.1-2-2.1-3.1-3.1l0.6-0.5c3.1,1.6,5.2,3,6.5,4.1
				c1.3,1,1.9,2.1,1.9,3.1c0,0.4-0.1,0.7-0.3,0.9c-0.2,0.3-0.5,0.4-1.1,0.4c-0.5,0-0.9-0.3-1.4-1c-0.8-1.1-1.6-2.2-2.5-3.2
				c-2.7,0.4-6,0.9-9.8,1.4c-3.9,0.5-7.3,0.9-10.4,1.2l-0.3,0.8c-0.1,0.3-0.3,0.5-0.6,0.5c-0.2,0-0.4-0.2-0.4-0.5l-0.7-3.3
				c1.5,0,3.2,0,5.1-0.1c1.1-1.2,2-2.5,2.7-3.8C110.4,40.2,111.4,38.2,112.3,35.8z M105.4,50.5l2.8,1.4h14.6l1.4-1.4l2,1.4
				c0.3,0.2,0.5,0.4,0.5,0.6c0,0.2-0.1,0.4-0.4,0.5l-0.8,0.4v6.7l0.1,2.8c0,0.3-0.1,0.5-0.4,0.7c-0.2,0.2-0.6,0.3-1,0.3
				c-0.8,0-1.2-0.2-1.2-0.6v-1.5h-14.8v1.1c0,0.4-0.2,0.6-0.6,0.8c-0.4,0.2-0.8,0.3-1.2,0.3c-0.5,0-0.8-0.3-0.8-0.9l0.1-3.1v-7.3
				C105.6,51.6,105.5,50.8,105.4,50.5z M108.1,61h14.8v-8.2h-14.8V61z"/>
			<path class="st1" d="M131.6,44.1c1.1,0.6,2,1.1,2.7,1.5c0.6,0.4,0.9,0.9,0.9,1.2c0,0.9-0.4,1.3-1.3,1.3c-0.4,0-0.7-0.3-1-0.8
				c-0.4-1-1-1.9-1.9-2.8L131.6,44.1z M137.1,41.8l0.7,0.2l-0.1,0.9c0.6,0,1.2,0,1.7-0.1c0.5-0.8,0.8-1.5,1-1.9
				c0.5-1,0.9-1.9,1.2-2.9l2.1,0.9c0.3,0.1,0.4,0.2,0.4,0.4c0,0.2-0.3,0.4-1,0.4c-0.7,0.9-1.7,1.9-2.8,3c0.8,0,1.6-0.1,2.4-0.1
				c-0.2-0.4-0.4-0.9-0.6-1.3l0.5-0.3c0.6,0.5,1.1,1,1.5,1.5c0.4,0.5,0.6,0.9,0.6,1.2c0,0.8-0.3,1.2-1,1.2c-0.3,0-0.5-0.2-0.6-0.7
				c-0.1-0.3-0.1-0.6-0.2-0.8c-0.3,0.1-0.6,0.2-1,0.3V50c0,0.3-0.1,0.5-0.4,0.6c-0.3,0.2-0.6,0.2-0.9,0.2c-0.4,0-0.5-0.2-0.6-0.6
				l0.1-2.4v-1c-0.1,0.1-0.3,0.1-0.5,0.1c-0.2,0.6-0.5,1.2-0.9,1.8c-0.4,0.5-0.7,1-1.1,1.4l-0.6-0.2c0.3-0.9,0.5-1.7,0.7-2.5
				c0.1-0.5,0.2-1.1,0.2-1.8l1.9,0.4c0.1,0,0.2,0,0.2,0.1v-2c-0.3,0.1-0.6,0.2-1,0.3l-0.2,0.8c0,0.2-0.1,0.4-0.3,0.4
				c-0.2,0-0.3-0.1-0.4-0.4l-0.7-1.9l-2,12.3c-0.1,0.6-0.1,1.1-0.1,1.6c0,0.6,0.1,1.3,0.4,2c0.4,1,0.6,1.7,0.6,2.1
				c0,0.7-0.2,1.2-0.5,1.6c-0.3,0.4-0.7,0.6-1,0.6c-0.4,0-0.7-0.2-1-0.5c-0.3-0.4-0.4-0.9-0.4-1.7c0-0.2,0-0.5,0.1-1
				c0-0.5,0.1-0.9,0.1-1.2c0-0.7-0.2-1.3-0.5-1.7c-0.3-0.4-0.9-0.7-1.8-0.9V56c0.6,0.2,1,0.4,1.3,0.4c0.2,0,0.5-0.4,0.7-1.2
				L137.1,41.8z M132.6,36.7c1.3,0.6,2.4,1.1,3.1,1.6c0.7,0.5,1,0.9,1,1.4c0,0.9-0.4,1.3-1.3,1.3c-0.5,0-0.8-0.3-1.1-0.9
				c-0.5-1-1.3-2-2.3-2.9L132.6,36.7z M139.8,35.9l2.1,0.6c0.4,0.1,0.6,0.3,0.6,0.5s-0.4,0.4-1.1,0.6c-0.6,0.6-1.2,1.2-1.9,1.9
				c0,0,0.1,0,0.1,0.1c0.4,0.3,0.7,0.6,0.7,0.9c0,0.6-0.3,1-1,1c-0.3,0-0.5-0.2-0.6-0.6c-0.3-0.7-0.8-1.4-1.4-2l0.5-0.3
				c0.4,0.2,0.8,0.4,1.1,0.6C139.4,37.8,139.7,36.8,139.8,35.9z M138.5,51.5c1.3,0.2,2.6,0.4,3.9,0.4h11.8l1.2-0.9l1.7,1.1
				c0.2,0.1,0.3,0.3,0.3,0.5s-0.1,0.3-0.4,0.4l-0.6,0.3v1.2c0.1,0.9,0.1,1.4,0.1,1.7s-0.1,0.4-0.4,0.5c-0.3,0.2-0.6,0.3-1,0.3
				c-0.7,0-1-0.2-1-0.5v-1h-12.6c-0.2,0.7-0.4,1.5-0.7,2.3h14.5l1.1-1.1l2.1,1.4c0.3,0.2,0.4,0.5,0.4,0.7c0,0.2-0.1,0.4-0.3,0.4
				l-0.8,0.4c-0.2,0.7-0.5,1.5-1,2.3c-0.4,0.8-0.9,1.3-1.5,1.6c-0.6,0.3-1.6,0.4-2.8,0.4c-0.1-1-0.4-1.6-1-1.7l-2.3-0.6l0.1-0.7
				l3.6,0.4c0.5,0,0.9,0,1.1-0.1c0.3-0.1,0.6-0.5,1-1.2c0.2-0.4,0.3-0.9,0.4-1.2h-14.8c-0.1,0.3-0.2,0.5-0.3,0.8
				c-0.1,0.3-0.5,0.4-1.1,0.4c-0.7,0-1.1-0.2-1.1-0.7c0.9-2.2,1.6-4,1.9-5.7l1.8,1.3h12.4v-2h-11.9c-1.1,0-2.2,0.1-3.4,0.2
				L138.5,51.5z M142.8,45.6c0.6,0.5,1.1,1,1.5,1.5c0.4,0.5,0.6,0.9,0.6,1.2c0,0.7-0.3,1.1-1,1.1c-0.3,0-0.5-0.2-0.6-0.7
				c-0.2-0.9-0.5-1.9-1-2.8L142.8,45.6z M144.3,39.3c1.1,0.2,2.2,0.2,3.4,0.2h1.4l1.2-1.2l1.5,1.1c0.2,0.2,0.2,0.3,0.2,0.4
				c0,0.2-0.1,0.4-0.3,0.4h-4c-1,0-1.9,0-2.9,0.1L144.3,39.3z M144.8,37.1c1.1,0.2,2.1,0.2,3.2,0.2l1.2-1.2l1.5,1.1
				c0.2,0.1,0.2,0.3,0.2,0.4c0,0.3-0.1,0.4-0.4,0.4h-2.5c-1,0-1.9,0-2.8,0.1L144.8,37.1z M145.1,41.6c1.1,0.2,2.2,0.3,3.3,0.3h0.1
				l1.1-1.1l1.4,1c0.2,0.1,0.3,0.3,0.3,0.4c0,0.2-0.1,0.3-0.4,0.3h-2.5c-1,0-1.9,0-2.9,0.1L145.1,41.6z M145.1,45.6l1.6,0.6h2.6
				l0.9-0.7l1.3,0.9c0.1,0.1,0.2,0.2,0.2,0.4c0,0.2-0.1,0.3-0.3,0.4l-0.5,0.3v1.5c0.1,0.7,0.1,1.1,0.1,1.3c0,0.2-0.1,0.3-0.3,0.4
				c-0.2,0.2-0.5,0.2-0.9,0.2c-0.5,0-0.7-0.1-0.7-0.4V50h-2.3c0,0.3-0.1,0.5-0.4,0.7c-0.2,0.1-0.4,0.2-0.7,0.2
				c-0.4,0-0.7-0.2-0.7-0.5v-3.4C145.2,46.5,145.2,46,145.1,45.6z M145.2,43.7c1.1,0.2,2.2,0.2,3.3,0.2h0.1l1-1.1l1.4,1
				c0.2,0.1,0.3,0.3,0.3,0.4c0,0.3-0.1,0.4-0.4,0.4h-2.5c-1,0-1.9,0-2.9,0.1L145.2,43.7z M146.9,49.3h2.3v-2.3h-2.3V49.3z
				 M156.7,37.9l2.1,0.9c0.3,0.1,0.4,0.2,0.4,0.4c0,0.3-0.3,0.4-1,0.5c-0.8,0.8-1.7,1.7-2.9,2.8c0.8,0,1.5-0.1,2-0.1
				c-0.1-0.2-0.2-0.5-0.4-0.7l0.5-0.5c0.8,0.6,1.3,1.1,1.8,1.5c0.4,0.4,0.6,0.9,0.6,1.2c0,0.8-0.4,1.2-1.2,1.2
				c-0.2,0-0.4-0.2-0.5-0.7c-0.1-0.5-0.3-1-0.5-1.4c-0.3,0.2-0.7,0.3-1.1,0.4v6c0,0.3-0.2,0.6-0.5,0.7c-0.3,0.1-0.6,0.2-0.9,0.2
				c-0.5,0-0.7-0.2-0.7-0.6l0.1-2.7v-0.4c-0.1,0.1-0.3,0.1-0.4,0.1c-0.2,0.6-0.5,1.2-0.8,1.8c-0.3,0.5-0.6,1-1,1.4l-0.6-0.2
				c0.2-0.9,0.4-1.7,0.5-2.5c0.1-0.5,0.1-1.1,0.2-1.8l1.9,0.5c0.1,0,0.2,0,0.2,0.1v-1.9c-0.5,0.2-0.9,0.3-1.2,0.4l-0.3,0.7
				c-0.1,0.2-0.2,0.3-0.4,0.3c-0.2,0-0.3-0.1-0.4-0.4l-0.6-2.3c0.8,0,1.6,0,2.4-0.1c0.5-0.7,0.9-1.3,1.1-1.8
				C155.8,39.8,156.3,38.8,156.7,37.9z M154.3,35.9l2.1,0.9c0.3,0.1,0.4,0.3,0.4,0.4c0,0.2-0.3,0.4-1,0.4c-0.5,0.5-1.1,1-1.9,1.5
				c0.2,0.1,0.4,0.2,0.5,0.3c0.5,0.3,0.7,0.5,0.7,0.8c0,0.8-0.4,1.2-1.1,1.2c-0.2,0-0.3-0.1-0.5-0.4c-0.4-0.7-1-1.5-1.7-2.2l0.5-0.3
				c0.3,0.1,0.5,0.2,0.7,0.3c0.2-0.5,0.4-0.8,0.5-1.1C153.9,37.1,154.2,36.5,154.3,35.9z M157.4,45.5c0.7,0.5,1.2,1,1.7,1.5
				c0.4,0.5,0.6,0.8,0.6,1.2c0,0.9-0.4,1.3-1.1,1.3c-0.3,0-0.5-0.2-0.6-0.7c-0.2-0.9-0.6-1.9-1.1-2.8L157.4,45.5z"/>
			<path class="st1" d="M164.3,45l0.7,0.1c0,0.5,0,1-0.1,1.4h21.7l1.5-1.4l2.1,1.6c0.3,0.1,0.4,0.4,0.4,0.7c0,0.2-0.2,0.4-0.6,0.5
				l-0.8,0.2c-0.8,0.7-1.8,1.5-3,2.4l-0.7-0.2c0.5-1,0.9-2,1.2-2.8h-21.9c-0.2,1.3-0.4,2.2-0.9,2.8c-0.5,0.7-1,1-1.5,1
				c-0.8,0-1.2-0.4-1.2-1.2c0-0.3,0.1-0.6,0.4-1c0.4-0.4,0.8-0.8,1.1-1.2C163.3,47.3,163.8,46.3,164.3,45z M166.2,37.8l0.6,0.1
				c0,2.1-0.4,3.6-1,4.3c-0.5,0.6-0.9,0.8-1.5,0.8c-0.8,0-1.2-0.3-1.2-1c0-0.3,0.1-0.5,0.4-0.8c0.5-0.3,0.8-0.7,1.2-1
				C165.2,39.6,165.7,38.8,166.2,37.8z M174.1,39.6c-0.9,0.3-2.1,0.6-3.7,1c0,0.2,0,0.4-0.1,0.6c0,0.2-0.1,0.4-0.2,0.6
				c1.3,0.4,2.3,0.8,3.1,1.1c0.9,0.4,1.3,0.8,1.3,1.2c0,1-0.4,1.4-1.2,1.4c-0.3,0-0.6-0.2-0.9-0.5c-0.7-0.8-1.6-1.5-2.7-2.3
				c-0.1,0.2-0.2,0.4-0.4,0.6c-0.5,0.7-1.1,1.2-1.7,1.6c-0.5,0.3-1.2,0.6-2,0.9l-0.4-0.6c0.7-0.4,1.2-0.7,1.5-1.1
				c0.4-0.4,0.7-0.9,1-1.4c0.3-0.6,0.5-1.3,0.6-2c0.1-0.8,0.2-1.6,0.2-2.6c0-0.4-0.1-1.1-0.2-2l2.9,0.3c0.5,0.1,0.7,0.2,0.7,0.5
				c0,0.3-0.4,0.5-1.2,0.8c0,0.6-0.1,1.2-0.2,1.8c1.1-0.8,2-1.4,2.7-2.1l1.8,1.4c0.3,0.2,0.4,0.4,0.4,0.7c0,0.3-0.1,0.5-0.4,0.5
				L174.1,39.6z M167.9,48.4l2.5,1.2h10.8l1.3-1.3l1.8,1.4c0.3,0.2,0.5,0.4,0.5,0.5c0,0.2-0.1,0.4-0.3,0.5l-0.8,0.4v0.7l0.1,2.6
				c0,0.2-0.1,0.4-0.4,0.6c-0.2,0.2-0.5,0.2-0.9,0.2c-0.7,0-1.1-0.2-1.1-0.6V54h-4.7c-0.7,1-1.5,2-2.4,3h8.9l1.4-1.5l1.8,1.5
				c0.3,0.2,0.5,0.4,0.5,0.6c0,0.2-0.1,0.3-0.4,0.4l-0.7,0.4v1.8l0.1,2.6c0,0.3-0.1,0.5-0.4,0.7c-0.2,0.2-0.5,0.3-0.9,0.3
				c-0.8,0-1.2-0.2-1.2-0.6v-0.7h-14.9v0.3c0,0.4-0.2,0.6-0.5,0.8c-0.4,0.2-0.7,0.3-1.1,0.3c-0.5,0-0.8-0.3-0.9-0.9l0.1-2.9v-2.4
				c0-1-0.1-1.7-0.2-2l2.6,1.3h4.7l0.7-3h-3.6v0.2c0,0.3-0.2,0.6-0.5,0.7c-0.3,0.2-0.7,0.3-1.2,0.3c-0.4,0-0.7-0.2-0.7-0.7l0.1-2.9
				v-1.4C168.1,49.3,168,48.6,167.9,48.4z M168.6,61.6h14.9v-3.8h-14.9V61.6z M170.4,53.2h11v-2.9h-11V53.2z M178.3,37.6l0.6,0.1
				c0,2.1-0.4,3.5-1,4.2c-0.4,0.5-0.9,0.8-1.4,0.8c-0.8,0-1.2-0.4-1.2-1.1c0-0.3,0.1-0.5,0.4-0.7c0.4-0.3,0.8-0.6,1.1-1
				C177.3,39.5,177.8,38.7,178.3,37.6z M187.1,39.6c-1.1,0.3-2.6,0.6-4.5,1c-0.1,0.3-0.1,0.5-0.2,0.7c0,0.1,0,0.2-0.1,0.3
				c1.5,0.5,2.7,0.9,3.6,1.2c1,0.4,1.5,0.8,1.5,1.2c0,1-0.4,1.4-1.3,1.4c-0.4,0-0.7-0.2-1-0.5c-0.8-0.8-1.9-1.7-3.1-2.5
				c-0.2,0.3-0.4,0.7-0.7,1c-0.6,0.7-1.3,1.2-2.1,1.6c-0.6,0.3-1.5,0.6-2.6,0.9l-0.4-0.6c1-0.4,1.7-0.8,2.2-1.1
				c0.6-0.4,1-0.9,1.4-1.4c0.4-0.6,0.7-1.2,0.9-2.1c0.2-0.8,0.2-1.7,0.2-2.6c0-0.4-0.1-1.1-0.2-2l2.9,0.4c0.5,0.1,0.7,0.2,0.7,0.5
				c0,0.3-0.4,0.5-1.2,0.8c-0.1,0.6-0.1,1.2-0.2,1.7c1.4-0.8,2.5-1.6,3.3-2.3l1.9,1.5c0.3,0.2,0.4,0.4,0.4,0.7
				c0,0.3-0.1,0.5-0.4,0.5L187.1,39.6z"/>
			<path class="st1" d="M200.3,36c1,0.3,1.7,0.6,2.3,1c0.6,0.3,0.8,0.7,0.8,1.2c0,0.6-0.2,0.9-0.6,1h6.1c0.2-0.5,0.4-0.9,0.5-1.4
				c0.2-0.6,0.4-1.3,0.6-2.1l2.7,0.7c0.4,0.1,0.6,0.3,0.6,0.6c0,0.3-0.4,0.5-1.2,0.7c-0.5,0.5-1,0.9-1.6,1.2
				c-0.2,0.1-0.4,0.3-0.5,0.4h4.7l1.7-1.8l2.1,1.5c0.2,0.2,0.4,0.4,0.4,0.6c0,0.3-0.2,0.5-0.5,0.5h-11.3v2.1h5.7l1.4-1.5l2,1.4
				c0.2,0.2,0.3,0.3,0.3,0.5c0,0.3-0.1,0.5-0.3,0.5h-9v1.9h8.9l1.7-1.8l2.1,1.5c0.2,0.2,0.4,0.4,0.4,0.6c0,0.3-0.2,0.5-0.5,0.5h-7.9
				c0.7,0.6,1.5,1.2,2.2,1.6c0.9,0.6,1.8,1.1,2.9,1.5c1.1,0.5,2.4,0.9,4,1.2l-0.3,0.8c-0.4,0-0.7,0-1,0.1c-0.3,0.1-0.7,0.6-1.1,1.6
				c-1-0.4-2-1-3.1-1.8c-1.1-0.8-2-1.7-2.9-2.8c-0.6-0.5-1.1-1.3-1.7-2.2H203c-0.9,1.2-1.8,2.2-2.7,2.9c-0.3,0.3-0.6,0.5-0.9,0.8
				l1,0.6h11.2l1.2-1l1.8,1.2c0.2,0.1,0.3,0.3,0.3,0.5c0,0.2-0.1,0.3-0.4,0.4l-0.6,0.3v3.2c0.1,0.9,0.1,1.4,0.1,1.6
				c0,0.2-0.1,0.4-0.4,0.5c-0.2,0.2-0.6,0.3-1.1,0.3c-0.6,0-1-0.2-1-0.5v-0.1H207c0.9,0.8,1.7,1.3,2.5,1.8c0.8,0.5,1.6,0.8,2.4,1.2
				c1.7-1.2,2.9-2.3,3.7-3.3l1.9,1.5c0.2,0.2,0.4,0.4,0.4,0.7c0,0.3-0.1,0.4-0.3,0.4l-1-0.2c-0.9,0.4-1.9,0.8-3.3,1.3
				c0.8,0.2,1.7,0.4,2.7,0.5c1.7,0.2,3.3,0.4,4.8,0.4l-0.1,0.9c-0.4,0-0.7,0.1-1.1,0.3c-0.3,0.1-0.6,0.6-0.9,1.7
				c-1.9-0.3-3.4-0.7-4.7-1.2c-1.2-0.4-2.2-0.9-3.1-1.3c-0.9-0.5-1.7-1.1-2.5-2c-0.8-0.8-1.6-1.7-2.3-2.7h-5.7v3.9
				c2.3-0.3,4.6-0.7,6.8-1.2l0.1,0.6c-3.2,1.1-6.8,2.2-10.8,3.3l-0.3,1c0,0.3-0.2,0.4-0.4,0.4s-0.4-0.2-0.5-0.5l-1-2.8
				c1.3-0.2,2.5-0.3,3.8-0.5V50.5c-0.6,0.4-1.2,0.8-1.8,1.1c-1.3,0.7-2.7,1.3-4.1,1.9l-0.4-0.5c1.2-0.7,2.4-1.5,3.4-2.3
				c1-0.8,2-1.6,2.9-2.5c0.7-0.8,1.3-1.6,1.9-2.4H196c-1.1,0-2.2,0.1-3.4,0.2l-0.6-1.5c1.3,0.2,2.6,0.4,3.9,0.4h8.7V43h-5.6
				c-1.1,0-2.2,0.1-3.3,0.3l-0.6-1.4c1.3,0.2,2.6,0.4,3.9,0.4h5.6V40h-7.5c-1.1,0-2.2,0.1-3.4,0.2l-0.6-1.5c1.3,0.2,2.6,0.4,3.9,0.4
				h4.7c-0.1-0.1-0.1-0.1-0.2-0.2c-0.5-0.8-1.1-1.6-1.8-2.4L200.3,36z M200.4,51v1.9h11.3V51H200.4z M200.4,53.7v2.1h11.3v-2.1
				H200.4z M201.9,47.5c1.3,0.2,2.6,0.4,3.9,0.4h1.3l1.4-1.5l1.9,1.4c0.2,0.2,0.4,0.4,0.4,0.5c0,0.3-0.1,0.5-0.4,0.5h-4.6
				c-1.1,0-2.2,0.1-3.3,0.2L201.9,47.5z"/>
			<path class="st1" d="M222,50.9c1.3,0.2,2.6,0.4,4,0.4h20.6l1.6-1.9l2.3,1.7c0.2,0.2,0.4,0.4,0.4,0.6c0,0.3-0.1,0.5-0.4,0.5h-10.7
				v1.8h5.1l1.3-1.3l1.8,1.4c0.3,0.2,0.5,0.4,0.5,0.6c0,0.2-0.1,0.3-0.3,0.4l-0.8,0.4v5l0.1,2.6c0,0.2-0.1,0.4-0.4,0.6
				c-0.2,0.2-0.5,0.3-0.9,0.3c-0.7,0-1-0.2-1-0.6v-0.5h-17V63c0,0.3-0.2,0.6-0.5,0.7c-0.4,0.2-0.7,0.3-1.1,0.3
				c-0.5,0-0.7-0.2-0.7-0.7l0.1-2.9v-5.7c0-1-0.1-1.6-0.2-1.9l2.5,1.2h4.4c0.1-0.5,0.2-1.1,0.2-1.8H226c-1.1,0-2.2,0.1-3.3,0.2
				L222,50.9z M225.8,38.6V48h7.9l1.4-1.5l1.9,1.4c0.2,0.2,0.4,0.4,0.4,0.5c0,0.3-0.1,0.5-0.4,0.5h-11.2v0.7c0,0.3-0.2,0.4-0.5,0.6
				c-0.3,0.1-0.6,0.1-1,0.1c-0.5,0-0.8-0.2-0.8-0.7l0.1-4.6v-6.5c0-0.8-0.1-1.4-0.2-1.9l2.3,1.2h6.9l1.5-1.7l2,1.5
				c0.2,0.2,0.4,0.4,0.4,0.6c0,0.3-0.2,0.5-0.5,0.5H225.8z M227.8,38.8l2,0.4c0.4,0.1,0.5,0.2,0.5,0.4c0,0.2-0.1,0.3-0.4,0.3
				l-0.8,0.3c-0.1,0.1-0.1,0.2-0.2,0.2h3.3l1.2-1.2l1.5,1.1c0.2,0.2,0.3,0.3,0.3,0.4c0,0.2-0.1,0.3-0.4,0.3H232c0,0.8-0.1,1.4-0.2,2
				h1.4l1.3-1.3l1.7,1.2c0.2,0.2,0.3,0.3,0.3,0.5c0,0.2-0.1,0.3-0.4,0.3h-4.5c-0.1,0.2-0.1,0.3-0.2,0.5c0.8,0.2,1.4,0.4,1.9,0.7
				c0.6,0.3,0.9,0.6,0.9,1c0,0.7-0.4,1.1-1.1,1.1c-0.1,0-0.2-0.1-0.4-0.3c-0.5-0.6-1-1.1-1.7-1.7c0,0-0.1,0.1-0.1,0.1
				c-0.3,0.4-0.8,0.8-1.4,1.2c-0.7,0.5-1.6,0.9-2.9,1.2l-0.1-0.6c0.7-0.3,1.2-0.7,1.7-1.1c0.5-0.4,0.8-0.8,1.1-1.3
				c0.1-0.2,0.2-0.5,0.3-0.9h-0.3c-1,0-1.9,0-2.9,0.1l-0.4-1.1c1.1,0.2,2.2,0.3,3.3,0.3h0.4c0.1-0.5,0.2-1.2,0.2-2h-1.6
				c-0.1,0.2-0.2,0.3-0.3,0.4c-0.3,0.3-0.7,0.7-1.3,1.2l-0.3-0.3c0.3-0.6,0.6-1.2,0.8-1.8C227.4,40,227.6,39.4,227.8,38.8z
				 M228,59.3h17V58c-0.1,0-0.2,0-0.4,0.1c-0.5,0.1-1.6,0.1-3.3,0.1c-2.3,0-3.5-0.8-3.5-2.5v-0.9h-3.7c-0.2,0.5-0.4,0.9-0.7,1.3
				c-0.4,0.4-0.9,0.8-1.6,1.2c-0.8,0.5-1.8,0.9-3.2,1.3l-0.1-0.6c0.7-0.3,1.4-0.7,2-1.1c0.5-0.4,1-0.8,1.3-1.3
				c0.2-0.2,0.3-0.5,0.4-0.8H228V59.3z M228,61.9h17v-1.8h-17V61.9z M237.9,53.9v-1.8h-3.2c0,0.7-0.1,1.3-0.3,1.8H237.9z M237.1,43
				c1.3,0.3,2.6,0.4,3.9,0.4h4.5l1.3-1.1l1.8,1.5c0.2,0.2,0.3,0.3,0.3,0.5c0,0.2-0.1,0.3-0.4,0.4l-0.8,0.2c-0.8,0.8-1.5,1.4-2.1,2
				c0.1,0,0.3,0.1,0.4,0.1c1.1,0.2,2.2,0.3,3.2,0.3l-0.1,0.8c-0.4,0-0.7,0.1-1,0.2c-0.2,0.1-0.5,0.5-0.9,1.5c-1.2-0.3-2.2-0.6-3-1
				c-0.3-0.1-0.7-0.2-1-0.4c-0.8,0.5-1.7,0.9-2.7,1.2c-1.1,0.3-2.6,0.5-4.5,0.7l-0.3-0.6c1.3-0.3,2.5-0.6,3.5-1
				c0.9-0.4,1.8-0.8,2.5-1.4c-0.4-0.3-0.8-0.7-1.2-1.2c-0.5-0.6-0.9-1.2-1.4-2c-0.6,0-1.1,0.1-1.6,0.2L237.1,43z M238.9,36.1
				l2.3,1.2h2.8l1-1.2l1.7,1.3c0.2,0.2,0.3,0.3,0.3,0.5c0,0.2-0.1,0.4-0.3,0.5l-0.7,0.4v1.1c0,0.2,0.1,0.3,0.3,0.3h1.3
				c0.2,0,0.4,0,0.5-0.1c0.2-0.1,0.5-0.7,1-1.9l0.6,0.1v1.3c0,0.4,0.2,0.6,0.6,0.9c0.2,0.2,0.3,0.4,0.3,0.7s-0.2,0.5-0.6,0.7
				c-0.6,0.2-1.2,0.2-1.8,0.2h-2.3c-0.6,0-1.1-0.2-1.5-0.5c-0.3-0.3-0.4-0.9-0.4-1.7v-1.8h-2.9c-0.1,0.4-0.1,0.8-0.2,1.1
				c-0.2,0.6-0.4,1.1-0.7,1.5c-0.4,0.5-0.9,1-1.5,1.4c-0.5,0.3-1,0.5-1.7,0.6l-0.2-0.6c0.4-0.2,0.7-0.5,1-0.8
				c0.3-0.3,0.5-0.6,0.6-0.9c0.2-0.4,0.3-0.8,0.4-1.2c0.1-0.5,0.2-1,0.2-1.6C239,37,239,36.5,238.9,36.1z M239.6,54.8v0.8
				c0,0.6,0.6,0.8,1.7,0.8c0.7,0,1.9-0.1,3.5-0.2h0.1v-1.4H239.6z M240.2,44.2c0.5,0.5,1,0.9,1.5,1.2c0.6,0.4,1.1,0.7,1.7,0.9
				c0.6-0.6,1.2-1.3,1.9-2.1H241C240.7,44.2,240.4,44.2,240.2,44.2z"/>
			<path class="st1" d="M261.9,38.6c-1.4,0.3-2.7,0.5-3.9,0.7l0.1,2.2h1.8l1.3-1.3l1.7,1.2c0.2,0.2,0.3,0.3,0.3,0.5
				c0,0.3-0.1,0.5-0.4,0.5h-4.6l0.2,2.7h1.9l1.3-1.3l1.6,1.2c0.2,0.2,0.2,0.3,0.2,0.4c0,0.3-0.1,0.5-0.3,0.5h-4.7l0.1,2.7h16.7
				l0.3-2.7h-0.4c-1.1,0-2.2,0.1-3.3,0.2l-0.6-1.4c1.3,0.2,2.6,0.3,3.9,0.3h0.5l0.2-2.7h-0.5c-1.1,0-2.2,0.1-3.3,0.2l-0.6-1.4
				c1.3,0.2,2.6,0.3,3.9,0.3h0.6l0.2-2.6h-0.8c-1.1,0-2.2,0.1-3.3,0.2l-0.6-1.4c1.3,0.3,2.6,0.4,3.9,0.4h0.5l-0.1-0.1l1.3-1.2
				l1.6,1.4c0.4,0.3,0.5,0.5,0.5,0.6c0,0.2-0.1,0.3-0.3,0.4l-0.7,0.5l-0.8,9h0.5l1.4-1.3l2,1.5c0.3,0.1,0.4,0.4,0.4,0.7
				c0,0.2-0.2,0.3-0.6,0.4l-0.8,0.2c-0.8,0.8-1.9,1.7-3.2,2.7l-0.6-0.2c0.6-1.1,1.1-2.1,1.5-3.1h-22.4c0,0.6-0.1,1.2-0.3,1.6
				c-0.2,0.7-0.5,1.2-0.8,1.5c-0.3,0.3-0.6,0.5-0.9,0.5c-0.8,0-1.2-0.4-1.2-1.2c0-0.3,0.2-0.6,0.5-1c0.4-0.4,0.7-0.9,1-1.4
				c0.3-0.8,0.6-1.7,0.9-2.7l0.7,0.3v1.5h0.9l-0.6-9.1c0-0.7-0.1-1.6-0.3-2.5l2.2,1.4c1.1-0.7,2.2-1.5,3.3-2.4l2.1,2
				c0.2,0.2,0.3,0.4,0.3,0.6c0,0.2-0.1,0.3-0.3,0.3L261.9,38.6z M258.3,51.5c1.3,0.2,2.6,0.4,3.9,0.4h9.8l1.3-1.3l1.9,2
				c0.3,0.2,0.5,0.5,0.5,0.7c0,0.3-0.2,0.5-0.6,0.5h-1c-1.7,0.8-3.4,1.4-4.9,1.9c0,0.1,0.1,0.2,0.1,0.2c0,0.2-0.2,0.4-0.5,0.7V57
				h7.5l1.8-2l2.3,1.7c0.3,0.2,0.4,0.5,0.4,0.7c0,0.3-0.2,0.4-0.5,0.4h-11.5v3.2c0,1-0.5,1.8-1.6,2.4c-0.9,0.5-1.7,0.7-2.5,0.7
				c0-0.6-0.1-1.1-0.3-1.3c-0.2-0.3-1.2-0.7-3-1l0.1-0.9l4,0.4c0.5,0,0.7-0.2,0.7-0.6v-2.7h-8.5c-1.1,0-2.2,0.1-3.3,0.2l-0.6-1.4
				c1.3,0.3,2.6,0.4,4,0.4h8.5v-0.1c0-0.8,0-1.6-0.1-2.5l2.1,0.7c1.2-0.7,2.2-1.5,3.2-2.4h-9.2c-1.1,0-2.2,0.1-3.3,0.2L258.3,51.5z
				 M268.5,42.4l2.1,0.9c0.2,0.1,0.4,0.2,0.4,0.5c0,0.2-0.4,0.4-1.2,0.6c-0.3,0.3-0.5,0.5-0.7,0.7c0.2,0.1,0.4,0.2,0.5,0.3
				c1,0.6,1.5,1.1,1.5,1.7c0,0.3-0.1,0.5-0.2,0.6c-0.1,0.2-0.4,0.3-0.8,0.3c-0.3,0-0.7-0.2-1.1-0.7c-0.4-0.4-0.8-0.8-1.2-1.1
				c-0.5,0.3-1,0.6-1.5,0.8c-0.7,0.3-1.7,0.7-3,1l-0.2-0.5c0.6-0.3,1.1-0.5,1.4-0.7c0.6-0.3,1.1-0.6,1.5-1c0.2-0.2,0.5-0.4,0.7-0.6
				c-0.8-0.6-1.6-1.1-2.4-1.6l0.4-0.4c1.1,0.4,2,0.7,2.8,1C267.7,43.8,268.1,43.2,268.5,42.4z M268.6,36.3l2.1,1
				c0.2,0.1,0.4,0.2,0.4,0.5c0,0.3-0.4,0.5-1.2,0.6c-0.3,0.3-0.5,0.6-0.7,0.9c0.1,0,0.1,0.1,0.1,0.1c1,0.6,1.5,1.2,1.5,1.8
				c0,0.3-0.1,0.4-0.3,0.5c-0.1,0.2-0.4,0.3-0.8,0.3c-0.3,0-0.6-0.2-1-0.7c-0.3-0.3-0.5-0.6-0.8-0.8c-0.4,0.3-0.8,0.6-1.2,0.8
				c-0.7,0.4-1.6,0.8-2.7,1.1l-0.3-0.5c0.5-0.3,0.9-0.5,1.2-0.7c0.5-0.3,1-0.7,1.4-1.1c0.2-0.2,0.4-0.4,0.5-0.6
				c-0.9-0.8-1.8-1.4-2.7-2.1l0.4-0.2c1.2,0.5,2.2,0.9,3.1,1.3C267.9,37.8,268.2,37.2,268.6,36.3z"/>
			<path class="st1" d="M283.3,42.5c1.3,0.2,2.6,0.4,3.9,0.4h0.2v-3c0-1.8-0.1-3.1-0.2-4l3,0.4c0.5,0,0.8,0.2,0.8,0.6
				s-0.2,0.6-0.5,0.7l-0.7,0.3v5.1h0.2l1.5-1.7l2,1.5c0.2,0.2,0.3,0.4,0.3,0.6c0,0.3-0.1,0.5-0.4,0.5h-3.7v6.5
				c1.3-0.3,2.6-0.7,3.8-1.1l0.1,0.6c-1.2,0.7-2.5,1.4-3.9,2.1V61c0,1-0.5,1.8-1.5,2.5c-0.8,0.5-1.6,0.7-2.3,0.7
				c0-0.8-0.1-1.3-0.2-1.6c-0.2-0.3-1-0.6-2.4-1v-0.7l3.1,0.4c0.6,0,0.8-0.2,0.8-0.7V53c-0.6,0.3-1.3,0.6-1.9,0.9l-0.3,1
				c0,0.3-0.2,0.4-0.4,0.4c-0.2,0-0.4-0.2-0.5-0.5l-1.1-2.9c1.4-0.3,2.9-0.6,4.2-1v-7.1h-0.2c-1.1,0-2.2,0.1-3.4,0.2L283.3,42.5z
				 M297,36l2.9,1c0.4,0.1,0.6,0.4,0.6,0.7c0,0.3-0.4,0.5-1.3,0.6c-0.8,1.6-1.5,2.9-2.2,4h5.4c0.3-0.9,0.6-1.8,0.8-2.5
				c0.3-1,0.5-2.1,0.7-3.4l2.9,1c0.4,0.1,0.6,0.4,0.6,0.7c0,0.3-0.4,0.5-1.3,0.6c-0.6,1-1.1,1.9-1.6,2.6c-0.2,0.3-0.5,0.7-0.9,1.1
				h3.8l1.8-2l2.3,1.8c0.3,0.2,0.4,0.4,0.4,0.6c0,0.3-0.1,0.5-0.4,0.5h-6.8v5.2h1.9l1.7-1.9l2.3,1.6c0.2,0.2,0.4,0.4,0.4,0.7
				c0,0.3-0.2,0.4-0.5,0.4h-5.7v5.4h2l1.7-1.9l2.2,1.6c0.3,0.2,0.4,0.4,0.4,0.7c0,0.3-0.2,0.4-0.5,0.4h-5.8v6.1h2.6l1.9-2.2l2.5,1.8
				c0.3,0.2,0.4,0.4,0.4,0.7c0,0.3-0.2,0.5-0.6,0.5h-13.9v1c0,0.3-0.1,0.5-0.4,0.7c-0.4,0.1-0.8,0.1-1.2,0.1c-0.6,0-0.9-0.1-1-0.4
				l0.1-5.1V44.9c-0.7,0.9-1.7,1.9-2.8,3l-0.6-0.4c1.3-1.9,2.4-3.7,3.1-5.3C295.5,40.5,296.3,38.4,297,36z M302.2,48.4v-5.2h-4.8
				v5.2H302.2z M302.2,54.5v-5.4h-4.8v5.4H302.2z M297.5,61.4h4.8v-6.1h-4.8V61.4z"/>
			<path class="st1" d="M327.2,35.8l2.9,0.4c0.6,0.1,0.8,0.3,0.8,0.6c0,0.4-0.4,0.7-1.2,1v1.1h7.5l1.8-2l2.3,1.8
				c0.3,0.2,0.4,0.4,0.4,0.6c0,0.3-0.2,0.5-0.5,0.5h-23v7.2c0,4.3-0.4,7.8-1.2,10.5c-0.7,2.4-1.7,4.5-3,6.3l-0.5-0.5
				c0.7-1.4,1.2-3.2,1.6-5.3c0.5-2.5,0.7-6.1,0.7-10.9v-7.2c0-0.9,0-1.7-0.1-2.3l2.3,1.4h9.4v-1.2C327.3,37.2,327.3,36.7,327.2,35.8
				z M325.5,59.4l2.1,1.4c0.2,0.2,0.4,0.4,0.4,0.6c0,0.3-0.5,0.4-1.4,0.4c-1.5,0.6-3.1,1-4.8,1.3c-1,0.2-2.5,0.5-4.6,0.8l-0.4-0.5
				c2-0.7,3.5-1.2,4.7-1.8C323,61,324.3,60.2,325.5,59.4z M318.5,47.9c1.3,0.3,2.6,0.4,3.9,0.4h14.8l1.8-2l2.3,1.7
				c0.3,0.2,0.4,0.5,0.4,0.7c0,0.3-0.2,0.4-0.5,0.4h-18.9c-1.1,0-2.2,0.1-3.4,0.2L318.5,47.9z M319.1,42.4c1.3,0.2,2.6,0.3,3.9,0.3
				h1.4c0-1.6-0.1-2.6-0.2-2.9l2.6,0.4c0.5,0.1,0.7,0.3,0.7,0.6c0,0.2-0.1,0.3-0.4,0.4l-0.5,0.3v1.2h5.1c0-1.6-0.1-2.6-0.2-2.9
				l2.6,0.4c0.5,0.1,0.7,0.3,0.7,0.6c0,0.2-0.1,0.3-0.4,0.4l-0.4,0.3v1.2h2.5l1.6-1.8l2.2,1.5c0.2,0.2,0.3,0.4,0.3,0.6
				c0,0.3-0.1,0.5-0.4,0.5h-6.2v2.7c0,0.4-0.2,0.7-0.6,0.8c-0.4,0.2-0.7,0.3-1.1,0.3c-0.5,0-0.7-0.2-0.7-0.7v-0.2h-5
				c0,0.3-0.2,0.6-0.5,0.7c-0.4,0.2-0.7,0.3-1.1,0.3c-0.5,0-0.7-0.2-0.7-0.7l0.1-3.1H323c-1.1,0-2.2,0.1-3.3,0.2L319.1,42.4z
				 M320.5,50l2.5,1.2h12.8l1.3-1.3l1.8,1.4c0.3,0.2,0.5,0.3,0.5,0.5c0,0.2-0.1,0.4-0.3,0.5l-0.8,0.4v3.5l0.1,2.6
				c0,0.2-0.1,0.4-0.4,0.5c-0.2,0.2-0.5,0.3-0.9,0.3c-0.7,0-1.1-0.2-1.1-0.6v-0.3H323v0.2c0,0.3-0.2,0.5-0.5,0.7
				c-0.4,0.2-0.7,0.3-1.1,0.3c-0.5,0-0.7-0.2-0.7-0.7l0.1-2.8v-4.3C320.7,50.9,320.7,50.3,320.5,50z M323,54.4h5.2v-2.3H323V54.4z
				 M323,57.7h5.2v-2.5H323V57.7z M331.7,45.6l0.1-2h-5.1v2H331.7z M330.6,52.1v2.3h5.5v-2.3H330.6z M330.6,55.2v2.5h5.5v-2.5H330.6
				z M332.3,59.6c2.9,0.4,5.2,0.8,6.9,1.3c1.6,0.5,2.4,1,2.4,1.6c0,0.9-0.5,1.3-1.4,1.3c-0.3,0-0.7-0.1-1.2-0.4
				c-1.8-1-4.2-2.1-7.2-3.1L332.3,59.6z"/>
			<path class="st1" d="M343.8,43.8c1.2,0.2,2.4,0.3,3.5,0.4v-4.3c0-1.7-0.1-3-0.4-3.8l2.9,0.4c0.5,0,0.8,0.2,0.8,0.6
				c0,0.3-0.2,0.5-0.5,0.6l-0.6,0.2v6.3h0.9l1.5-1.7l2,1.5c0.2,0.2,0.4,0.4,0.4,0.6c0,0.3-0.2,0.5-0.5,0.5h-4.3v18.2
				c0,0.2-0.1,0.4-0.3,0.5c-0.3,0.2-0.7,0.3-1.2,0.3s-0.8-0.2-0.9-0.5l0.1-4.9V45c-1,0-2,0.1-3,0.2L343.8,43.8z M350.6,51.5
				c1.1,0.2,2.2,0.3,3.4,0.4c0-1,0.1-2,0.1-3.2l2.4,0.3c0.5,0.1,0.8,0.2,0.8,0.5c0,0.2-0.4,0.5-1.1,0.7c0,0.6-0.1,1.2-0.1,1.7h2.5
				l1-0.9l1.5,0.9h2.9c0-0.4,0-0.7,0-1c0-0.4-0.1-1.1-0.2-2l2.9,0.4c0.5,0.1,0.7,0.2,0.7,0.5c0,0.3-0.4,0.5-1.2,0.8
				c0,0.5,0,1-0.1,1.4h3.2l1.3-1l2,1.4c0.2,0.2,0.2,0.3,0.2,0.5c0,0.2-0.1,0.3-0.3,0.4l-0.6,0.3c-0.1,2.2-0.3,4.1-0.6,5.6
				c-0.3,1.6-0.8,2.7-1.4,3.3c-0.7,0.7-1.7,1.1-2.9,1.1c-0.2-1-0.4-1.5-0.8-1.6l-1.6-0.4l0.1-0.9c1.1,0.3,1.9,0.5,2.3,0.5
				c0.7,0,1.2-0.2,1.5-0.7c0.3-0.3,0.5-1.1,0.7-2.4c0.2-1.4,0.4-3.2,0.4-5.3h-3.6c-0.1,1.4-0.3,2.6-0.4,3.6
				c-0.2,1.2-0.6,2.4-1.2,3.4c-0.6,1.1-1.3,2-2.1,2.6c-0.6,0.5-1.5,1-2.6,1.5l-0.3-0.6c0.9-0.6,1.6-1.3,2.1-1.9
				c0.6-0.7,1-1.5,1.4-2.4c0.4-1,0.6-2.1,0.8-3.6c0.1-0.8,0.2-1.7,0.2-2.6h-2.2c0,0.1-0.1,0.2-0.3,0.3l-0.5,0.3
				c-0.1,2.2-0.2,4-0.5,5.5c-0.3,1.6-0.7,2.6-1.2,3.2c-0.7,0.7-1.6,1.1-2.7,1.1c-0.1-0.9-0.3-1.4-0.6-1.5l-1.3-0.4l0.1-0.7
				c0.9,0.3,1.5,0.4,1.8,0.4c0.6,0,1.1-0.2,1.4-0.7c0.2-0.3,0.4-1,0.6-2.4c0.2-1.4,0.3-3.1,0.3-5h-2.7c-0.1,1-0.2,2-0.4,2.8
				c-0.3,1.4-0.7,2.6-1.2,3.6c-0.5,1-1.1,1.8-1.7,2.6c-0.6,0.6-1.3,1.2-2.2,1.8l-0.2-0.6c0.9-1,1.6-1.9,2-2.9c0.4-0.8,0.8-1.8,1-2.9
				c0.2-1,0.4-2.1,0.5-3.5c0-0.3,0-0.5,0.1-0.8c-0.9,0-1.8,0.1-2.7,0.2L350.6,51.5z M353.4,39.3c1.3,0.2,2.6,0.4,3.9,0.4h1.6
				c0.2-0.9,0.3-2.1,0.3-3.5l2.8,0.4c0.6,0.1,0.9,0.3,0.9,0.6c0,0.3-0.4,0.5-1.3,0.8c-0.1,0.6-0.2,1.1-0.3,1.7h5.3l1.2-1.1l2.1,1.4
				c0.2,0.2,0.3,0.3,0.3,0.5c0,0.2-0.1,0.4-0.3,0.5l-0.6,0.3c-0.1,1.5-0.3,2.7-0.6,3.7c-0.3,1-0.8,1.8-1.4,2.1
				c-0.7,0.5-1.7,0.7-3,0.7c-0.2-1-0.6-1.6-1-1.7l-2.2-0.4l0.1-0.8c1.5,0.2,2.6,0.3,3.1,0.3c0.7,0,1.2-0.1,1.5-0.4
				c0.3-0.1,0.5-0.6,0.7-1.4c0.2-0.8,0.3-1.8,0.4-3h-5.7c-0.1,0.6-0.3,1.2-0.5,1.7c-0.5,1.1-1.1,2.1-1.8,2.9c-0.7,0.8-1.6,1.5-2.6,2
				c-0.9,0.5-2.1,0.9-3.4,1.4l-0.4-0.7c1.6-0.8,2.8-1.6,3.7-2.3c0.8-0.7,1.4-1.4,1.9-2.3c0.4-0.7,0.6-1.6,0.9-2.6h-1.4
				c-1.1,0-2.2,0.1-3.3,0.3L353.4,39.3z"/>
			<path class="st1" d="M387.1,35.6l2.7,0.6c0.4,0.1,0.6,0.3,0.6,0.6c0,0.3-0.4,0.5-1.2,0.7c0,0,0,0-0.1,0c1.1,0.7,2.2,1.2,3.3,1.7
				c1.4,0.6,2.9,1.2,4.4,1.6c1.7,0.5,3.8,0.9,6.2,1.3l-0.2,0.8c-0.4,0-0.7,0-1,0.1c-0.3,0.1-0.7,0.6-1.2,1.6c-1.6-0.5-3.3-1.1-5.1-2
				c-1.8-0.8-3.4-1.8-4.9-2.9c-0.7-0.5-1.4-1-2.1-1.7c-1.5,1.4-3.3,2.7-5.4,4c1.1,0.2,2.3,0.3,3.4,0.3h2.4l1.4-1.5l2,1.4
				c0.2,0.2,0.3,0.4,0.3,0.5c0,0.3-0.1,0.5-0.3,0.5h-5.7c-1.1,0-2.2,0.1-3.3,0.2l-0.5-1.1c-1.5,0.8-3.3,1.5-5.3,2.2l1.8,0.8h17.3
				l1.3-1.3l1.8,1.4c0.4,0.2,0.5,0.4,0.5,0.6c0,0.2-0.1,0.3-0.3,0.4l-0.8,0.4v2.9l0.1,2.6c0,0.2-0.1,0.4-0.4,0.5
				c-0.2,0.2-0.5,0.3-0.9,0.3c-0.7,0-1.1-0.2-1.1-0.6v-0.4h-17.5c0,0.3-0.2,0.5-0.5,0.7c-0.3,0.2-0.7,0.3-1.2,0.3s-0.7-0.2-0.7-0.7
				l0.1-2.9V46c0-0.6,0-1.1-0.1-1.4c-0.7,0.2-1.4,0.4-2.1,0.6l-0.4-0.6c2.6-1,5-2.2,7.1-3.6C383.5,39.6,385.4,37.8,387.1,35.6z
				 M378.7,53l2.6,1.3h12.9l1.5-1.4l1.8,1.5c0.3,0.2,0.5,0.4,0.5,0.6c0,0.2-0.1,0.3-0.3,0.4l-0.7,0.4v4.8l0.1,2.6
				c0,0.3-0.1,0.5-0.4,0.7c-0.2,0.2-0.5,0.3-0.9,0.3c-0.8,0-1.2-0.2-1.2-0.6v-0.8h-13.2v0.3c0,0.4-0.2,0.6-0.5,0.8
				c-0.4,0.2-0.7,0.3-1.1,0.3c-0.5,0-0.8-0.3-0.9-0.8l0.1-3V55C379,54,378.9,53.3,378.7,53z M379.2,51.2h7.5v-5.1h-7.5V51.2z
				 M381.6,46.5c1,0.5,1.7,1,2.3,1.5c0.6,0.5,0.9,0.9,0.9,1.2c0,0.9-0.4,1.3-1.1,1.3c-0.5,0-0.8-0.2-1-0.7c-0.4-0.9-0.9-1.9-1.8-2.9
				L381.6,46.5z M381.3,57.8h13.2v-2.7h-13.2V57.8z M381.3,61.8h13.2v-3.1h-13.2V61.8z M388.8,51.2h7.8v-5.1h-7.8V51.2z M392.4,46.4
				l2.4,1c0.3,0.1,0.4,0.2,0.4,0.4c0,0.3-0.4,0.5-1.2,0.6c-0.7,0.6-1.7,1.4-2.9,2.3l-0.6-0.3c0.5-0.8,0.8-1.4,1-1.9
				C391.9,47.8,392.2,47.1,392.4,46.4z"/>
		</g>
	</g>
	<g class="st0">
		<path class="st1" d="M109.6,86.5V73.6h-4.8v-1.7h11.6v1.7h-4.9v12.9H109.6z"/>
		<path class="st1" d="M122.8,85.2c-0.7,0.6-1.3,1-1.9,1.2c-0.6,0.2-1.3,0.4-2,0.4c-1.2,0-2.1-0.3-2.7-0.9c-0.6-0.6-0.9-1.3-0.9-2.2
			c0-0.5,0.1-1,0.4-1.4c0.2-0.4,0.5-0.8,0.9-1c0.4-0.3,0.8-0.5,1.3-0.6c0.4-0.1,0.9-0.2,1.6-0.3c1.5-0.2,2.5-0.4,3.2-0.6
			c0-0.2,0-0.4,0-0.5c0-0.7-0.2-1.3-0.5-1.6c-0.5-0.4-1.1-0.6-2.1-0.6c-0.8,0-1.5,0.1-1.9,0.4s-0.7,0.8-0.9,1.6l-1.8-0.2
			c0.2-0.8,0.4-1.4,0.8-1.8c0.4-0.5,0.9-0.8,1.6-1.1c0.7-0.3,1.5-0.4,2.4-0.4c0.9,0,1.6,0.1,2.2,0.3c0.6,0.2,1,0.5,1.3,0.8
			c0.3,0.3,0.5,0.7,0.6,1.2c0.1,0.3,0.1,0.9,0.1,1.7V82c0,1.7,0,2.7,0.1,3.2c0.1,0.4,0.2,0.9,0.5,1.3h-1.9
			C123,86.1,122.9,85.7,122.8,85.2z M122.7,81.2c-0.7,0.3-1.6,0.5-2.9,0.7c-0.7,0.1-1.3,0.2-1.6,0.4c-0.3,0.1-0.5,0.3-0.7,0.6
			c-0.2,0.3-0.3,0.5-0.3,0.9c0,0.5,0.2,0.9,0.5,1.2s0.9,0.5,1.6,0.5c0.7,0,1.3-0.2,1.9-0.5c0.5-0.3,0.9-0.7,1.2-1.2
			c0.2-0.4,0.3-1,0.3-1.8V81.2z"/>
		<path class="st1" d="M127.3,73.9v-2.1h1.8v2.1H127.3z M127.3,86.5V75.9h1.8v10.6H127.3z"/>
		<path class="st1" d="M133.8,86.5l-3.3-10.6h1.9l1.7,6.1l0.6,2.3c0-0.1,0.2-0.8,0.6-2.2l1.7-6.2h1.9l1.6,6.2l0.5,2l0.6-2.1l1.8-6.1
			h1.8l-3.3,10.6h-1.9l-1.7-6.4l-0.4-1.8l-2.2,8.2H133.8z"/>
		<path class="st1" d="M153.6,85.2c-0.7,0.6-1.3,1-1.9,1.2c-0.6,0.2-1.3,0.4-2,0.4c-1.2,0-2.1-0.3-2.7-0.9c-0.6-0.6-0.9-1.3-0.9-2.2
			c0-0.5,0.1-1,0.4-1.4c0.2-0.4,0.5-0.8,0.9-1c0.4-0.3,0.8-0.5,1.3-0.6c0.4-0.1,0.9-0.2,1.6-0.3c1.5-0.2,2.5-0.4,3.2-0.6
			c0-0.2,0-0.4,0-0.5c0-0.7-0.2-1.3-0.5-1.6c-0.5-0.4-1.1-0.6-2.1-0.6c-0.8,0-1.5,0.1-1.9,0.4s-0.7,0.8-0.9,1.6l-1.8-0.2
			c0.2-0.8,0.4-1.4,0.8-1.8c0.4-0.5,0.9-0.8,1.6-1.1c0.7-0.3,1.5-0.4,2.4-0.4c0.9,0,1.6,0.1,2.2,0.3c0.6,0.2,1,0.5,1.3,0.8
			c0.3,0.3,0.5,0.7,0.6,1.2c0.1,0.3,0.1,0.9,0.1,1.7V82c0,1.7,0,2.7,0.1,3.2c0.1,0.4,0.2,0.9,0.5,1.3h-1.9
			C153.8,86.1,153.6,85.7,153.6,85.2z M153.4,81.2c-0.7,0.3-1.6,0.5-2.9,0.7c-0.7,0.1-1.3,0.2-1.6,0.4c-0.3,0.1-0.5,0.3-0.7,0.6
			c-0.2,0.3-0.3,0.5-0.3,0.9c0,0.5,0.2,0.9,0.5,1.2s0.9,0.5,1.6,0.5c0.7,0,1.3-0.2,1.9-0.5c0.5-0.3,0.9-0.7,1.2-1.2
			c0.2-0.4,0.3-1,0.3-1.8V81.2z"/>
		<path class="st1" d="M158.1,86.5V75.9h1.6v1.5c0.8-1.2,1.9-1.8,3.4-1.8c0.6,0,1.2,0.1,1.8,0.3c0.5,0.2,0.9,0.5,1.2,0.9
			c0.3,0.4,0.5,0.8,0.6,1.3c0.1,0.3,0.1,0.9,0.1,1.8v6.5h-1.8V80c0-0.7-0.1-1.3-0.2-1.6c-0.1-0.4-0.4-0.7-0.7-0.9s-0.8-0.3-1.3-0.3
			c-0.8,0-1.4,0.2-2,0.7s-0.8,1.4-0.8,2.8v5.8H158.1z"/>
		<path class="st1" d="M175.4,86.5V71.8h2l7.7,11.5V71.8h1.9v14.7h-2L177.2,75v11.5H175.4z"/>
		<path class="st1" d="M196.9,86.5v-1.6c-0.8,1.2-2,1.8-3.4,1.8c-0.6,0-1.2-0.1-1.8-0.4s-0.9-0.5-1.2-0.9c-0.3-0.4-0.4-0.8-0.6-1.3
			c-0.1-0.4-0.1-0.9-0.1-1.7v-6.6h1.8v5.9c0,0.9,0,1.6,0.1,1.9c0.1,0.5,0.4,0.8,0.7,1.1c0.4,0.3,0.8,0.4,1.4,0.4s1-0.1,1.5-0.4
			c0.5-0.3,0.8-0.7,1-1.1c0.2-0.5,0.3-1.2,0.3-2.1v-5.7h1.8v10.6H196.9z"/>
		<path class="st1" d="M205.3,84.9l0.3,1.6c-0.5,0.1-1,0.2-1.4,0.2c-0.7,0-1.2-0.1-1.5-0.3c-0.4-0.2-0.6-0.5-0.8-0.8
			c-0.1-0.3-0.2-1-0.2-2.1v-6.1h-1.3v-1.4h1.3v-2.6l1.8-1.1v3.7h1.8v1.4h-1.8v6.2c0,0.5,0,0.8,0.1,1c0.1,0.1,0.2,0.3,0.3,0.3
			c0.1,0.1,0.3,0.1,0.6,0.1C204.7,85,205,84.9,205.3,84.9z"/>
		<path class="st1" d="M207,86.5V75.9h1.6v1.6c0.4-0.8,0.8-1.3,1.1-1.5s0.7-0.4,1.2-0.4c0.6,0,1.2,0.2,1.9,0.6l-0.6,1.7
			c-0.4-0.3-0.9-0.4-1.3-0.4c-0.4,0-0.7,0.1-1.1,0.4s-0.5,0.6-0.7,1c-0.2,0.6-0.3,1.3-0.3,2.1v5.6H207z"/>
		<path class="st1" d="M220.8,85.2c-0.7,0.6-1.3,1-1.9,1.2c-0.6,0.2-1.3,0.4-2,0.4c-1.2,0-2.1-0.3-2.7-0.9c-0.6-0.6-0.9-1.3-0.9-2.2
			c0-0.5,0.1-1,0.4-1.4c0.2-0.4,0.5-0.8,0.9-1c0.4-0.3,0.8-0.5,1.3-0.6c0.4-0.1,0.9-0.2,1.6-0.3c1.5-0.2,2.5-0.4,3.2-0.6
			c0-0.2,0-0.4,0-0.5c0-0.7-0.2-1.3-0.5-1.6c-0.5-0.4-1.1-0.6-2.1-0.6c-0.8,0-1.5,0.1-1.9,0.4c-0.4,0.3-0.7,0.8-0.9,1.6l-1.8-0.2
			c0.2-0.8,0.4-1.4,0.8-1.8c0.4-0.5,0.9-0.8,1.6-1.1c0.7-0.3,1.5-0.4,2.4-0.4c0.9,0,1.6,0.1,2.2,0.3c0.6,0.2,1,0.5,1.3,0.8
			c0.3,0.3,0.5,0.7,0.6,1.2c0.1,0.3,0.1,0.9,0.1,1.7V82c0,1.7,0,2.7,0.1,3.2c0.1,0.4,0.2,0.9,0.5,1.3h-1.9
			C221,86.1,220.9,85.7,220.8,85.2z M220.7,81.2c-0.7,0.3-1.6,0.5-2.9,0.7c-0.7,0.1-1.3,0.2-1.6,0.4s-0.5,0.3-0.7,0.6
			c-0.2,0.3-0.3,0.5-0.3,0.9c0,0.5,0.2,0.9,0.5,1.2c0.4,0.3,0.9,0.5,1.6,0.5c0.7,0,1.3-0.2,1.9-0.5c0.5-0.3,0.9-0.7,1.2-1.2
			c0.2-0.4,0.3-1,0.3-1.8V81.2z"/>
		<path class="st1" d="M232.2,82.6l1.8,0.2c-0.2,1.2-0.7,2.2-1.5,2.9c-0.8,0.7-1.8,1-2.9,1c-1.5,0-2.6-0.5-3.5-1.4
			c-0.9-1-1.3-2.3-1.3-4.1c0-1.1,0.2-2.2,0.6-3c0.4-0.9,1-1.5,1.7-1.9c0.8-0.4,1.6-0.6,2.5-0.6c1.2,0,2.1,0.3,2.8,0.9
			c0.7,0.6,1.2,1.4,1.4,2.5l-1.8,0.3c-0.2-0.7-0.5-1.3-0.9-1.6s-0.9-0.5-1.5-0.5c-0.9,0-1.6,0.3-2.2,1s-0.9,1.7-0.9,3.1
			c0,1.4,0.3,2.5,0.8,3.1c0.5,0.6,1.3,1,2.1,1c0.7,0,1.3-0.2,1.8-0.7S232.1,83.5,232.2,82.6z"/>
		<path class="st1" d="M242.8,83.1l1.9,0.2c-0.3,1.1-0.8,1.9-1.6,2.5c-0.8,0.6-1.8,0.9-3,0.9c-1.6,0-2.8-0.5-3.7-1.4
			c-0.9-1-1.4-2.3-1.4-4c0-1.8,0.5-3.2,1.4-4.2c0.9-1,2.1-1.5,3.6-1.5c1.4,0,2.6,0.5,3.5,1.5c0.9,1,1.4,2.3,1.4,4.1
			c0,0.1,0,0.3,0,0.5h-7.9c0.1,1.2,0.4,2.1,1,2.7c0.6,0.6,1.3,0.9,2.2,0.9c0.7,0,1.2-0.2,1.7-0.5C242.2,84.4,242.5,83.8,242.8,83.1z
			 M236.9,80.2h5.9c-0.1-0.9-0.3-1.6-0.7-2c-0.6-0.7-1.3-1-2.2-1c-0.8,0-1.5,0.3-2.1,0.8C237.3,78.5,236.9,79.2,236.9,80.2z"/>
		<path class="st1" d="M253.9,86.5v-1.6c-0.8,1.2-2,1.8-3.4,1.8c-0.6,0-1.2-0.1-1.8-0.4s-0.9-0.5-1.2-0.9c-0.3-0.4-0.4-0.8-0.6-1.3
			c-0.1-0.4-0.1-0.9-0.1-1.7v-6.6h1.8v5.9c0,0.9,0,1.6,0.1,1.9c0.1,0.5,0.4,0.8,0.7,1.1s0.8,0.4,1.4,0.4c0.5,0,1-0.1,1.5-0.4
			s0.8-0.7,1-1.1c0.2-0.5,0.3-1.2,0.3-2.1v-5.7h1.8v10.6H253.9z"/>
		<path class="st1" d="M262.3,84.9l0.3,1.6c-0.5,0.1-1,0.2-1.4,0.2c-0.7,0-1.2-0.1-1.5-0.3c-0.4-0.2-0.6-0.5-0.8-0.8
			c-0.1-0.3-0.2-1-0.2-2.1v-6.1h-1.3v-1.4h1.3v-2.6l1.8-1.1v3.7h1.8v1.4h-1.8v6.2c0,0.5,0,0.8,0.1,1c0.1,0.1,0.2,0.3,0.3,0.3
			c0.1,0.1,0.3,0.1,0.6,0.1C261.7,85,261.9,84.9,262.3,84.9z"/>
		<path class="st1" d="M264,73.9v-2.1h1.8v2.1H264z M264,86.5V75.9h1.8v10.6H264z"/>
		<path class="st1" d="M275.5,82.6l1.8,0.2c-0.2,1.2-0.7,2.2-1.5,2.9c-0.8,0.7-1.8,1-2.9,1c-1.5,0-2.6-0.5-3.5-1.4
			c-0.9-1-1.3-2.3-1.3-4.1c0-1.1,0.2-2.2,0.6-3c0.4-0.9,1-1.5,1.7-1.9c0.8-0.4,1.6-0.6,2.5-0.6c1.2,0,2.1,0.3,2.8,0.9
			c0.7,0.6,1.2,1.4,1.4,2.5l-1.8,0.3c-0.2-0.7-0.5-1.3-0.9-1.6s-0.9-0.5-1.5-0.5c-0.9,0-1.6,0.3-2.2,1c-0.6,0.7-0.9,1.7-0.9,3.1
			c0,1.4,0.3,2.5,0.8,3.1s1.3,1,2.1,1c0.7,0,1.3-0.2,1.8-0.7C275.1,84.2,275.4,83.5,275.5,82.6z"/>
		<path class="st1" d="M285.8,85.2c-0.7,0.6-1.3,1-1.9,1.2s-1.3,0.4-2,0.4c-1.2,0-2.1-0.3-2.7-0.9c-0.6-0.6-0.9-1.3-0.9-2.2
			c0-0.5,0.1-1,0.4-1.4c0.2-0.4,0.5-0.8,0.9-1c0.4-0.3,0.8-0.5,1.3-0.6c0.4-0.1,0.9-0.2,1.6-0.3c1.5-0.2,2.5-0.4,3.2-0.6
			c0-0.2,0-0.4,0-0.5c0-0.7-0.2-1.3-0.5-1.6c-0.5-0.4-1.1-0.6-2.1-0.6c-0.8,0-1.5,0.1-1.9,0.4c-0.4,0.3-0.7,0.8-0.9,1.6l-1.8-0.2
			c0.2-0.8,0.4-1.4,0.8-1.8s0.9-0.8,1.6-1.1s1.5-0.4,2.4-0.4c0.9,0,1.6,0.1,2.2,0.3c0.6,0.2,1,0.5,1.3,0.8c0.3,0.3,0.5,0.7,0.6,1.2
			c0.1,0.3,0.1,0.9,0.1,1.7V82c0,1.7,0,2.7,0.1,3.2c0.1,0.4,0.2,0.9,0.5,1.3h-1.9C285.9,86.1,285.8,85.7,285.8,85.2z M285.6,81.2
			c-0.7,0.3-1.6,0.5-2.9,0.7c-0.7,0.1-1.3,0.2-1.6,0.4c-0.3,0.1-0.5,0.3-0.7,0.6c-0.2,0.3-0.3,0.5-0.3,0.9c0,0.5,0.2,0.9,0.5,1.2
			c0.4,0.3,0.9,0.5,1.6,0.5c0.7,0,1.3-0.2,1.9-0.5c0.5-0.3,0.9-0.7,1.2-1.2c0.2-0.4,0.3-1,0.3-1.8V81.2z"/>
		<path class="st1" d="M290.2,86.5V71.8h1.8v14.7H290.2z"/>
		<path class="st1" d="M298,86.5l5.6-14.7h2.1l6,14.7h-2.2l-1.7-4.4h-6.1l-1.6,4.4H298z M302.2,80.5h5l-1.5-4.1
			c-0.5-1.2-0.8-2.2-1-3c-0.2,0.9-0.5,1.9-0.8,2.8L302.2,80.5z"/>
		<path class="st1" d="M312.3,83.3l1.8-0.3c0.1,0.7,0.4,1.3,0.8,1.6c0.5,0.4,1.1,0.6,1.9,0.6c0.8,0,1.4-0.2,1.8-0.5
			c0.4-0.3,0.6-0.7,0.6-1.2c0-0.4-0.2-0.7-0.5-1c-0.2-0.2-0.9-0.4-1.8-0.6c-1.3-0.3-2.2-0.6-2.7-0.9c-0.5-0.2-0.9-0.6-1.2-1
			c-0.3-0.4-0.4-0.9-0.4-1.4c0-0.5,0.1-0.9,0.3-1.3c0.2-0.4,0.5-0.7,0.9-1c0.3-0.2,0.7-0.4,1.1-0.5c0.5-0.1,1-0.2,1.6-0.2
			c0.8,0,1.6,0.1,2.2,0.4s1.1,0.6,1.4,1c0.3,0.4,0.5,1,0.6,1.6l-1.8,0.2c-0.1-0.5-0.3-1-0.7-1.3s-0.9-0.5-1.6-0.5
			c-0.8,0-1.4,0.1-1.8,0.4s-0.5,0.6-0.5,1c0,0.2,0.1,0.4,0.2,0.6c0.1,0.2,0.4,0.4,0.7,0.5c0.2,0.1,0.7,0.2,1.6,0.5
			c1.3,0.3,2.2,0.6,2.7,0.8s0.9,0.5,1.2,0.9c0.3,0.4,0.4,0.9,0.4,1.5c0,0.6-0.2,1.2-0.5,1.7c-0.3,0.5-0.9,0.9-1.5,1.2
			c-0.7,0.3-1.4,0.4-2.2,0.4c-1.4,0-2.4-0.3-3.2-0.9C313,85.3,312.5,84.5,312.3,83.3z"/>
		<path class="st1" d="M322.6,83.3l1.8-0.3c0.1,0.7,0.4,1.3,0.8,1.6c0.5,0.4,1.1,0.6,1.9,0.6c0.8,0,1.4-0.2,1.8-0.5
			c0.4-0.3,0.6-0.7,0.6-1.2c0-0.4-0.2-0.7-0.5-1c-0.2-0.2-0.9-0.4-1.8-0.6c-1.3-0.3-2.2-0.6-2.7-0.9c-0.5-0.2-0.9-0.6-1.2-1
			c-0.3-0.4-0.4-0.9-0.4-1.4c0-0.5,0.1-0.9,0.3-1.3c0.2-0.4,0.5-0.7,0.9-1c0.3-0.2,0.7-0.4,1.1-0.5c0.5-0.1,1-0.2,1.6-0.2
			c0.8,0,1.6,0.1,2.2,0.4s1.1,0.6,1.4,1c0.3,0.4,0.5,1,0.6,1.6l-1.8,0.2c-0.1-0.5-0.3-1-0.7-1.3s-0.9-0.5-1.6-0.5
			c-0.8,0-1.4,0.1-1.8,0.4s-0.5,0.6-0.5,1c0,0.2,0.1,0.4,0.2,0.6c0.1,0.2,0.4,0.4,0.7,0.5c0.2,0.1,0.7,0.2,1.6,0.5
			c1.3,0.3,2.2,0.6,2.7,0.8s0.9,0.5,1.2,0.9c0.3,0.4,0.4,0.9,0.4,1.5c0,0.6-0.2,1.2-0.5,1.7c-0.3,0.5-0.9,0.9-1.5,1.2
			c-0.7,0.3-1.4,0.4-2.2,0.4c-1.4,0-2.4-0.3-3.2-0.9C323.2,85.3,322.8,84.5,322.6,83.3z"/>
		<path class="st1" d="M332.9,81.2c0-2,0.5-3.4,1.6-4.4c0.9-0.8,2-1.2,3.3-1.2c1.5,0,2.7,0.5,3.6,1.4c0.9,1,1.4,2.3,1.4,4
			c0,1.4-0.2,2.4-0.6,3.2c-0.4,0.8-1,1.4-1.8,1.8s-1.6,0.7-2.6,0.7c-1.5,0-2.7-0.5-3.6-1.4C333.3,84.4,332.9,83,332.9,81.2z
			 M334.7,81.2c0,1.4,0.3,2.4,0.9,3.1c0.6,0.7,1.3,1,2.2,1c0.9,0,1.6-0.3,2.2-1c0.6-0.7,0.9-1.7,0.9-3.1c0-1.3-0.3-2.3-0.9-3
			c-0.6-0.7-1.3-1-2.2-1c-0.9,0-1.6,0.3-2.2,1C335,78.8,334.7,79.8,334.7,81.2z"/>
		<path class="st1" d="M351.9,82.6l1.8,0.2c-0.2,1.2-0.7,2.2-1.5,2.9c-0.8,0.7-1.8,1-2.9,1c-1.5,0-2.6-0.5-3.5-1.4
			c-0.9-1-1.3-2.3-1.3-4.1c0-1.1,0.2-2.2,0.6-3c0.4-0.9,1-1.5,1.7-1.9c0.8-0.4,1.6-0.6,2.5-0.6c1.2,0,2.1,0.3,2.8,0.9
			c0.7,0.6,1.2,1.4,1.4,2.5l-1.8,0.3c-0.2-0.7-0.5-1.3-0.9-1.6s-0.9-0.5-1.5-0.5c-0.9,0-1.6,0.3-2.2,1s-0.9,1.7-0.9,3.1
			c0,1.4,0.3,2.5,0.8,3.1c0.5,0.6,1.3,1,2.1,1c0.7,0,1.3-0.2,1.8-0.7S351.7,83.5,351.9,82.6z"/>
		<path class="st1" d="M355.2,73.9v-2.1h1.8v2.1H355.2z M355.2,86.5V75.9h1.8v10.6H355.2z"/>
		<path class="st1" d="M366.7,85.2c-0.7,0.6-1.3,1-1.9,1.2c-0.6,0.2-1.3,0.4-2,0.4c-1.2,0-2.1-0.3-2.7-0.9c-0.6-0.6-0.9-1.3-0.9-2.2
			c0-0.5,0.1-1,0.4-1.4c0.2-0.4,0.5-0.8,0.9-1c0.4-0.3,0.8-0.5,1.3-0.6c0.4-0.1,0.9-0.2,1.6-0.3c1.5-0.2,2.5-0.4,3.2-0.6
			c0-0.2,0-0.4,0-0.5c0-0.7-0.2-1.3-0.5-1.6c-0.5-0.4-1.1-0.6-2.1-0.6c-0.8,0-1.5,0.1-1.9,0.4c-0.4,0.3-0.7,0.8-0.9,1.6l-1.8-0.2
			c0.2-0.8,0.4-1.4,0.8-1.8c0.4-0.5,0.9-0.8,1.6-1.1c0.7-0.3,1.5-0.4,2.4-0.4c0.9,0,1.6,0.1,2.2,0.3c0.6,0.2,1,0.5,1.3,0.8
			c0.3,0.3,0.5,0.7,0.6,1.2c0.1,0.3,0.1,0.9,0.1,1.7V82c0,1.7,0,2.7,0.1,3.2c0.1,0.4,0.2,0.9,0.5,1.3H367
			C366.8,86.1,366.7,85.7,366.7,85.2z M366.5,81.2c-0.7,0.3-1.6,0.5-2.9,0.7c-0.7,0.1-1.3,0.2-1.6,0.4s-0.5,0.3-0.7,0.6
			c-0.2,0.3-0.3,0.5-0.3,0.9c0,0.5,0.2,0.9,0.5,1.2c0.4,0.3,0.9,0.5,1.6,0.5c0.7,0,1.3-0.2,1.9-0.5c0.5-0.3,0.9-0.7,1.2-1.2
			c0.2-0.4,0.3-1,0.3-1.8V81.2z"/>
		<path class="st1" d="M375.1,84.9l0.3,1.6c-0.5,0.1-1,0.2-1.4,0.2c-0.7,0-1.2-0.1-1.5-0.3c-0.4-0.2-0.6-0.5-0.8-0.8
			c-0.1-0.3-0.2-1-0.2-2.1v-6.1h-1.3v-1.4h1.3v-2.6l1.8-1.1v3.7h1.8v1.4h-1.8v6.2c0,0.5,0,0.8,0.1,1c0.1,0.1,0.2,0.3,0.3,0.3
			c0.1,0.1,0.3,0.1,0.6,0.1C374.5,85,374.7,84.9,375.1,84.9z"/>
		<path class="st1" d="M376.8,73.9v-2.1h1.8v2.1H376.8z M376.8,86.5V75.9h1.8v10.6H376.8z"/>
		<path class="st1" d="M380.7,81.2c0-2,0.5-3.4,1.6-4.4c0.9-0.8,2-1.2,3.3-1.2c1.5,0,2.7,0.5,3.6,1.4c0.9,1,1.4,2.3,1.4,4
			c0,1.4-0.2,2.4-0.6,3.2s-1,1.4-1.8,1.8s-1.6,0.7-2.6,0.7c-1.5,0-2.7-0.5-3.6-1.4C381.2,84.4,380.7,83,380.7,81.2z M382.6,81.2
			c0,1.4,0.3,2.4,0.9,3.1c0.6,0.7,1.3,1,2.2,1c0.9,0,1.6-0.3,2.2-1c0.6-0.7,0.9-1.7,0.9-3.1c0-1.3-0.3-2.3-0.9-3
			c-0.6-0.7-1.3-1-2.2-1c-0.9,0-1.6,0.3-2.2,1S382.6,79.8,382.6,81.2z"/>
		<path class="st1" d="M392.8,86.5V75.9h1.6v1.5c0.8-1.2,1.9-1.8,3.4-1.8c0.6,0,1.2,0.1,1.8,0.3s0.9,0.5,1.2,0.9s0.5,0.8,0.6,1.3
			c0.1,0.3,0.1,0.9,0.1,1.8v6.5h-1.8V80c0-0.7-0.1-1.3-0.2-1.6c-0.1-0.4-0.4-0.7-0.7-0.9c-0.4-0.2-0.8-0.3-1.3-0.3
			c-0.8,0-1.4,0.2-2,0.7c-0.6,0.5-0.8,1.4-0.8,2.8v5.8H392.8z"/>
	</g>
</g>
<g>
	<path class="st2" d="M12.7,86.9c-0.8,6.5-1.4,13.2-1.3,16.9c0.2,1.9,0.3,19,3.3,22.1c0.2-1,0.1-2.1,0.1-3.1c0-2.1,0.1-4.2,0.1-6.3
		c0.1-5.3,0.3-10.7,0.8-16c0.3-3.1,0.9-6.2,1.5-9.2c0.2-1.2,0.5-2.3,0.8-3.4C16.2,87.6,14.4,87.2,12.7,86.9z"/>
	<path class="st2" d="M33.4,42.7c0.3,0,0.6,0.2,1,0.6c0.3,0.3,0.6,0.7,0.9,1.2c0.3,0.4,0.5,0.9,0.8,1.3c0.2,0.5,0.4,0.9,0.5,1.2h1
		v-5.5h-4.5c-0.2,0.4-0.4,0.8-0.5,1.2C32.8,42.7,33.1,42.7,33.4,42.7z"/>
	<path class="st3" d="M19.8,47h1c0.1-0.3,0.2-0.7,0.5-1.2c0.2-0.5,0.5-0.9,0.8-1.4c0.3-0.4,0.6-0.8,0.9-1.2c0.3-0.3,0.7-0.5,1-0.6
		c0.4,0,0.8-0.1,1.3-0.1c0.4,0,0.8,0,1.1,0h0.8v16.3c0,0.4-0.1,0.7-0.2,0.9c-0.1,0.2-0.4,0.4-0.7,0.5c-0.2,0.1-0.6,0.2-1.1,0.2
		c-0.5,0.1-1,0.1-1.2,0.1v1h9.6v-1c-0.3,0-0.7-0.1-1.3-0.2c-0.5-0.1-0.9-0.2-1.1-0.3c-0.3-0.1-0.6-0.3-0.7-0.6
		c-0.1-0.3-0.2-0.6-0.2-0.9V42.6h0.8c0.4,0,0.8,0,1.2,0c0.1,0,0.1,0,0.2,0c0.2-0.4,0.3-0.8,0.5-1.2H19.9V47H19.8z"/>
	<path class="st2" d="M45.3,51.5c-0.1,0-0.4,0-0.7,0.1s-0.5,0.2-0.6,0.2c-0.2,0.1-0.3,0.4-0.4,0.7c-0.1,0.4-0.1,0.8-0.1,1.4v7.9
		h-0.7L36.3,53v5.5c0,0.6,0,1.1,0.1,1.4s0.2,0.6,0.4,0.7c0.1,0.1,0.4,0.2,0.7,0.3c0.4,0.1,0.6,0.1,0.7,0.2v0.5h-4.4v-0.5
		c0.1,0,0.4-0.1,0.7-0.1c0.3-0.1,0.5-0.2,0.6-0.2c0.2-0.1,0.3-0.4,0.4-0.6c0.1-0.3,0.1-0.8,0.1-1.5v-5.3c0-0.2,0-0.5-0.1-0.7
		s-0.2-0.4-0.3-0.5c-0.2-0.2-0.4-0.3-0.7-0.4s-0.6-0.2-0.8-0.2v-0.5h3.1l6,8.2v-5.1c0-0.6,0-1.1-0.1-1.4s-0.2-0.6-0.3-0.7
		s-0.4-0.2-0.7-0.3c-0.3-0.1-0.6-0.1-0.7-0.2v-0.5h4.4L45.3,51.5L45.3,51.5z"/>
	<path class="st2" d="M63.4,61.8h-8.2v-1c0.7,0,1.3-0.1,1.8-0.3c0.5-0.1,0.7-0.3,0.7-0.5c0-0.1,0-0.2,0-0.3c0-0.1,0-0.2-0.1-0.3
		L56,55h-6.9c-0.3,0.6-0.5,1.2-0.6,1.7c-0.2,0.5-0.3,0.9-0.4,1.3c-0.1,0.4-0.2,0.7-0.2,1s-0.1,0.5-0.1,0.6c0,0.4,0.3,0.7,0.9,0.9
		c0.6,0.2,1.2,0.3,2,0.4v1h-7.4v-1c0.2,0,0.5-0.1,0.9-0.2s0.7-0.2,0.9-0.4c0.4-0.3,0.7-0.5,0.9-0.8s0.4-0.7,0.6-1.1
		c1-2.5,2.1-5.2,3.3-8.3c1.2-3.1,2.3-5.8,3.2-8.2h1.1l6.6,17c0.1,0.4,0.3,0.7,0.5,0.9c0.2,0.2,0.4,0.4,0.7,0.7
		c0.2,0.1,0.5,0.2,0.8,0.3c0.3,0.1,0.6,0.1,0.9,0.1v0.9H63.4z M55.5,53.8l-3-7.6l-2.9,7.6H55.5z"/>
	<path class="st4" d="M7.8,60.4c-0.6,0.8-19.1,22.5,12.9,22.1C54,83,92.6,48.7,92.6,48.7S70.3,90.3,23.3,87
		C-17.5,84,7.8,60.4,7.8,60.4z"/>
	<path class="st2" d="M12.6,46c0.7,0.9,4.2,6,3.8,13.1c0,1.5-1.3,9.5-1.5,11.1c-0.1,1.2-0.8,5.6-1.5,10.9c1.9,0.3,4.1,0.4,6.5,0.4
		h0.8h0.2c0.6-1,1.2-1.9,1.8-2.8c0.7-0.7,2.6-4,11.2-1.8c0.6,0.2,2.5,0.9,5.2,1.8c3.1-0.9,6.2-2,9.2-3.3c-2.1-1.4-4.2-3-6.3-4.9
		c-1.3-1.3-15.7-13.4-9.6-27.9c-0.1,0-0.1,0-0.2,0c-0.4,0-0.9,0-1.2,0h-0.8v16.2c0,0.3,0.1,0.6,0.2,0.9c0.1,0.3,0.4,0.5,0.7,0.6
		c0.2,0.1,0.5,0.2,1.1,0.3c0.5,0.1,1,0.2,1.3,0.2v1h-9.6v-1c0.3,0,0.7-0.1,1.2-0.1c0.5-0.1,0.9-0.1,1.1-0.2c0.3-0.1,0.5-0.3,0.7-0.5
		c0.1-0.2,0.2-0.5,0.2-0.9V42.6h-0.8c-0.3,0-0.7,0-1.1,0s-0.9,0-1.3,0.1c-0.3,0-0.6,0.2-1,0.6c-0.3,0.3-0.6,0.7-0.9,1.2
		c-0.3,0.4-0.5,0.9-0.8,1.4c-0.2,0.5-0.4,0.9-0.5,1.2h-1v-5.5h13.1c0.5-1,1-1.9,1.7-2.9c1.5-1.9,10.1-20.4,38-30.8
		C71,7.6,62.8,7.3,45.9,19.1c-1.6,1.3-13.3,10-20.8,17.4c-0.1-0.2,7.6-12.8,1.4-15.3c-1.8-0.7-10-1.5-8.1,16.6
		C17.3,37.2,4.1,32.1,6.7,0c0,0-6,8.2-0.1,32.8C7.2,34,8.8,39.7,12.6,46z"/>
	<path class="st2" d="M54.1,83.4c6.8,1.8,13.7,3,17.2,1.8c-2-0.4-6.6-1.5-12.4-3.9C57.4,82,55.8,82.7,54.1,83.4z"/>
</g>
</svg>
